%TF.GenerationSoftware,KiCad,Pcbnew,10.0.1*%
%TF.CreationDate,2026-06-06T16:23:10-04:00*%
%TF.ProjectId,relov0,72656c6f-7630-42e6-9b69-6361645f7063,rev?*%
%TF.SameCoordinates,Original*%
%TF.FileFunction,Copper,L1,Top*%
%TF.FilePolarity,Positive*%
%FSLAX46Y46*%
G04 Gerber Fmt 4.6, Leading zero omitted, Abs format (unit mm)*
G04 Created by KiCad (PCBNEW 10.0.1) date 2026-06-06 16:23:10*
%MOMM*%
%LPD*%
G01*
G04 APERTURE LIST*
G04 Aperture macros list*
%AMRoundRect*
0 Rectangle with rounded corners*
0 $1 Rounding radius*
0 $2 $3 $4 $5 $6 $7 $8 $9 X,Y pos of 4 corners*
0 Add a 4 corners polygon primitive as box body*
4,1,4,$2,$3,$4,$5,$6,$7,$8,$9,$2,$3,0*
0 Add four circle primitives for the rounded corners*
1,1,$1+$1,$2,$3*
1,1,$1+$1,$4,$5*
1,1,$1+$1,$6,$7*
1,1,$1+$1,$8,$9*
0 Add four rect primitives between the rounded corners*
20,1,$1+$1,$2,$3,$4,$5,0*
20,1,$1+$1,$4,$5,$6,$7,0*
20,1,$1+$1,$6,$7,$8,$9,0*
20,1,$1+$1,$8,$9,$2,$3,0*%
G04 Aperture macros list end*
%TA.AperFunction,ComponentPad*%
%ADD10R,1.500000X1.500000*%
%TD*%
%TA.AperFunction,ComponentPad*%
%ADD11R,1.905000X2.000000*%
%TD*%
%TA.AperFunction,ComponentPad*%
%ADD12O,1.905000X2.000000*%
%TD*%
%TA.AperFunction,ComponentPad*%
%ADD13RoundRect,0.250000X-0.550000X0.550000X-0.550000X-0.550000X0.550000X-0.550000X0.550000X0.550000X0*%
%TD*%
%TA.AperFunction,ComponentPad*%
%ADD14C,1.600000*%
%TD*%
%TA.AperFunction,ComponentPad*%
%ADD15R,1.700000X1.700000*%
%TD*%
%TA.AperFunction,ComponentPad*%
%ADD16C,1.700000*%
%TD*%
%TA.AperFunction,ComponentPad*%
%ADD17RoundRect,0.250000X-0.350000X0.350000X-0.350000X-0.350000X0.350000X-0.350000X0.350000X0.350000X0*%
%TD*%
%TA.AperFunction,ComponentPad*%
%ADD18C,1.200000*%
%TD*%
%TA.AperFunction,ComponentPad*%
%ADD19R,1.800000X1.800000*%
%TD*%
%TA.AperFunction,ComponentPad*%
%ADD20C,1.800000*%
%TD*%
%TA.AperFunction,ComponentPad*%
%ADD21R,3.000000X3.000000*%
%TD*%
%TA.AperFunction,ComponentPad*%
%ADD22C,3.000000*%
%TD*%
%TA.AperFunction,ComponentPad*%
%ADD23R,3.500000X3.500000*%
%TD*%
%TA.AperFunction,ComponentPad*%
%ADD24RoundRect,0.750000X-1.000000X0.750000X-1.000000X-0.750000X1.000000X-0.750000X1.000000X0.750000X0*%
%TD*%
%TA.AperFunction,ComponentPad*%
%ADD25RoundRect,0.875000X-0.875000X0.875000X-0.875000X-0.875000X0.875000X-0.875000X0.875000X0.875000X0*%
%TD*%
%TA.AperFunction,ComponentPad*%
%ADD26RoundRect,0.249999X-0.850001X0.850001X-0.850001X-0.850001X0.850001X-0.850001X0.850001X0.850001X0*%
%TD*%
%TA.AperFunction,ComponentPad*%
%ADD27C,2.200000*%
%TD*%
%TA.AperFunction,ComponentPad*%
%ADD28RoundRect,0.250000X-0.950000X-0.550000X0.950000X-0.550000X0.950000X0.550000X-0.950000X0.550000X0*%
%TD*%
%TA.AperFunction,ComponentPad*%
%ADD29O,2.400000X1.600000*%
%TD*%
%TA.AperFunction,ViaPad*%
%ADD30C,0.600000*%
%TD*%
%TA.AperFunction,Conductor*%
%ADD31C,0.500000*%
%TD*%
G04 APERTURE END LIST*
D10*
%TO.P,SW1,1,A_1*%
%TO.N,Net-(SW1-A)*%
X82040000Y-55527500D03*
%TO.P,SW1,2,B_2*%
%TO.N,Net-(D1-A)*%
X79500000Y-55527500D03*
%TO.P,SW1,3,C_3*%
%TO.N,unconnected-(SW1-C-Pad3)*%
X76960000Y-55527500D03*
%TD*%
D11*
%TO.P,U2,1,IN_1*%
%TO.N,+12V*%
X62270000Y-95230000D03*
D12*
%TO.P,U2,2,GND_2*%
%TO.N,GND*%
X64810000Y-95230000D03*
%TO.P,U2,3,OUT_3*%
%TO.N,+5V*%
X67350000Y-95230000D03*
%TD*%
D13*
%TO.P,C5,1*%
%TO.N,Net-(U1-OUT)*%
X124000000Y-72044888D03*
D14*
%TO.P,C5,2*%
%TO.N,Net-(C5-Pad2)*%
X124000000Y-74044888D03*
%TD*%
D15*
%TO.P,J4,1,Pin_1_1*%
%TO.N,GND*%
X138000000Y-70500000D03*
D16*
%TO.P,J4,2,Pin_2_2*%
%TO.N,+5V*%
X138000000Y-73040000D03*
%TO.P,J4,3,Pin_3_3*%
%TO.N,+12V*%
X138000000Y-75580000D03*
%TD*%
D17*
%TO.P,C4,1*%
%TO.N,+5V*%
X77810000Y-83500000D03*
D18*
%TO.P,C4,2*%
%TO.N,GND*%
X77810000Y-85500000D03*
%TD*%
D19*
%TO.P,D2,1,K_1*%
%TO.N,GND*%
X127000000Y-82000000D03*
D20*
%TO.P,D2,2,A_2*%
%TO.N,Net-(D2-A)*%
X127000000Y-79460000D03*
%TD*%
D14*
%TO.P,R1,1*%
%TO.N,Net-(U1-DISCH)*%
X108600591Y-80460000D03*
%TO.P,R1,2*%
%TO.N,+5V*%
X117399409Y-85540000D03*
%TD*%
D21*
%TO.P,RV1,1,1_1*%
%TO.N,unconnected-(RV1-Pad1)*%
X77500000Y-95500000D03*
D22*
%TO.P,RV1,2,2_2*%
%TO.N,Net-(U1-DISCH)*%
X82500000Y-95500000D03*
%TO.P,RV1,3,3_3*%
%TO.N,Net-(R2-Pad2)*%
X87500000Y-95500000D03*
%TD*%
D14*
%TO.P,R3,1*%
%TO.N,Net-(U1-OUT)*%
X95000000Y-88500000D03*
%TO.P,R3,2*%
%TO.N,Net-(D2-A)*%
X103798818Y-93580000D03*
%TD*%
D23*
%TO.P,J1,1*%
%TO.N,Net-(SW1-A)*%
X65500000Y-65230000D03*
D24*
%TO.P,J1,2*%
%TO.N,GND*%
X65500000Y-59230000D03*
D25*
%TO.P,J1,3*%
%TO.N,unconnected-(J1-Pad3)*%
X60800000Y-62230000D03*
%TD*%
D14*
%TO.P,R2,1*%
%TO.N,Net-(U1-THRES)*%
X99600591Y-81960000D03*
%TO.P,R2,2*%
%TO.N,Net-(R2-Pad2)*%
X108399409Y-87040000D03*
%TD*%
%TO.P,C6,1*%
%TO.N,+5V*%
X112500000Y-55000000D03*
%TO.P,C6,2*%
%TO.N,GND*%
X115000000Y-55000000D03*
%TD*%
D26*
%TO.P,D1,1,K_1*%
%TO.N,+12V*%
X102000000Y-54230000D03*
D27*
%TO.P,D1,2,A_2*%
%TO.N,Net-(D1-A)*%
X102000000Y-64390000D03*
%TD*%
D23*
%TO.P,J2,1*%
%TO.N,Net-(SW1-A)*%
X125457500Y-65000000D03*
D24*
%TO.P,J2,2*%
%TO.N,GND*%
X125457500Y-59000000D03*
D25*
%TO.P,J2,3*%
%TO.N,unconnected-(J2-Pad3)*%
X120757500Y-62000000D03*
%TD*%
D20*
%TO.P,J3,1*%
%TO.N,GND*%
X126000000Y-97480000D03*
%TO.P,J3,2*%
%TO.N,unconnected-(J3-Pad2)*%
X126000000Y-86080000D03*
%TO.P,J3,3*%
%TO.N,Net-(C5-Pad2)*%
X126000000Y-94380000D03*
%TD*%
D13*
%TO.P,C2,1*%
%TO.N,+12V*%
X78000000Y-73927349D03*
D14*
%TO.P,C2,2*%
%TO.N,GND*%
X78000000Y-77727349D03*
%TD*%
D13*
%TO.P,C1,1*%
%TO.N,Net-(U1-THRES)*%
X78000000Y-64774888D03*
D14*
%TO.P,C1,2*%
%TO.N,GND*%
X78000000Y-66774888D03*
%TD*%
D28*
%TO.P,U1,1,GND_1*%
%TO.N,GND*%
X88190000Y-64920000D03*
D29*
%TO.P,U1,2,TRIG_2*%
%TO.N,Net-(U1-THRES)*%
X88190000Y-67460000D03*
%TO.P,U1,3,OUT_3*%
%TO.N,Net-(U1-OUT)*%
X88190000Y-70000000D03*
%TO.P,U1,4,~{RST}_4*%
%TO.N,+5V*%
X88190000Y-72540000D03*
%TO.P,U1,5,CONT_5*%
%TO.N,Net-(U1-CONT)*%
X95810000Y-72540000D03*
%TO.P,U1,6,THRES_6*%
%TO.N,Net-(U1-THRES)*%
X95810000Y-70000000D03*
%TO.P,U1,7,DISCH_7*%
%TO.N,Net-(U1-DISCH)*%
X95810000Y-67460000D03*
%TO.P,U1,8,VCC_8*%
%TO.N,+5V*%
X95810000Y-64920000D03*
%TD*%
D19*
%TO.P,D3,1,K_1*%
%TO.N,Net-(D3-K)*%
X90730000Y-56230000D03*
D20*
%TO.P,D3,2,A_2*%
%TO.N,+5V*%
X93270000Y-56230000D03*
%TD*%
D14*
%TO.P,C3,1*%
%TO.N,GND*%
X90310000Y-81500000D03*
%TO.P,C3,2*%
%TO.N,Net-(U1-CONT)*%
X92810000Y-81500000D03*
%TD*%
%TO.P,R4,1*%
%TO.N,Net-(D3-K)*%
X109000000Y-93000000D03*
%TO.P,R4,2*%
%TO.N,GND*%
X117798818Y-98080000D03*
%TD*%
D30*
%TO.N,Net-(U1-OUT)*%
X114500000Y-78500000D03*
X109500000Y-83500000D03*
%TD*%
%TO.N,Net-(D1-A)*%
D31*
X79500000Y-55527500D02*
X79500000Y-54000000D01*
X98610000Y-61000000D02*
X102000000Y-64390000D01*
X79500000Y-54000000D02*
X80500000Y-53000000D01*
X80500000Y-53000000D02*
X84000000Y-53000000D01*
X84000000Y-53000000D02*
X84972500Y-53972500D01*
X84972500Y-53972500D02*
X84972500Y-61000000D01*
X84972500Y-61000000D02*
X98610000Y-61000000D01*
%TO.N,Net-(SW1-A)*%
X65500000Y-65230000D02*
X72770000Y-65230000D01*
X72770000Y-65230000D02*
X76960000Y-61040000D01*
X76960000Y-61040000D02*
X78460000Y-61040000D01*
X78460000Y-61040000D02*
X82040000Y-57460000D01*
X82040000Y-57460000D02*
X82040000Y-55527500D01*
%TO.N,Net-(C5-Pad2)*%
X126000000Y-94380000D02*
X124580000Y-94380000D01*
X121000000Y-90800000D02*
X121000000Y-77044888D01*
X124580000Y-94380000D02*
X121000000Y-90800000D01*
X121000000Y-77044888D02*
X124000000Y-74044888D01*
%TO.N,+5V*%
X112500000Y-55000000D02*
X116500000Y-59000000D01*
X116500000Y-59000000D02*
X121500000Y-59000000D01*
X121500000Y-59000000D02*
X124000000Y-61500000D01*
X127500000Y-61500000D02*
X135500000Y-69500000D01*
X135500000Y-69500000D02*
X135500000Y-72090050D01*
X124000000Y-61500000D02*
X127500000Y-61500000D01*
X136449950Y-73040000D02*
X138000000Y-73040000D01*
X135500000Y-72090050D02*
X136449950Y-73040000D01*
%TO.N,Net-(U1-OUT)*%
X95000000Y-88500000D02*
X101000000Y-88500000D01*
X120955112Y-72044888D02*
X124000000Y-72044888D01*
X101000000Y-88500000D02*
X103500000Y-86000000D01*
X103500000Y-86000000D02*
X107000000Y-86000000D01*
X107000000Y-86000000D02*
X109500000Y-83500000D01*
X114500000Y-78500000D02*
X120955112Y-72044888D01*
%TO.N,+12V*%
X62270000Y-95230000D02*
X62270000Y-87730000D01*
X76072651Y-73927349D02*
X78000000Y-73927349D01*
X62270000Y-87730000D02*
X76072651Y-73927349D01*
X115770000Y-68000000D02*
X102000000Y-54230000D01*
X138000000Y-75580000D02*
X130420000Y-68000000D01*
X130420000Y-68000000D02*
X115770000Y-68000000D01*
%TO.N,+5V*%
X67350000Y-90150000D02*
X74000000Y-83500000D01*
X98000000Y-51500000D02*
X93270000Y-56230000D01*
X67350000Y-95230000D02*
X67350000Y-90150000D01*
X112500000Y-55000000D02*
X109000000Y-51500000D01*
X109000000Y-51500000D02*
X98000000Y-51500000D01*
X74000000Y-83500000D02*
X77810000Y-83500000D01*
%TO.N,Net-(SW1-A)*%
X81500000Y-55527500D02*
X81500000Y-56027500D01*
%TO.N,Net-(U1-OUT)*%
X84500000Y-73000000D02*
X87500000Y-70000000D01*
X84500000Y-81500000D02*
X84500000Y-73000000D01*
X91500000Y-88500000D02*
X84500000Y-81500000D01*
X87500000Y-70000000D02*
X88190000Y-70000000D01*
X95000000Y-88500000D02*
X91500000Y-88500000D01*
%TO.N,Net-(R2-Pad2)*%
X87500000Y-95500000D02*
X92000000Y-91000000D01*
X104460000Y-87040000D02*
X108399409Y-87040000D01*
X92000000Y-91000000D02*
X100500000Y-91000000D01*
X100500000Y-91000000D02*
X104460000Y-87040000D01*
%TO.N,Net-(U1-THRES)*%
X80274888Y-64774888D02*
X82960000Y-67460000D01*
X90730000Y-70000000D02*
X88190000Y-67460000D01*
X78000000Y-64774888D02*
X80274888Y-64774888D01*
X82960000Y-67460000D02*
X88190000Y-67460000D01*
X95810000Y-70000000D02*
X90730000Y-70000000D01*
%TO.N,Net-(U1-CONT)*%
X95810000Y-78500000D02*
X95810000Y-72540000D01*
X92810000Y-81500000D02*
X95810000Y-78500000D01*
%TO.N,Net-(D3-K)*%
X90730000Y-57730000D02*
X90730000Y-56230000D01*
X92000000Y-59000000D02*
X90730000Y-57730000D01*
X102500000Y-59000000D02*
X92000000Y-59000000D01*
X109000000Y-93000000D02*
X111500000Y-90500000D01*
X111500000Y-90500000D02*
X111500000Y-68000000D01*
X111500000Y-68000000D02*
X102500000Y-59000000D01*
%TD*%
%TA.AperFunction,Conductor*%
%TO.N,GND*%
G36*
X135002702Y-50500617D02*
G01*
X135386773Y-50517386D01*
X135397505Y-50518326D01*
X135775963Y-50568150D01*
X135786601Y-50570025D01*
X136159279Y-50652647D01*
X136169720Y-50655445D01*
X136533765Y-50770227D01*
X136543911Y-50773920D01*
X136896578Y-50920000D01*
X136906369Y-50924566D01*
X137244942Y-51100816D01*
X137254310Y-51106224D01*
X137576244Y-51311318D01*
X137585105Y-51317523D01*
X137887930Y-51549889D01*
X137896217Y-51556843D01*
X138177635Y-51814715D01*
X138185284Y-51822364D01*
X138443156Y-52103782D01*
X138450110Y-52112069D01*
X138682476Y-52414894D01*
X138688681Y-52423755D01*
X138893775Y-52745689D01*
X138899183Y-52755057D01*
X139075430Y-53093623D01*
X139080002Y-53103427D01*
X139226075Y-53456078D01*
X139229775Y-53466244D01*
X139344553Y-53830276D01*
X139347353Y-53840724D01*
X139429972Y-54213390D01*
X139431850Y-54224044D01*
X139457310Y-54417431D01*
X139481345Y-54600000D01*
X139481671Y-54602472D01*
X139482614Y-54613248D01*
X139499382Y-54997297D01*
X139499500Y-55002706D01*
X139499500Y-69310730D01*
X139479815Y-69377769D01*
X139427011Y-69423524D01*
X139357853Y-69433468D01*
X139294297Y-69404443D01*
X139276234Y-69385042D01*
X139207187Y-69292809D01*
X139092093Y-69206649D01*
X139092086Y-69206645D01*
X138957379Y-69156403D01*
X138957372Y-69156401D01*
X138897844Y-69150000D01*
X138250000Y-69150000D01*
X138250000Y-70066988D01*
X138192993Y-70034075D01*
X138065826Y-70000000D01*
X137934174Y-70000000D01*
X137807007Y-70034075D01*
X137750000Y-70066988D01*
X137750000Y-69150000D01*
X137102155Y-69150000D01*
X137042627Y-69156401D01*
X137042620Y-69156403D01*
X136907913Y-69206645D01*
X136907906Y-69206649D01*
X136792812Y-69292809D01*
X136792809Y-69292812D01*
X136706649Y-69407906D01*
X136706645Y-69407913D01*
X136656403Y-69542620D01*
X136656401Y-69542627D01*
X136650000Y-69602155D01*
X136650000Y-70250000D01*
X137566988Y-70250000D01*
X137534075Y-70307007D01*
X137500000Y-70434174D01*
X137500000Y-70565826D01*
X137534075Y-70692993D01*
X137566988Y-70750000D01*
X136650000Y-70750000D01*
X136650000Y-71397844D01*
X136656401Y-71457372D01*
X136656403Y-71457379D01*
X136706645Y-71592086D01*
X136706649Y-71592093D01*
X136792809Y-71707187D01*
X136792812Y-71707190D01*
X136907906Y-71793350D01*
X136907913Y-71793354D01*
X137039470Y-71842422D01*
X137095404Y-71884293D01*
X137119821Y-71949758D01*
X137104969Y-72018031D01*
X137083819Y-72046285D01*
X136969892Y-72160212D01*
X136913097Y-72238385D01*
X136908765Y-72241725D01*
X136906492Y-72246703D01*
X136881389Y-72262835D01*
X136857767Y-72281051D01*
X136851095Y-72282303D01*
X136847714Y-72284477D01*
X136812779Y-72289500D01*
X136812179Y-72289500D01*
X136745140Y-72269815D01*
X136724498Y-72253181D01*
X136286819Y-71815501D01*
X136253334Y-71754178D01*
X136250500Y-71727820D01*
X136250500Y-69426079D01*
X136221659Y-69281092D01*
X136221658Y-69281091D01*
X136221658Y-69281087D01*
X136205075Y-69241051D01*
X136165087Y-69144511D01*
X136165080Y-69144498D01*
X136082952Y-69021585D01*
X136069395Y-69008028D01*
X135978416Y-68917049D01*
X133990649Y-66929282D01*
X127978421Y-60917052D01*
X127978414Y-60917046D01*
X127904729Y-60867812D01*
X127904729Y-60867813D01*
X127855491Y-60834913D01*
X127718917Y-60778343D01*
X127718907Y-60778340D01*
X127573920Y-60749500D01*
X127573918Y-60749500D01*
X127522480Y-60749500D01*
X127455441Y-60729815D01*
X127409686Y-60677011D01*
X127399742Y-60607853D01*
X127420552Y-60554884D01*
X127549068Y-60369380D01*
X127549071Y-60369374D01*
X127642122Y-60164519D01*
X127697099Y-59946332D01*
X127707499Y-59814196D01*
X127707500Y-59814184D01*
X127707500Y-59250000D01*
X126890512Y-59250000D01*
X126923425Y-59192993D01*
X126957500Y-59065826D01*
X126957500Y-58934174D01*
X126923425Y-58807007D01*
X126890512Y-58750000D01*
X127707499Y-58750000D01*
X127707499Y-58185817D01*
X127707498Y-58185802D01*
X127697099Y-58053667D01*
X127642122Y-57835480D01*
X127549071Y-57630625D01*
X127549068Y-57630619D01*
X127420940Y-57445676D01*
X127420930Y-57445664D01*
X127261835Y-57286569D01*
X127261823Y-57286559D01*
X127076880Y-57158431D01*
X127076874Y-57158428D01*
X126872019Y-57065377D01*
X126653832Y-57010400D01*
X126521696Y-57000000D01*
X125707500Y-57000000D01*
X125707500Y-58500000D01*
X125207500Y-58500000D01*
X125207500Y-57000000D01*
X124393317Y-57000000D01*
X124393302Y-57000001D01*
X124261167Y-57010400D01*
X124042980Y-57065377D01*
X123838125Y-57158428D01*
X123838119Y-57158431D01*
X123653176Y-57286559D01*
X123653164Y-57286569D01*
X123494069Y-57445664D01*
X123494059Y-57445676D01*
X123365931Y-57630619D01*
X123365928Y-57630625D01*
X123272877Y-57835480D01*
X123217900Y-58053667D01*
X123207500Y-58185803D01*
X123207500Y-58750000D01*
X124024488Y-58750000D01*
X123991575Y-58807007D01*
X123957500Y-58934174D01*
X123957500Y-59065826D01*
X123991575Y-59192993D01*
X124024488Y-59250000D01*
X123207500Y-59250000D01*
X123207500Y-59346771D01*
X123187815Y-59413810D01*
X123135011Y-59459565D01*
X123065852Y-59469508D01*
X123002297Y-59440482D01*
X122995819Y-59434451D01*
X121978421Y-58417052D01*
X121978414Y-58417046D01*
X121904729Y-58367812D01*
X121904729Y-58367813D01*
X121855495Y-58334916D01*
X121766215Y-58297935D01*
X121766213Y-58297934D01*
X121718917Y-58278343D01*
X121718907Y-58278340D01*
X121573920Y-58249500D01*
X121573918Y-58249500D01*
X116862229Y-58249500D01*
X116795190Y-58229815D01*
X116774548Y-58213181D01*
X115066395Y-56505028D01*
X115032910Y-56443705D01*
X115037894Y-56374013D01*
X115079766Y-56318080D01*
X115134678Y-56294874D01*
X115304417Y-56267989D01*
X115499031Y-56204755D01*
X115681349Y-56111859D01*
X115725921Y-56079474D01*
X115046446Y-55400000D01*
X115052661Y-55400000D01*
X115154394Y-55372741D01*
X115245606Y-55320080D01*
X115320080Y-55245606D01*
X115372741Y-55154394D01*
X115400000Y-55052661D01*
X115400000Y-55046447D01*
X116079474Y-55725921D01*
X116111859Y-55681349D01*
X116204755Y-55499031D01*
X116267990Y-55304417D01*
X116300000Y-55102317D01*
X116300000Y-54897685D01*
X116299424Y-54894048D01*
X116299424Y-54894046D01*
X116296995Y-54878711D01*
X133149500Y-54878711D01*
X133149500Y-55121288D01*
X133181161Y-55361785D01*
X133243947Y-55596104D01*
X133313829Y-55764814D01*
X133336776Y-55820212D01*
X133458064Y-56030289D01*
X133458066Y-56030292D01*
X133458067Y-56030293D01*
X133605733Y-56222736D01*
X133605739Y-56222743D01*
X133777256Y-56394260D01*
X133777263Y-56394266D01*
X133890321Y-56481018D01*
X133969711Y-56541936D01*
X134179788Y-56663224D01*
X134403900Y-56756054D01*
X134638211Y-56818838D01*
X134818586Y-56842584D01*
X134878711Y-56850500D01*
X134878712Y-56850500D01*
X135121289Y-56850500D01*
X135169388Y-56844167D01*
X135361789Y-56818838D01*
X135596100Y-56756054D01*
X135820212Y-56663224D01*
X136030289Y-56541936D01*
X136222738Y-56394265D01*
X136394265Y-56222738D01*
X136541936Y-56030289D01*
X136663224Y-55820212D01*
X136756054Y-55596100D01*
X136818838Y-55361789D01*
X136850500Y-55121288D01*
X136850500Y-54878712D01*
X136849253Y-54869243D01*
X136836074Y-54769132D01*
X136818838Y-54638211D01*
X136756054Y-54403900D01*
X136663224Y-54179788D01*
X136541936Y-53969711D01*
X136407707Y-53794780D01*
X136394266Y-53777263D01*
X136394260Y-53777256D01*
X136222743Y-53605739D01*
X136222736Y-53605733D01*
X136030293Y-53458067D01*
X136030292Y-53458066D01*
X136030289Y-53458064D01*
X135820212Y-53336776D01*
X135820205Y-53336773D01*
X135596104Y-53243947D01*
X135361785Y-53181161D01*
X135121289Y-53149500D01*
X135121288Y-53149500D01*
X134878712Y-53149500D01*
X134878711Y-53149500D01*
X134638214Y-53181161D01*
X134403895Y-53243947D01*
X134179794Y-53336773D01*
X134179785Y-53336777D01*
X133969706Y-53458067D01*
X133777263Y-53605733D01*
X133777256Y-53605739D01*
X133605739Y-53777256D01*
X133605733Y-53777263D01*
X133458067Y-53969706D01*
X133336777Y-54179785D01*
X133336773Y-54179794D01*
X133243947Y-54403895D01*
X133181161Y-54638214D01*
X133149500Y-54878711D01*
X116296995Y-54878711D01*
X116267990Y-54695582D01*
X116204755Y-54500968D01*
X116111859Y-54318650D01*
X116079474Y-54274077D01*
X116079474Y-54274076D01*
X115400000Y-54953551D01*
X115400000Y-54947339D01*
X115372741Y-54845606D01*
X115320080Y-54754394D01*
X115245606Y-54679920D01*
X115154394Y-54627259D01*
X115052661Y-54600000D01*
X115046446Y-54600000D01*
X115725922Y-53920524D01*
X115725921Y-53920523D01*
X115681359Y-53888147D01*
X115681350Y-53888141D01*
X115499031Y-53795244D01*
X115304417Y-53732009D01*
X115102317Y-53700000D01*
X114897683Y-53700000D01*
X114695582Y-53732009D01*
X114500968Y-53795244D01*
X114318644Y-53888143D01*
X114274077Y-53920523D01*
X114274077Y-53920524D01*
X114953554Y-54600000D01*
X114947339Y-54600000D01*
X114845606Y-54627259D01*
X114754394Y-54679920D01*
X114679920Y-54754394D01*
X114627259Y-54845606D01*
X114600000Y-54947339D01*
X114600000Y-54953553D01*
X113920524Y-54274077D01*
X113920523Y-54274077D01*
X113888143Y-54318644D01*
X113860765Y-54372378D01*
X113812790Y-54423174D01*
X113744969Y-54439969D01*
X113678834Y-54417431D01*
X113639795Y-54372378D01*
X113612287Y-54318390D01*
X113612285Y-54318387D01*
X113612284Y-54318385D01*
X113491971Y-54152786D01*
X113347213Y-54008028D01*
X113181613Y-53887715D01*
X113181612Y-53887714D01*
X113181610Y-53887713D01*
X113093511Y-53842824D01*
X112999223Y-53794781D01*
X112804534Y-53731522D01*
X112629995Y-53703878D01*
X112602352Y-53699500D01*
X112397648Y-53699500D01*
X112341971Y-53708318D01*
X112272678Y-53699363D01*
X112234893Y-53673526D01*
X109478421Y-50917052D01*
X109478414Y-50917046D01*
X109404729Y-50867812D01*
X109404729Y-50867813D01*
X109355491Y-50834913D01*
X109218917Y-50778343D01*
X109218907Y-50778340D01*
X109073920Y-50749500D01*
X109073918Y-50749500D01*
X98073917Y-50749500D01*
X97926082Y-50749500D01*
X97926080Y-50749500D01*
X97781092Y-50778340D01*
X97781082Y-50778343D01*
X97644511Y-50834912D01*
X97644498Y-50834919D01*
X97521584Y-50917048D01*
X97521580Y-50917051D01*
X93622508Y-54816122D01*
X93561185Y-54849607D01*
X93515429Y-54850914D01*
X93380227Y-54829500D01*
X93380222Y-54829500D01*
X93159778Y-54829500D01*
X93087201Y-54840995D01*
X92942047Y-54863985D01*
X92732396Y-54932103D01*
X92732393Y-54932104D01*
X92535974Y-55032187D01*
X92357641Y-55161752D01*
X92357636Y-55161756D01*
X92307463Y-55211929D01*
X92246140Y-55245413D01*
X92176448Y-55240428D01*
X92120515Y-55198557D01*
X92103601Y-55167580D01*
X92073797Y-55087671D01*
X92073793Y-55087664D01*
X91987547Y-54972455D01*
X91987544Y-54972452D01*
X91872335Y-54886206D01*
X91872328Y-54886202D01*
X91737482Y-54835908D01*
X91737483Y-54835908D01*
X91677883Y-54829501D01*
X91677881Y-54829500D01*
X91677873Y-54829500D01*
X91677864Y-54829500D01*
X89782129Y-54829500D01*
X89782123Y-54829501D01*
X89722516Y-54835908D01*
X89587671Y-54886202D01*
X89587664Y-54886206D01*
X89472455Y-54972452D01*
X89472452Y-54972455D01*
X89386206Y-55087664D01*
X89386202Y-55087671D01*
X89335908Y-55222517D01*
X89329501Y-55282116D01*
X89329500Y-55282135D01*
X89329500Y-57177870D01*
X89329501Y-57177876D01*
X89335908Y-57237483D01*
X89386202Y-57372328D01*
X89386206Y-57372335D01*
X89472452Y-57487544D01*
X89472455Y-57487547D01*
X89587664Y-57573793D01*
X89587671Y-57573797D01*
X89624977Y-57587711D01*
X89722517Y-57624091D01*
X89782127Y-57630500D01*
X89855500Y-57630499D01*
X89922538Y-57650183D01*
X89968294Y-57702986D01*
X89979500Y-57754499D01*
X89979500Y-57803918D01*
X89979500Y-57803920D01*
X89979499Y-57803920D01*
X90008340Y-57948907D01*
X90008343Y-57948917D01*
X90064914Y-58085492D01*
X90097812Y-58134727D01*
X90097813Y-58134730D01*
X90147046Y-58208414D01*
X90147052Y-58208421D01*
X91417049Y-59478416D01*
X91475640Y-59537007D01*
X91521585Y-59582952D01*
X91644498Y-59665080D01*
X91644511Y-59665087D01*
X91781082Y-59721656D01*
X91781087Y-59721658D01*
X91781091Y-59721658D01*
X91781092Y-59721659D01*
X91926079Y-59750500D01*
X91926082Y-59750500D01*
X102137770Y-59750500D01*
X102204809Y-59770185D01*
X102225451Y-59786819D01*
X110713181Y-68274549D01*
X110746666Y-68335872D01*
X110749500Y-68362230D01*
X110749500Y-90137769D01*
X110729815Y-90204808D01*
X110713181Y-90225450D01*
X109265104Y-91673526D01*
X109203781Y-91707011D01*
X109158025Y-91708318D01*
X109102352Y-91699500D01*
X108897648Y-91699500D01*
X108873329Y-91703351D01*
X108695465Y-91731522D01*
X108500776Y-91794781D01*
X108318386Y-91887715D01*
X108152786Y-92008028D01*
X108008028Y-92152786D01*
X107887715Y-92318386D01*
X107794781Y-92500776D01*
X107731522Y-92695465D01*
X107699500Y-92897648D01*
X107699500Y-93102351D01*
X107731522Y-93304534D01*
X107794781Y-93499223D01*
X107846947Y-93601602D01*
X107875691Y-93658016D01*
X107887715Y-93681613D01*
X108008028Y-93847213D01*
X108152786Y-93991971D01*
X108272875Y-94079219D01*
X108318390Y-94112287D01*
X108434607Y-94171503D01*
X108500776Y-94205218D01*
X108500778Y-94205218D01*
X108500781Y-94205220D01*
X108596303Y-94236257D01*
X108695465Y-94268477D01*
X108796557Y-94284488D01*
X108897648Y-94300500D01*
X108897649Y-94300500D01*
X109102351Y-94300500D01*
X109102352Y-94300500D01*
X109304534Y-94268477D01*
X109499219Y-94205220D01*
X109681610Y-94112287D01*
X109814106Y-94016024D01*
X109847213Y-93991971D01*
X109847215Y-93991968D01*
X109847219Y-93991966D01*
X109991966Y-93847219D01*
X109991968Y-93847215D01*
X109991971Y-93847213D01*
X110057031Y-93757664D01*
X110112287Y-93681610D01*
X110205220Y-93499219D01*
X110268477Y-93304534D01*
X110300500Y-93102352D01*
X110300500Y-92897648D01*
X110291681Y-92841971D01*
X110300635Y-92772680D01*
X110326470Y-92734896D01*
X112082952Y-90978416D01*
X112152774Y-90873918D01*
X112165084Y-90855495D01*
X112221658Y-90718913D01*
X112250500Y-90573918D01*
X112250500Y-85437648D01*
X116098909Y-85437648D01*
X116098909Y-85642351D01*
X116130931Y-85844534D01*
X116194190Y-86039223D01*
X116258100Y-86164653D01*
X116272435Y-86192786D01*
X116287124Y-86221613D01*
X116407437Y-86387213D01*
X116552195Y-86531971D01*
X116670060Y-86617603D01*
X116717799Y-86652287D01*
X116834016Y-86711503D01*
X116900185Y-86745218D01*
X116900187Y-86745218D01*
X116900190Y-86745220D01*
X117004546Y-86779127D01*
X117094874Y-86808477D01*
X117195966Y-86824488D01*
X117297057Y-86840500D01*
X117297058Y-86840500D01*
X117501760Y-86840500D01*
X117501761Y-86840500D01*
X117703943Y-86808477D01*
X117898628Y-86745220D01*
X118081019Y-86652287D01*
X118173999Y-86584732D01*
X118246622Y-86531971D01*
X118246624Y-86531968D01*
X118246628Y-86531966D01*
X118391375Y-86387219D01*
X118391377Y-86387215D01*
X118391380Y-86387213D01*
X118444141Y-86314590D01*
X118511696Y-86221610D01*
X118604629Y-86039219D01*
X118667886Y-85844534D01*
X118699909Y-85642352D01*
X118699909Y-85437648D01*
X118674677Y-85278340D01*
X118667886Y-85235465D01*
X118616638Y-85077742D01*
X118604629Y-85040781D01*
X118604627Y-85040778D01*
X118604627Y-85040776D01*
X118544852Y-84923463D01*
X118511696Y-84858390D01*
X118503965Y-84847749D01*
X118391380Y-84692786D01*
X118246622Y-84548028D01*
X118081022Y-84427715D01*
X118081021Y-84427714D01*
X118081019Y-84427713D01*
X118024062Y-84398691D01*
X117898632Y-84334781D01*
X117703943Y-84271522D01*
X117529404Y-84243878D01*
X117501761Y-84239500D01*
X117297057Y-84239500D01*
X117272738Y-84243351D01*
X117094874Y-84271522D01*
X116900185Y-84334781D01*
X116717795Y-84427715D01*
X116552195Y-84548028D01*
X116407437Y-84692786D01*
X116287124Y-84858386D01*
X116194190Y-85040776D01*
X116130931Y-85235465D01*
X116098909Y-85437648D01*
X112250500Y-85437648D01*
X112250500Y-78421153D01*
X113699500Y-78421153D01*
X113699500Y-78578846D01*
X113730261Y-78733489D01*
X113730264Y-78733501D01*
X113790602Y-78879172D01*
X113790609Y-78879185D01*
X113878210Y-79010288D01*
X113878213Y-79010292D01*
X113989707Y-79121786D01*
X113989711Y-79121789D01*
X114120814Y-79209390D01*
X114120827Y-79209397D01*
X114266498Y-79269735D01*
X114266503Y-79269737D01*
X114421153Y-79300499D01*
X114421156Y-79300500D01*
X114421158Y-79300500D01*
X114578844Y-79300500D01*
X114578845Y-79300499D01*
X114733497Y-79269737D01*
X114867026Y-79214428D01*
X114879172Y-79209397D01*
X114879172Y-79209396D01*
X114879179Y-79209394D01*
X115010289Y-79121789D01*
X115121789Y-79010289D01*
X115209394Y-78879179D01*
X115219191Y-78855524D01*
X115246069Y-78815297D01*
X121229661Y-72831707D01*
X121290984Y-72798222D01*
X121317342Y-72795388D01*
X122636267Y-72795388D01*
X122703306Y-72815073D01*
X122749061Y-72867877D01*
X122753972Y-72880382D01*
X122765186Y-72914222D01*
X122857288Y-73063544D01*
X122926152Y-73132408D01*
X122926153Y-73132409D01*
X122959637Y-73193733D01*
X122954652Y-73263424D01*
X122938790Y-73292973D01*
X122887717Y-73363271D01*
X122887712Y-73363279D01*
X122794781Y-73545664D01*
X122731522Y-73740353D01*
X122699500Y-73942536D01*
X122699500Y-74147239D01*
X122708318Y-74202914D01*
X122699363Y-74272208D01*
X122673526Y-74309993D01*
X120417049Y-76566470D01*
X120417049Y-76566471D01*
X120392153Y-76603731D01*
X120334913Y-76689396D01*
X120278343Y-76825970D01*
X120278340Y-76825980D01*
X120249500Y-76970967D01*
X120249500Y-90873918D01*
X120278340Y-91018907D01*
X120278343Y-91018917D01*
X120334914Y-91155492D01*
X120367812Y-91204727D01*
X120367813Y-91204730D01*
X120417046Y-91278414D01*
X120417052Y-91278421D01*
X123997049Y-94858416D01*
X124056233Y-94917600D01*
X124101585Y-94962952D01*
X124224498Y-95045080D01*
X124224511Y-95045087D01*
X124268924Y-95063483D01*
X124274740Y-95065892D01*
X124361088Y-95101659D01*
X124459771Y-95121288D01*
X124497395Y-95128772D01*
X124506081Y-95130500D01*
X124506082Y-95130500D01*
X124506083Y-95130500D01*
X124653918Y-95130500D01*
X124750976Y-95130500D01*
X124818015Y-95150185D01*
X124851295Y-95181616D01*
X124931754Y-95292361D01*
X125087636Y-95448243D01*
X125087641Y-95448247D01*
X125243192Y-95561260D01*
X125265978Y-95577815D01*
X125370580Y-95631113D01*
X125462393Y-95677895D01*
X125462396Y-95677896D01*
X125567221Y-95711955D01*
X125672049Y-95746015D01*
X125889778Y-95780500D01*
X125889779Y-95780500D01*
X126110221Y-95780500D01*
X126110222Y-95780500D01*
X126327951Y-95746015D01*
X126537606Y-95677895D01*
X126734022Y-95577815D01*
X126912365Y-95448242D01*
X127068242Y-95292365D01*
X127197815Y-95114022D01*
X127297895Y-94917606D01*
X127310532Y-94878712D01*
X133149500Y-94878712D01*
X133149500Y-95121288D01*
X133150713Y-95130500D01*
X133173344Y-95302409D01*
X133181162Y-95361789D01*
X133204329Y-95448247D01*
X133243947Y-95596104D01*
X133322857Y-95786609D01*
X133336776Y-95820212D01*
X133458064Y-96030289D01*
X133458066Y-96030292D01*
X133458067Y-96030293D01*
X133605733Y-96222736D01*
X133605739Y-96222743D01*
X133777256Y-96394260D01*
X133777262Y-96394265D01*
X133969711Y-96541936D01*
X134179788Y-96663224D01*
X134403900Y-96756054D01*
X134638211Y-96818838D01*
X134818586Y-96842584D01*
X134878711Y-96850500D01*
X134878712Y-96850500D01*
X135121289Y-96850500D01*
X135169388Y-96844167D01*
X135361789Y-96818838D01*
X135596100Y-96756054D01*
X135820212Y-96663224D01*
X136030289Y-96541936D01*
X136222738Y-96394265D01*
X136394265Y-96222738D01*
X136541936Y-96030289D01*
X136663224Y-95820212D01*
X136756054Y-95596100D01*
X136818838Y-95361789D01*
X136850500Y-95121288D01*
X136850500Y-94878712D01*
X136847453Y-94855571D01*
X136825957Y-94692287D01*
X136818838Y-94638211D01*
X136756054Y-94403900D01*
X136663224Y-94179788D01*
X136541936Y-93969711D01*
X136444244Y-93842396D01*
X136394266Y-93777263D01*
X136394260Y-93777256D01*
X136222743Y-93605739D01*
X136222736Y-93605733D01*
X136030293Y-93458067D01*
X136030292Y-93458066D01*
X136030289Y-93458064D01*
X135820212Y-93336776D01*
X135820205Y-93336773D01*
X135596104Y-93243947D01*
X135361785Y-93181161D01*
X135121289Y-93149500D01*
X135121288Y-93149500D01*
X134878712Y-93149500D01*
X134878711Y-93149500D01*
X134638214Y-93181161D01*
X134403895Y-93243947D01*
X134179794Y-93336773D01*
X134179785Y-93336777D01*
X133969706Y-93458067D01*
X133777263Y-93605733D01*
X133777256Y-93605739D01*
X133605739Y-93777256D01*
X133605733Y-93777263D01*
X133458067Y-93969706D01*
X133336777Y-94179785D01*
X133336773Y-94179794D01*
X133243947Y-94403895D01*
X133181161Y-94638214D01*
X133152172Y-94858416D01*
X133149500Y-94878712D01*
X127310532Y-94878712D01*
X127366015Y-94707951D01*
X127400500Y-94490222D01*
X127400500Y-94269778D01*
X127366015Y-94052049D01*
X127328186Y-93935621D01*
X127297896Y-93842396D01*
X127297895Y-93842393D01*
X127254722Y-93757664D01*
X127197815Y-93645978D01*
X127168577Y-93605735D01*
X127068247Y-93467641D01*
X127068242Y-93467635D01*
X126912363Y-93311756D01*
X126912358Y-93311752D01*
X126734025Y-93182187D01*
X126734024Y-93182186D01*
X126734022Y-93182185D01*
X126669875Y-93149500D01*
X126537606Y-93082104D01*
X126537603Y-93082103D01*
X126327952Y-93013985D01*
X126219086Y-92996742D01*
X126110222Y-92979500D01*
X125889778Y-92979500D01*
X125817201Y-92990995D01*
X125672047Y-93013985D01*
X125462396Y-93082103D01*
X125462393Y-93082104D01*
X125265974Y-93182187D01*
X125087641Y-93311752D01*
X125087636Y-93311756D01*
X124931760Y-93467632D01*
X124928594Y-93471340D01*
X124927814Y-93470673D01*
X124876417Y-93510288D01*
X124806802Y-93516250D01*
X124745015Y-93483630D01*
X124743775Y-93482407D01*
X121786819Y-90525451D01*
X121753334Y-90464128D01*
X121750500Y-90437770D01*
X121750500Y-85969778D01*
X124599500Y-85969778D01*
X124599500Y-86190221D01*
X124633985Y-86407952D01*
X124702103Y-86617603D01*
X124702104Y-86617606D01*
X124802187Y-86814025D01*
X124931752Y-86992358D01*
X124931756Y-86992363D01*
X125087636Y-87148243D01*
X125087641Y-87148247D01*
X125158186Y-87199500D01*
X125265978Y-87277815D01*
X125394375Y-87343237D01*
X125462393Y-87377895D01*
X125462396Y-87377896D01*
X125492617Y-87387715D01*
X125672049Y-87446015D01*
X125889778Y-87480500D01*
X125889779Y-87480500D01*
X126110221Y-87480500D01*
X126110222Y-87480500D01*
X126327951Y-87446015D01*
X126537606Y-87377895D01*
X126734022Y-87277815D01*
X126912365Y-87148242D01*
X127068242Y-86992365D01*
X127197815Y-86814022D01*
X127297895Y-86617606D01*
X127366015Y-86407951D01*
X127400500Y-86190222D01*
X127400500Y-85969778D01*
X127366015Y-85752049D01*
X127297895Y-85542394D01*
X127297895Y-85542393D01*
X127263237Y-85474375D01*
X127197815Y-85345978D01*
X127148675Y-85278342D01*
X127068247Y-85167641D01*
X127068243Y-85167636D01*
X126912363Y-85011756D01*
X126912358Y-85011752D01*
X126734025Y-84882187D01*
X126734024Y-84882186D01*
X126734022Y-84882185D01*
X126671096Y-84850122D01*
X126537606Y-84782104D01*
X126537603Y-84782103D01*
X126327952Y-84713985D01*
X126194106Y-84692786D01*
X126110222Y-84679500D01*
X125889778Y-84679500D01*
X125817201Y-84690995D01*
X125672047Y-84713985D01*
X125462396Y-84782103D01*
X125462393Y-84782104D01*
X125265974Y-84882187D01*
X125087641Y-85011752D01*
X125087636Y-85011756D01*
X124931756Y-85167636D01*
X124931752Y-85167641D01*
X124802187Y-85345974D01*
X124702104Y-85542393D01*
X124702103Y-85542396D01*
X124633985Y-85752047D01*
X124599500Y-85969778D01*
X121750500Y-85969778D01*
X121750500Y-79349778D01*
X125599500Y-79349778D01*
X125599500Y-79570222D01*
X125616742Y-79679086D01*
X125633985Y-79787952D01*
X125702103Y-79997603D01*
X125702104Y-79997606D01*
X125802187Y-80194025D01*
X125931752Y-80372358D01*
X125931756Y-80372363D01*
X125982316Y-80422923D01*
X126015801Y-80484246D01*
X126010817Y-80553938D01*
X125968945Y-80609871D01*
X125937969Y-80626785D01*
X125857918Y-80656643D01*
X125857906Y-80656649D01*
X125742812Y-80742809D01*
X125742809Y-80742812D01*
X125656649Y-80857906D01*
X125656645Y-80857913D01*
X125606403Y-80992620D01*
X125606401Y-80992627D01*
X125600000Y-81052155D01*
X125600000Y-81750000D01*
X126624722Y-81750000D01*
X126580667Y-81826306D01*
X126550000Y-81940756D01*
X126550000Y-82059244D01*
X126580667Y-82173694D01*
X126624722Y-82250000D01*
X125600000Y-82250000D01*
X125600000Y-82947844D01*
X125606401Y-83007372D01*
X125606403Y-83007379D01*
X125656645Y-83142086D01*
X125656649Y-83142093D01*
X125742809Y-83257187D01*
X125742812Y-83257190D01*
X125857906Y-83343350D01*
X125857913Y-83343354D01*
X125992620Y-83393596D01*
X125992627Y-83393598D01*
X126052155Y-83399999D01*
X126052172Y-83400000D01*
X126750000Y-83400000D01*
X126750000Y-82375277D01*
X126826306Y-82419333D01*
X126940756Y-82450000D01*
X127059244Y-82450000D01*
X127173694Y-82419333D01*
X127250000Y-82375277D01*
X127250000Y-83400000D01*
X127947828Y-83400000D01*
X127947844Y-83399999D01*
X128007372Y-83393598D01*
X128007379Y-83393596D01*
X128142086Y-83343354D01*
X128142093Y-83343350D01*
X128257187Y-83257190D01*
X128257190Y-83257187D01*
X128343350Y-83142093D01*
X128343354Y-83142086D01*
X128393596Y-83007379D01*
X128393598Y-83007372D01*
X128399999Y-82947844D01*
X128400000Y-82947827D01*
X128400000Y-82250000D01*
X127375278Y-82250000D01*
X127419333Y-82173694D01*
X127450000Y-82059244D01*
X127450000Y-81940756D01*
X127419333Y-81826306D01*
X127375278Y-81750000D01*
X128400000Y-81750000D01*
X128400000Y-81052172D01*
X128399999Y-81052155D01*
X128393598Y-80992627D01*
X128393596Y-80992620D01*
X128343354Y-80857913D01*
X128343350Y-80857906D01*
X128257190Y-80742812D01*
X128257187Y-80742809D01*
X128142093Y-80656649D01*
X128142087Y-80656646D01*
X128062030Y-80626786D01*
X128006097Y-80584914D01*
X127981680Y-80519450D01*
X127996532Y-80451177D01*
X128017681Y-80422925D01*
X128068242Y-80372365D01*
X128197815Y-80194022D01*
X128297895Y-79997606D01*
X128366015Y-79787951D01*
X128400500Y-79570222D01*
X128400500Y-79349778D01*
X128366015Y-79132049D01*
X128316097Y-78978415D01*
X128297896Y-78922396D01*
X128297895Y-78922393D01*
X128234981Y-78798920D01*
X128197815Y-78725978D01*
X128179750Y-78701113D01*
X128068247Y-78547641D01*
X128068243Y-78547636D01*
X127912363Y-78391756D01*
X127912358Y-78391752D01*
X127734025Y-78262187D01*
X127734024Y-78262186D01*
X127734022Y-78262185D01*
X127671096Y-78230122D01*
X127537606Y-78162104D01*
X127537603Y-78162103D01*
X127327952Y-78093985D01*
X127219086Y-78076742D01*
X127110222Y-78059500D01*
X126889778Y-78059500D01*
X126817201Y-78070995D01*
X126672047Y-78093985D01*
X126462396Y-78162103D01*
X126462393Y-78162104D01*
X126265974Y-78262187D01*
X126087641Y-78391752D01*
X126087636Y-78391756D01*
X125931756Y-78547636D01*
X125931752Y-78547641D01*
X125802187Y-78725974D01*
X125702104Y-78922393D01*
X125702103Y-78922396D01*
X125633985Y-79132047D01*
X125612177Y-79269737D01*
X125599500Y-79349778D01*
X121750500Y-79349778D01*
X121750500Y-77407116D01*
X121770185Y-77340077D01*
X121786814Y-77319440D01*
X123734894Y-75371359D01*
X123796215Y-75337876D01*
X123841970Y-75336569D01*
X123897648Y-75345388D01*
X123897649Y-75345388D01*
X124102351Y-75345388D01*
X124102352Y-75345388D01*
X124304534Y-75313365D01*
X124499219Y-75250108D01*
X124681610Y-75157175D01*
X124801516Y-75070059D01*
X124847213Y-75036859D01*
X124847215Y-75036856D01*
X124847219Y-75036854D01*
X124991966Y-74892107D01*
X124991968Y-74892103D01*
X124991971Y-74892101D01*
X125044732Y-74819478D01*
X125112287Y-74726498D01*
X125205220Y-74544107D01*
X125268477Y-74349422D01*
X125300500Y-74147240D01*
X125300500Y-73942536D01*
X125273305Y-73770838D01*
X125268477Y-73740353D01*
X125205218Y-73545664D01*
X125156193Y-73449449D01*
X125112287Y-73363278D01*
X125061207Y-73292973D01*
X125037729Y-73227170D01*
X125053554Y-73159116D01*
X125073839Y-73132416D01*
X125142712Y-73063544D01*
X125234814Y-72914222D01*
X125289999Y-72747685D01*
X125300500Y-72644897D01*
X125300499Y-71444880D01*
X125289999Y-71342091D01*
X125234814Y-71175554D01*
X125142712Y-71026232D01*
X125018656Y-70902176D01*
X124869334Y-70810074D01*
X124702797Y-70754889D01*
X124702795Y-70754888D01*
X124600010Y-70744388D01*
X123399998Y-70744388D01*
X123399981Y-70744389D01*
X123297203Y-70754888D01*
X123297200Y-70754889D01*
X123130668Y-70810073D01*
X123130663Y-70810075D01*
X122981342Y-70902177D01*
X122857289Y-71026230D01*
X122765187Y-71175551D01*
X122765184Y-71175559D01*
X122753972Y-71209394D01*
X122714199Y-71266838D01*
X122649683Y-71293660D01*
X122636267Y-71294388D01*
X120881192Y-71294388D01*
X120736204Y-71323228D01*
X120736198Y-71323230D01*
X120599620Y-71379802D01*
X120599608Y-71379809D01*
X120550381Y-71412701D01*
X120476700Y-71461932D01*
X120476692Y-71461938D01*
X114184703Y-77753927D01*
X114144480Y-77780805D01*
X114120819Y-77790606D01*
X114120818Y-77790607D01*
X113989715Y-77878207D01*
X113989707Y-77878213D01*
X113878213Y-77989707D01*
X113878210Y-77989711D01*
X113790609Y-78120814D01*
X113790602Y-78120827D01*
X113730264Y-78266498D01*
X113730261Y-78266510D01*
X113699500Y-78421153D01*
X112250500Y-78421153D01*
X112250500Y-67926082D01*
X112250500Y-67926079D01*
X112221659Y-67781092D01*
X112221658Y-67781091D01*
X112221658Y-67781087D01*
X112165084Y-67644505D01*
X112132186Y-67595270D01*
X112110191Y-67562351D01*
X112082956Y-67521589D01*
X112082952Y-67521584D01*
X102978421Y-58417052D01*
X102978414Y-58417046D01*
X102904729Y-58367812D01*
X102904729Y-58367813D01*
X102855491Y-58334913D01*
X102718917Y-58278343D01*
X102718907Y-58278340D01*
X102573920Y-58249500D01*
X102573918Y-58249500D01*
X92362229Y-58249500D01*
X92295190Y-58229815D01*
X92274548Y-58213181D01*
X92010274Y-57948907D01*
X91836025Y-57774657D01*
X91802541Y-57713336D01*
X91807525Y-57643644D01*
X91849397Y-57587711D01*
X91865139Y-57579134D01*
X91864546Y-57578047D01*
X91872326Y-57573797D01*
X91872331Y-57573796D01*
X91987546Y-57487546D01*
X92073796Y-57372331D01*
X92101429Y-57298243D01*
X92103601Y-57292420D01*
X92145471Y-57236486D01*
X92210936Y-57212068D01*
X92279209Y-57226919D01*
X92307464Y-57248071D01*
X92357636Y-57298243D01*
X92357641Y-57298247D01*
X92459603Y-57372326D01*
X92535978Y-57427815D01*
X92664375Y-57493237D01*
X92732393Y-57527895D01*
X92732396Y-57527896D01*
X92750940Y-57533921D01*
X92942049Y-57596015D01*
X93159778Y-57630500D01*
X93159779Y-57630500D01*
X93380221Y-57630500D01*
X93380222Y-57630500D01*
X93597951Y-57596015D01*
X93807606Y-57527895D01*
X94004022Y-57427815D01*
X94182365Y-57298242D01*
X94338242Y-57142365D01*
X94467815Y-56964022D01*
X94567895Y-56767606D01*
X94636015Y-56557951D01*
X94670500Y-56340222D01*
X94670500Y-56119778D01*
X94649084Y-55984566D01*
X94658038Y-55915276D01*
X94683873Y-55877493D01*
X98274548Y-52286819D01*
X98335871Y-52253334D01*
X98362229Y-52250500D01*
X108637770Y-52250500D01*
X108704809Y-52270185D01*
X108725451Y-52286819D01*
X111173526Y-54734893D01*
X111207011Y-54796216D01*
X111208318Y-54841971D01*
X111199500Y-54897647D01*
X111199500Y-55102351D01*
X111231522Y-55304534D01*
X111294781Y-55499223D01*
X111344143Y-55596100D01*
X111383179Y-55672712D01*
X111387715Y-55681613D01*
X111508028Y-55847213D01*
X111652786Y-55991971D01*
X111773226Y-56079474D01*
X111818390Y-56112287D01*
X111934607Y-56171503D01*
X112000776Y-56205218D01*
X112000778Y-56205218D01*
X112000781Y-56205220D01*
X112105137Y-56239127D01*
X112195465Y-56268477D01*
X112226251Y-56273353D01*
X112397648Y-56300500D01*
X112397649Y-56300500D01*
X112602350Y-56300500D01*
X112602352Y-56300500D01*
X112658027Y-56291681D01*
X112727319Y-56300635D01*
X112765106Y-56326473D01*
X115917049Y-59478416D01*
X115975640Y-59537007D01*
X116021585Y-59582952D01*
X116144498Y-59665080D01*
X116144511Y-59665087D01*
X116281082Y-59721656D01*
X116281087Y-59721658D01*
X116281091Y-59721658D01*
X116281092Y-59721659D01*
X116426079Y-59750500D01*
X116426082Y-59750500D01*
X119050700Y-59750500D01*
X119117739Y-59770185D01*
X119163494Y-59822989D01*
X119173438Y-59892147D01*
X119144413Y-59955703D01*
X119113459Y-59981445D01*
X119085372Y-59997927D01*
X119085361Y-59997934D01*
X118906358Y-60148856D01*
X118906356Y-60148858D01*
X118755434Y-60327861D01*
X118755429Y-60327868D01*
X118636925Y-60529810D01*
X118582159Y-60674933D01*
X118554255Y-60748874D01*
X118554254Y-60748876D01*
X118554254Y-60748878D01*
X118509795Y-60978755D01*
X118509795Y-60978756D01*
X118507001Y-61031347D01*
X118507000Y-61031386D01*
X118507000Y-62968613D01*
X118507001Y-62968652D01*
X118509795Y-63021243D01*
X118509795Y-63021244D01*
X118544779Y-63202128D01*
X118554255Y-63251126D01*
X118591733Y-63350437D01*
X118636925Y-63470189D01*
X118755429Y-63672131D01*
X118755434Y-63672138D01*
X118906356Y-63851141D01*
X118906358Y-63851143D01*
X119085361Y-64002065D01*
X119085368Y-64002070D01*
X119287310Y-64120574D01*
X119506374Y-64203245D01*
X119736259Y-64247705D01*
X119788878Y-64250500D01*
X119788886Y-64250500D01*
X121726114Y-64250500D01*
X121726122Y-64250500D01*
X121778741Y-64247705D01*
X122008626Y-64203245D01*
X122227690Y-64120574D01*
X122429632Y-64002070D01*
X122517443Y-63928034D01*
X122608641Y-63851143D01*
X122608643Y-63851141D01*
X122759565Y-63672138D01*
X122759565Y-63672137D01*
X122759570Y-63672132D01*
X122878074Y-63470190D01*
X122960745Y-63251126D01*
X122961256Y-63248485D01*
X122961781Y-63247467D01*
X122962183Y-63246050D01*
X122962471Y-63246131D01*
X122993312Y-63186403D01*
X123053843Y-63151507D01*
X123123631Y-63154876D01*
X123180519Y-63195440D01*
X123206446Y-63260322D01*
X123207000Y-63272030D01*
X123207000Y-66797870D01*
X123207001Y-66797876D01*
X123213408Y-66857483D01*
X123263702Y-66992328D01*
X123263704Y-66992331D01*
X123307765Y-67051189D01*
X123332183Y-67116652D01*
X123317332Y-67184925D01*
X123267927Y-67234331D01*
X123208499Y-67249500D01*
X116132230Y-67249500D01*
X116065191Y-67229815D01*
X116044549Y-67213181D01*
X103636819Y-54805451D01*
X103603334Y-54744128D01*
X103600500Y-54717770D01*
X103600500Y-53329995D01*
X103600499Y-53329982D01*
X103591709Y-53243946D01*
X103589999Y-53227202D01*
X103534814Y-53060665D01*
X103442712Y-52911344D01*
X103318656Y-52787288D01*
X103169335Y-52695186D01*
X103002798Y-52640001D01*
X103002796Y-52640000D01*
X102900017Y-52629500D01*
X102900010Y-52629500D01*
X101099990Y-52629500D01*
X101099982Y-52629500D01*
X100997203Y-52640000D01*
X100997202Y-52640001D01*
X100914669Y-52667349D01*
X100830667Y-52695185D01*
X100830662Y-52695187D01*
X100681342Y-52787289D01*
X100557289Y-52911342D01*
X100465187Y-53060662D01*
X100465186Y-53060665D01*
X100410001Y-53227202D01*
X100410001Y-53227203D01*
X100410000Y-53227203D01*
X100399500Y-53329982D01*
X100399500Y-55130017D01*
X100410000Y-55232796D01*
X100433733Y-55304417D01*
X100465186Y-55399335D01*
X100557288Y-55548656D01*
X100681344Y-55672712D01*
X100830665Y-55764814D01*
X100997202Y-55819999D01*
X101099990Y-55830500D01*
X102487770Y-55830500D01*
X102554809Y-55850185D01*
X102575451Y-55866819D01*
X115291586Y-68582954D01*
X115314422Y-68598211D01*
X115365270Y-68632186D01*
X115414505Y-68665084D01*
X115471080Y-68688518D01*
X115551088Y-68721659D01*
X115667241Y-68744763D01*
X115686468Y-68748587D01*
X115696081Y-68750500D01*
X115696082Y-68750500D01*
X115696083Y-68750500D01*
X115843918Y-68750500D01*
X130057770Y-68750500D01*
X130124809Y-68770185D01*
X130145451Y-68786819D01*
X136629824Y-75271192D01*
X136663309Y-75332515D01*
X136664616Y-75378271D01*
X136649500Y-75473707D01*
X136649500Y-75473713D01*
X136649500Y-75686287D01*
X136682754Y-75896243D01*
X136734075Y-76054193D01*
X136748444Y-76098414D01*
X136844951Y-76287820D01*
X136969890Y-76459786D01*
X137120213Y-76610109D01*
X137292179Y-76735048D01*
X137292181Y-76735049D01*
X137292184Y-76735051D01*
X137481588Y-76831557D01*
X137683757Y-76897246D01*
X137893713Y-76930500D01*
X137893714Y-76930500D01*
X138106286Y-76930500D01*
X138106287Y-76930500D01*
X138316243Y-76897246D01*
X138518412Y-76831557D01*
X138707816Y-76735051D01*
X138770655Y-76689396D01*
X138879786Y-76610109D01*
X138879788Y-76610106D01*
X138879792Y-76610104D01*
X139030104Y-76459792D01*
X139030106Y-76459788D01*
X139030109Y-76459786D01*
X139155048Y-76287820D01*
X139155047Y-76287820D01*
X139155051Y-76287816D01*
X139251557Y-76098412D01*
X139257569Y-76079907D01*
X139297006Y-76022232D01*
X139361365Y-75995034D01*
X139430211Y-76006949D01*
X139481687Y-76054193D01*
X139499500Y-76118226D01*
X139499500Y-94997293D01*
X139499382Y-95002702D01*
X139482614Y-95386751D01*
X139481671Y-95397527D01*
X139431850Y-95775955D01*
X139429972Y-95786609D01*
X139347353Y-96159275D01*
X139344553Y-96169723D01*
X139229775Y-96533755D01*
X139226075Y-96543921D01*
X139080002Y-96896572D01*
X139075430Y-96906376D01*
X138899183Y-97244942D01*
X138893775Y-97254310D01*
X138688681Y-97576244D01*
X138682476Y-97585105D01*
X138450110Y-97887930D01*
X138443156Y-97896217D01*
X138185284Y-98177635D01*
X138177635Y-98185284D01*
X137896217Y-98443156D01*
X137887930Y-98450110D01*
X137585105Y-98682476D01*
X137576244Y-98688681D01*
X137254310Y-98893775D01*
X137244942Y-98899183D01*
X136906376Y-99075430D01*
X136896572Y-99080002D01*
X136543921Y-99226075D01*
X136533755Y-99229775D01*
X136169723Y-99344553D01*
X136159275Y-99347353D01*
X135786609Y-99429972D01*
X135775955Y-99431850D01*
X135397527Y-99481671D01*
X135386751Y-99482614D01*
X135002703Y-99499382D01*
X134997294Y-99499500D01*
X118392886Y-99499500D01*
X118325847Y-99479815D01*
X118280092Y-99427011D01*
X118270148Y-99357853D01*
X118299173Y-99294297D01*
X118336591Y-99265015D01*
X118480167Y-99191859D01*
X118645712Y-99071582D01*
X118645713Y-99071582D01*
X118790400Y-98926895D01*
X118790400Y-98926894D01*
X118910677Y-98761349D01*
X119003572Y-98579031D01*
X119014472Y-98545488D01*
X119066808Y-98384417D01*
X119098818Y-98182317D01*
X119098818Y-97990484D01*
X119098817Y-97990484D01*
X118168451Y-98239776D01*
X118171559Y-98234394D01*
X118198818Y-98132661D01*
X118198818Y-98027339D01*
X118171559Y-97925606D01*
X118118898Y-97834394D01*
X118044424Y-97759920D01*
X118039040Y-97756811D01*
X118966540Y-97508290D01*
X118966540Y-97508289D01*
X118922187Y-97421241D01*
X118922186Y-97421239D01*
X118910676Y-97398648D01*
X118910674Y-97398646D01*
X118889729Y-97369818D01*
X124600000Y-97369818D01*
X124600000Y-97590181D01*
X124634473Y-97807835D01*
X124702567Y-98017410D01*
X124802611Y-98213756D01*
X124848932Y-98277513D01*
X125284152Y-97842292D01*
X125291049Y-97858942D01*
X125378599Y-97989970D01*
X125490030Y-98101401D01*
X125621058Y-98188951D01*
X125637705Y-98195846D01*
X125202485Y-98631065D01*
X125202485Y-98631066D01*
X125266243Y-98677388D01*
X125462589Y-98777432D01*
X125672164Y-98845526D01*
X125889819Y-98880000D01*
X126110181Y-98880000D01*
X126327835Y-98845526D01*
X126537410Y-98777432D01*
X126733760Y-98677386D01*
X126797513Y-98631066D01*
X126797514Y-98631066D01*
X126362294Y-98195846D01*
X126378942Y-98188951D01*
X126509970Y-98101401D01*
X126621401Y-97989970D01*
X126708951Y-97858942D01*
X126715846Y-97842294D01*
X127151066Y-98277514D01*
X127151066Y-98277513D01*
X127197386Y-98213760D01*
X127297432Y-98017410D01*
X127365526Y-97807835D01*
X127400000Y-97590181D01*
X127400000Y-97369818D01*
X127365526Y-97152164D01*
X127297432Y-96942589D01*
X127197388Y-96746243D01*
X127151066Y-96682485D01*
X127151065Y-96682485D01*
X126715846Y-97117704D01*
X126708951Y-97101058D01*
X126621401Y-96970030D01*
X126509970Y-96858599D01*
X126378942Y-96771049D01*
X126362292Y-96764152D01*
X126797513Y-96328932D01*
X126733756Y-96282611D01*
X126537410Y-96182567D01*
X126327835Y-96114473D01*
X126110181Y-96080000D01*
X125889819Y-96080000D01*
X125672164Y-96114473D01*
X125462589Y-96182567D01*
X125266233Y-96282616D01*
X125202485Y-96328931D01*
X125202485Y-96328932D01*
X125637706Y-96764153D01*
X125621058Y-96771049D01*
X125490030Y-96858599D01*
X125378599Y-96970030D01*
X125291049Y-97101058D01*
X125284153Y-97117706D01*
X124848932Y-96682485D01*
X124848931Y-96682485D01*
X124802616Y-96746233D01*
X124702567Y-96942589D01*
X124634473Y-97152164D01*
X124600000Y-97369818D01*
X118889729Y-97369818D01*
X118790400Y-97233105D01*
X118790400Y-97233104D01*
X118645713Y-97088417D01*
X118480167Y-96968140D01*
X118297849Y-96875244D01*
X118103235Y-96812009D01*
X117901135Y-96780000D01*
X117709303Y-96780000D01*
X117958593Y-97710366D01*
X117953212Y-97707259D01*
X117851479Y-97680000D01*
X117746157Y-97680000D01*
X117644424Y-97707259D01*
X117553212Y-97759920D01*
X117478738Y-97834394D01*
X117475630Y-97839777D01*
X117227108Y-96912276D01*
X117227107Y-96912276D01*
X117117468Y-96968140D01*
X116951923Y-97088417D01*
X116951922Y-97088417D01*
X116807235Y-97233104D01*
X116807235Y-97233105D01*
X116686958Y-97398650D01*
X116594062Y-97580968D01*
X116530827Y-97775582D01*
X116498818Y-97977682D01*
X116498818Y-98169514D01*
X117429185Y-97920221D01*
X117426077Y-97925606D01*
X117398818Y-98027339D01*
X117398818Y-98132661D01*
X117426077Y-98234394D01*
X117478738Y-98325606D01*
X117553212Y-98400080D01*
X117558593Y-98403186D01*
X116631094Y-98651708D01*
X116631094Y-98651710D01*
X116686956Y-98761347D01*
X116807235Y-98926894D01*
X116807235Y-98926895D01*
X116951922Y-99071582D01*
X117117468Y-99191859D01*
X117261045Y-99265015D01*
X117311841Y-99312989D01*
X117328636Y-99380810D01*
X117306099Y-99446945D01*
X117251384Y-99490397D01*
X117204750Y-99499500D01*
X55002706Y-99499500D01*
X54997297Y-99499382D01*
X54791507Y-99490397D01*
X54613247Y-99482613D01*
X54602474Y-99481671D01*
X54540007Y-99473447D01*
X54224044Y-99431850D01*
X54213390Y-99429972D01*
X53840724Y-99347353D01*
X53830276Y-99344553D01*
X53466244Y-99229775D01*
X53456078Y-99226075D01*
X53103427Y-99080002D01*
X53093623Y-99075430D01*
X52755057Y-98899183D01*
X52745689Y-98893775D01*
X52423755Y-98688681D01*
X52414894Y-98682476D01*
X52112069Y-98450110D01*
X52103782Y-98443156D01*
X51822364Y-98185284D01*
X51814715Y-98177635D01*
X51703797Y-98056589D01*
X51556843Y-97896217D01*
X51549889Y-97887930D01*
X51317523Y-97585105D01*
X51311318Y-97576244D01*
X51212570Y-97421241D01*
X51106223Y-97254309D01*
X51100816Y-97244942D01*
X51029259Y-97107482D01*
X50924566Y-96906369D01*
X50919997Y-96896572D01*
X50904268Y-96858599D01*
X50773920Y-96543911D01*
X50770224Y-96533755D01*
X50765955Y-96520216D01*
X50655445Y-96169720D01*
X50652646Y-96159275D01*
X50570025Y-95786601D01*
X50568149Y-95775955D01*
X50518326Y-95397505D01*
X50517386Y-95386773D01*
X50500618Y-95002702D01*
X50500500Y-94997293D01*
X50500500Y-94878712D01*
X53149500Y-94878712D01*
X53149500Y-95121288D01*
X53150713Y-95130500D01*
X53173344Y-95302409D01*
X53181162Y-95361789D01*
X53204329Y-95448247D01*
X53243947Y-95596104D01*
X53322857Y-95786609D01*
X53336776Y-95820212D01*
X53458064Y-96030289D01*
X53458066Y-96030292D01*
X53458067Y-96030293D01*
X53605733Y-96222736D01*
X53605739Y-96222743D01*
X53777256Y-96394260D01*
X53777262Y-96394265D01*
X53969711Y-96541936D01*
X54179788Y-96663224D01*
X54403900Y-96756054D01*
X54638211Y-96818838D01*
X54818586Y-96842584D01*
X54878711Y-96850500D01*
X54878712Y-96850500D01*
X55121289Y-96850500D01*
X55169388Y-96844167D01*
X55361789Y-96818838D01*
X55596100Y-96756054D01*
X55820212Y-96663224D01*
X56030289Y-96541936D01*
X56222738Y-96394265D01*
X56394265Y-96222738D01*
X56541936Y-96030289D01*
X56663224Y-95820212D01*
X56756054Y-95596100D01*
X56818838Y-95361789D01*
X56850500Y-95121288D01*
X56850500Y-94878712D01*
X56847453Y-94855571D01*
X56825957Y-94692287D01*
X56818838Y-94638211D01*
X56756054Y-94403900D01*
X56728302Y-94336901D01*
X56682473Y-94226259D01*
X56682472Y-94226257D01*
X56664197Y-94182135D01*
X60817000Y-94182135D01*
X60817000Y-96277870D01*
X60817001Y-96277876D01*
X60823408Y-96337483D01*
X60873702Y-96472328D01*
X60873706Y-96472335D01*
X60959952Y-96587544D01*
X60959955Y-96587547D01*
X61075164Y-96673793D01*
X61075171Y-96673797D01*
X61210017Y-96724091D01*
X61210016Y-96724091D01*
X61216944Y-96724835D01*
X61269627Y-96730500D01*
X63270372Y-96730499D01*
X63329983Y-96724091D01*
X63464831Y-96673796D01*
X63580046Y-96587546D01*
X63666296Y-96472331D01*
X63676872Y-96443974D01*
X63718740Y-96388041D01*
X63784204Y-96363622D01*
X63852477Y-96378472D01*
X63865940Y-96386988D01*
X64048723Y-96519788D01*
X64252429Y-96623582D01*
X64469871Y-96694234D01*
X64560000Y-96708509D01*
X64560000Y-95720747D01*
X64597708Y-95742518D01*
X64737591Y-95780000D01*
X64882409Y-95780000D01*
X65022292Y-95742518D01*
X65060000Y-95720747D01*
X65060000Y-96708508D01*
X65150128Y-96694234D01*
X65367570Y-96623582D01*
X65571276Y-96519788D01*
X65756242Y-96385402D01*
X65917905Y-96223739D01*
X65979371Y-96139137D01*
X66034701Y-96096470D01*
X66104314Y-96090491D01*
X66166109Y-96123096D01*
X66180007Y-96139134D01*
X66241714Y-96224066D01*
X66403434Y-96385786D01*
X66588462Y-96520217D01*
X66687804Y-96570834D01*
X66792244Y-96624049D01*
X67009751Y-96694721D01*
X67009752Y-96694721D01*
X67009755Y-96694722D01*
X67235646Y-96730500D01*
X67235647Y-96730500D01*
X67464353Y-96730500D01*
X67464354Y-96730500D01*
X67690245Y-96694722D01*
X67690248Y-96694721D01*
X67690249Y-96694721D01*
X67907755Y-96624049D01*
X67907755Y-96624048D01*
X67907758Y-96624048D01*
X68111538Y-96520217D01*
X68296566Y-96385786D01*
X68458286Y-96224066D01*
X68592717Y-96039038D01*
X68696548Y-95835258D01*
X68762876Y-95631120D01*
X68767221Y-95617749D01*
X68767221Y-95617748D01*
X68767222Y-95617745D01*
X68803000Y-95391854D01*
X68803000Y-95068146D01*
X68767222Y-94842255D01*
X68767221Y-94842251D01*
X68767221Y-94842250D01*
X68696549Y-94624744D01*
X68690723Y-94613309D01*
X68592717Y-94420962D01*
X68458286Y-94235934D01*
X68296566Y-94074214D01*
X68151613Y-93968899D01*
X68138686Y-93952135D01*
X75499500Y-93952135D01*
X75499500Y-97047870D01*
X75499501Y-97047876D01*
X75505908Y-97107483D01*
X75556202Y-97242328D01*
X75556206Y-97242335D01*
X75642452Y-97357544D01*
X75642455Y-97357547D01*
X75757664Y-97443793D01*
X75757671Y-97443797D01*
X75892517Y-97494091D01*
X75892516Y-97494091D01*
X75899444Y-97494835D01*
X75952127Y-97500500D01*
X79047872Y-97500499D01*
X79107483Y-97494091D01*
X79242331Y-97443796D01*
X79357546Y-97357546D01*
X79443796Y-97242331D01*
X79494091Y-97107483D01*
X79500500Y-97047873D01*
X79500499Y-95368872D01*
X80499500Y-95368872D01*
X80499500Y-95631127D01*
X80518568Y-95775955D01*
X80533730Y-95891116D01*
X80584341Y-96080000D01*
X80601602Y-96144418D01*
X80601605Y-96144428D01*
X80701953Y-96386690D01*
X80701958Y-96386700D01*
X80833075Y-96613803D01*
X80992718Y-96821851D01*
X80992726Y-96821860D01*
X81178140Y-97007274D01*
X81178148Y-97007281D01*
X81386196Y-97166924D01*
X81613299Y-97298041D01*
X81613309Y-97298046D01*
X81855571Y-97398394D01*
X81855581Y-97398398D01*
X82108884Y-97466270D01*
X82357188Y-97498960D01*
X82368864Y-97500498D01*
X82368880Y-97500500D01*
X82368887Y-97500500D01*
X82631113Y-97500500D01*
X82631120Y-97500500D01*
X82891116Y-97466270D01*
X83144419Y-97398398D01*
X83386697Y-97298043D01*
X83613803Y-97166924D01*
X83821851Y-97007282D01*
X83821855Y-97007277D01*
X83821860Y-97007274D01*
X84007274Y-96821860D01*
X84007277Y-96821855D01*
X84007282Y-96821851D01*
X84166924Y-96613803D01*
X84298043Y-96386697D01*
X84298580Y-96385402D01*
X84365407Y-96224066D01*
X84398398Y-96144419D01*
X84466270Y-95891116D01*
X84500500Y-95631120D01*
X84500500Y-95368880D01*
X84466270Y-95108884D01*
X84398398Y-94855581D01*
X84398394Y-94855571D01*
X84298046Y-94613309D01*
X84298041Y-94613299D01*
X84166924Y-94386196D01*
X84028053Y-94205218D01*
X84007282Y-94178149D01*
X84007281Y-94178148D01*
X84007274Y-94178140D01*
X83821860Y-93992726D01*
X83821851Y-93992718D01*
X83613803Y-93833075D01*
X83386700Y-93701958D01*
X83386690Y-93701953D01*
X83144428Y-93601605D01*
X83144421Y-93601603D01*
X83144419Y-93601602D01*
X82891116Y-93533730D01*
X82833339Y-93526123D01*
X82631127Y-93499500D01*
X82631120Y-93499500D01*
X82368880Y-93499500D01*
X82368872Y-93499500D01*
X82137772Y-93529926D01*
X82108884Y-93533730D01*
X81863691Y-93599429D01*
X81855581Y-93601602D01*
X81855571Y-93601605D01*
X81613309Y-93701953D01*
X81613299Y-93701958D01*
X81386196Y-93833075D01*
X81178148Y-93992718D01*
X80992718Y-94178148D01*
X80833075Y-94386196D01*
X80701958Y-94613299D01*
X80701953Y-94613309D01*
X80601605Y-94855571D01*
X80601602Y-94855581D01*
X80558161Y-95017708D01*
X80533730Y-95108885D01*
X80499500Y-95368872D01*
X79500499Y-95368872D01*
X79500499Y-93952128D01*
X79494091Y-93892517D01*
X79486608Y-93872455D01*
X79443797Y-93757671D01*
X79443793Y-93757664D01*
X79357547Y-93642455D01*
X79357544Y-93642452D01*
X79242335Y-93556206D01*
X79242328Y-93556202D01*
X79107482Y-93505908D01*
X79107483Y-93505908D01*
X79047883Y-93499501D01*
X79047881Y-93499500D01*
X79047873Y-93499500D01*
X79047864Y-93499500D01*
X75952129Y-93499500D01*
X75952123Y-93499501D01*
X75892516Y-93505908D01*
X75757671Y-93556202D01*
X75757664Y-93556206D01*
X75642455Y-93642452D01*
X75642452Y-93642455D01*
X75556206Y-93757664D01*
X75556202Y-93757671D01*
X75505908Y-93892517D01*
X75500827Y-93939783D01*
X75499501Y-93952123D01*
X75499500Y-93952135D01*
X68138686Y-93952135D01*
X68108949Y-93913570D01*
X68100500Y-93868582D01*
X68100500Y-90512229D01*
X68120185Y-90445190D01*
X68136819Y-90424548D01*
X72125078Y-86436289D01*
X77227261Y-86436289D01*
X77227262Y-86436290D01*
X77233471Y-86440801D01*
X77387742Y-86519408D01*
X77552415Y-86572914D01*
X77723429Y-86600000D01*
X77896571Y-86600000D01*
X78067584Y-86572914D01*
X78232257Y-86519408D01*
X78386525Y-86440803D01*
X78392736Y-86436289D01*
X78392737Y-86436289D01*
X77810001Y-85853553D01*
X77810000Y-85853553D01*
X77227261Y-86436289D01*
X72125078Y-86436289D01*
X73147939Y-85413428D01*
X76710000Y-85413428D01*
X76710000Y-85586571D01*
X76737085Y-85757584D01*
X76790592Y-85922259D01*
X76869196Y-86076525D01*
X76873709Y-86082736D01*
X76873709Y-86082737D01*
X77456446Y-85500000D01*
X77456446Y-85499999D01*
X77416951Y-85460504D01*
X77510000Y-85460504D01*
X77510000Y-85539496D01*
X77530444Y-85615796D01*
X77569940Y-85684205D01*
X77625795Y-85740060D01*
X77694204Y-85779556D01*
X77770504Y-85800000D01*
X77849496Y-85800000D01*
X77925796Y-85779556D01*
X77994205Y-85740060D01*
X78050060Y-85684205D01*
X78089556Y-85615796D01*
X78110000Y-85539496D01*
X78110000Y-85499999D01*
X78163553Y-85499999D01*
X78163553Y-85500001D01*
X78746289Y-86082737D01*
X78746289Y-86082736D01*
X78750803Y-86076525D01*
X78829408Y-85922257D01*
X78882914Y-85757584D01*
X78910000Y-85586571D01*
X78910000Y-85413428D01*
X78882914Y-85242415D01*
X78829408Y-85077742D01*
X78750801Y-84923471D01*
X78746290Y-84917262D01*
X78746289Y-84917261D01*
X78163553Y-85499999D01*
X78110000Y-85499999D01*
X78110000Y-85460504D01*
X78089556Y-85384204D01*
X78050060Y-85315795D01*
X77994205Y-85259940D01*
X77925796Y-85220444D01*
X77849496Y-85200000D01*
X77770504Y-85200000D01*
X77694204Y-85220444D01*
X77625795Y-85259940D01*
X77569940Y-85315795D01*
X77530444Y-85384204D01*
X77510000Y-85460504D01*
X77416951Y-85460504D01*
X76873709Y-84917261D01*
X76873708Y-84917261D01*
X76869203Y-84923463D01*
X76869193Y-84923480D01*
X76790592Y-85077740D01*
X76737085Y-85242415D01*
X76710000Y-85413428D01*
X73147939Y-85413428D01*
X74274548Y-84286819D01*
X74335871Y-84253334D01*
X74362229Y-84250500D01*
X76756042Y-84250500D01*
X76823081Y-84270185D01*
X76861580Y-84309402D01*
X76867288Y-84318656D01*
X76991344Y-84442712D01*
X77140666Y-84534814D01*
X77199066Y-84554166D01*
X77247743Y-84584190D01*
X77810000Y-85146446D01*
X77810001Y-85146446D01*
X78372254Y-84584191D01*
X78420930Y-84554167D01*
X78479334Y-84534814D01*
X78628656Y-84442712D01*
X78752712Y-84318656D01*
X78844814Y-84169334D01*
X78899999Y-84002797D01*
X78910500Y-83900009D01*
X78910499Y-83099992D01*
X78901038Y-83007379D01*
X78899999Y-82997203D01*
X78899998Y-82997200D01*
X78897515Y-82989707D01*
X78844814Y-82830666D01*
X78752712Y-82681344D01*
X78628656Y-82557288D01*
X78479334Y-82465186D01*
X78312797Y-82410001D01*
X78312795Y-82410000D01*
X78210010Y-82399500D01*
X77409998Y-82399500D01*
X77409980Y-82399501D01*
X77307203Y-82410000D01*
X77307200Y-82410001D01*
X77140668Y-82465185D01*
X77140663Y-82465187D01*
X76991342Y-82557289D01*
X76867287Y-82681344D01*
X76861580Y-82690598D01*
X76809632Y-82737322D01*
X76756042Y-82749500D01*
X73926080Y-82749500D01*
X73781092Y-82778340D01*
X73781082Y-82778343D01*
X73644511Y-82834912D01*
X73644498Y-82834919D01*
X73521584Y-82917048D01*
X73521580Y-82917051D01*
X66767049Y-89671582D01*
X66767048Y-89671584D01*
X66744574Y-89705220D01*
X66714642Y-89750015D01*
X66684914Y-89794507D01*
X66628343Y-89931082D01*
X66628340Y-89931092D01*
X66599500Y-90076079D01*
X66599500Y-93868582D01*
X66579815Y-93935621D01*
X66548386Y-93968899D01*
X66403434Y-94074214D01*
X66403432Y-94074216D01*
X66403431Y-94074216D01*
X66241716Y-94235931D01*
X66241709Y-94235940D01*
X66180007Y-94320864D01*
X66124677Y-94363530D01*
X66055063Y-94369508D01*
X65993269Y-94336901D01*
X65979372Y-94320863D01*
X65917907Y-94236263D01*
X65917902Y-94236257D01*
X65756242Y-94074597D01*
X65571276Y-93940211D01*
X65367568Y-93836417D01*
X65150124Y-93765765D01*
X65060000Y-93751490D01*
X65060000Y-94739252D01*
X65022292Y-94717482D01*
X64882409Y-94680000D01*
X64737591Y-94680000D01*
X64597708Y-94717482D01*
X64560000Y-94739252D01*
X64560000Y-93751490D01*
X64559999Y-93751490D01*
X64469875Y-93765765D01*
X64252431Y-93836417D01*
X64048719Y-93940213D01*
X63865939Y-94073010D01*
X63800132Y-94096490D01*
X63732079Y-94080664D01*
X63683384Y-94030558D01*
X63676875Y-94016033D01*
X63666296Y-93987669D01*
X63666295Y-93987667D01*
X63666293Y-93987664D01*
X63580047Y-93872455D01*
X63580044Y-93872452D01*
X63464835Y-93786206D01*
X63464828Y-93786202D01*
X63329982Y-93735908D01*
X63329983Y-93735908D01*
X63270383Y-93729501D01*
X63270381Y-93729500D01*
X63270373Y-93729500D01*
X63270365Y-93729500D01*
X63144500Y-93729500D01*
X63077461Y-93709815D01*
X63031706Y-93657011D01*
X63020500Y-93605500D01*
X63020500Y-88092229D01*
X63040185Y-88025190D01*
X63056819Y-88004548D01*
X73436336Y-77625031D01*
X76700000Y-77625031D01*
X76700000Y-77829666D01*
X76732009Y-78031766D01*
X76795244Y-78226380D01*
X76888141Y-78408699D01*
X76888147Y-78408708D01*
X76920523Y-78453270D01*
X76920524Y-78453271D01*
X77600000Y-77773795D01*
X77600000Y-77780010D01*
X77627259Y-77881743D01*
X77679920Y-77972955D01*
X77754394Y-78047429D01*
X77845606Y-78100090D01*
X77947339Y-78127349D01*
X77953553Y-78127349D01*
X77274076Y-78806823D01*
X77318650Y-78839208D01*
X77500968Y-78932104D01*
X77695582Y-78995339D01*
X77897683Y-79027349D01*
X78102317Y-79027349D01*
X78304417Y-78995339D01*
X78499031Y-78932104D01*
X78681349Y-78839208D01*
X78725921Y-78806823D01*
X78046447Y-78127349D01*
X78052661Y-78127349D01*
X78154394Y-78100090D01*
X78245606Y-78047429D01*
X78320080Y-77972955D01*
X78372741Y-77881743D01*
X78400000Y-77780010D01*
X78400000Y-77773796D01*
X79079474Y-78453270D01*
X79111859Y-78408698D01*
X79204755Y-78226380D01*
X79267990Y-78031766D01*
X79300000Y-77829666D01*
X79300000Y-77625031D01*
X79267990Y-77422931D01*
X79204755Y-77228317D01*
X79111859Y-77045999D01*
X79079474Y-77001426D01*
X79079474Y-77001425D01*
X78400000Y-77680900D01*
X78400000Y-77674688D01*
X78372741Y-77572955D01*
X78320080Y-77481743D01*
X78245606Y-77407269D01*
X78154394Y-77354608D01*
X78052661Y-77327349D01*
X78046446Y-77327349D01*
X78725922Y-76647873D01*
X78725921Y-76647872D01*
X78681359Y-76615496D01*
X78681350Y-76615490D01*
X78499031Y-76522593D01*
X78304417Y-76459358D01*
X78102317Y-76427349D01*
X77897683Y-76427349D01*
X77695582Y-76459358D01*
X77500968Y-76522593D01*
X77318644Y-76615492D01*
X77274077Y-76647872D01*
X77274077Y-76647873D01*
X77953554Y-77327349D01*
X77947339Y-77327349D01*
X77845606Y-77354608D01*
X77754394Y-77407269D01*
X77679920Y-77481743D01*
X77627259Y-77572955D01*
X77600000Y-77674688D01*
X77600000Y-77680902D01*
X76920524Y-77001426D01*
X76920523Y-77001426D01*
X76888143Y-77045993D01*
X76795244Y-77228317D01*
X76732009Y-77422931D01*
X76700000Y-77625031D01*
X73436336Y-77625031D01*
X76347199Y-74714168D01*
X76374126Y-74699464D01*
X76399945Y-74682872D01*
X76406145Y-74681980D01*
X76408522Y-74680683D01*
X76434880Y-74677849D01*
X76636267Y-74677849D01*
X76703306Y-74697534D01*
X76749061Y-74750338D01*
X76753972Y-74762843D01*
X76765186Y-74796683D01*
X76857288Y-74946005D01*
X76981344Y-75070061D01*
X77130666Y-75162163D01*
X77297203Y-75217348D01*
X77399991Y-75227849D01*
X78600008Y-75227848D01*
X78702797Y-75217348D01*
X78869334Y-75162163D01*
X79018656Y-75070061D01*
X79142712Y-74946005D01*
X79234814Y-74796683D01*
X79289999Y-74630146D01*
X79300500Y-74527358D01*
X79300499Y-73327341D01*
X79289999Y-73224552D01*
X79234814Y-73058015D01*
X79142712Y-72908693D01*
X79018656Y-72784637D01*
X78869334Y-72692535D01*
X78702797Y-72637350D01*
X78702795Y-72637349D01*
X78600010Y-72626849D01*
X77399998Y-72626849D01*
X77399981Y-72626850D01*
X77297203Y-72637349D01*
X77297200Y-72637350D01*
X77130668Y-72692534D01*
X77130663Y-72692536D01*
X76981342Y-72784638D01*
X76857289Y-72908691D01*
X76765187Y-73058012D01*
X76765184Y-73058020D01*
X76753972Y-73091855D01*
X76714199Y-73149299D01*
X76649683Y-73176121D01*
X76636267Y-73176849D01*
X75998731Y-73176849D01*
X75853743Y-73205689D01*
X75853733Y-73205692D01*
X75717162Y-73262261D01*
X75717149Y-73262268D01*
X75594235Y-73344397D01*
X75594231Y-73344400D01*
X61687049Y-87251582D01*
X61687048Y-87251584D01*
X61664574Y-87285220D01*
X61658186Y-87294781D01*
X61604914Y-87374507D01*
X61548343Y-87511082D01*
X61548340Y-87511092D01*
X61519500Y-87656079D01*
X61519500Y-93605500D01*
X61499815Y-93672539D01*
X61447011Y-93718294D01*
X61395501Y-93729500D01*
X61269630Y-93729500D01*
X61269623Y-93729501D01*
X61210016Y-93735908D01*
X61075171Y-93786202D01*
X61075164Y-93786206D01*
X60959955Y-93872452D01*
X60959952Y-93872455D01*
X60873706Y-93987664D01*
X60873702Y-93987671D01*
X60823408Y-94122517D01*
X60817001Y-94182116D01*
X60817000Y-94182135D01*
X56664197Y-94182135D01*
X56663229Y-94179799D01*
X56663226Y-94179793D01*
X56663224Y-94179788D01*
X56541936Y-93969711D01*
X56444244Y-93842396D01*
X56394266Y-93777263D01*
X56394260Y-93777256D01*
X56222743Y-93605739D01*
X56222736Y-93605733D01*
X56030293Y-93458067D01*
X56030292Y-93458066D01*
X56030289Y-93458064D01*
X55820212Y-93336776D01*
X55820205Y-93336773D01*
X55596104Y-93243947D01*
X55361785Y-93181161D01*
X55121289Y-93149500D01*
X55121288Y-93149500D01*
X54878712Y-93149500D01*
X54878711Y-93149500D01*
X54638214Y-93181161D01*
X54403895Y-93243947D01*
X54179794Y-93336773D01*
X54179785Y-93336777D01*
X53969706Y-93458067D01*
X53777263Y-93605733D01*
X53777256Y-93605739D01*
X53605739Y-93777256D01*
X53605733Y-93777263D01*
X53458067Y-93969706D01*
X53336777Y-94179785D01*
X53336773Y-94179794D01*
X53243947Y-94403895D01*
X53181161Y-94638214D01*
X53152172Y-94858416D01*
X53149500Y-94878712D01*
X50500500Y-94878712D01*
X50500500Y-78438872D01*
X62809500Y-78438872D01*
X62809500Y-78701127D01*
X62832943Y-78879185D01*
X62843730Y-78961116D01*
X62911602Y-79214418D01*
X62911605Y-79214428D01*
X63011953Y-79456690D01*
X63011958Y-79456700D01*
X63143075Y-79683803D01*
X63302718Y-79891851D01*
X63302726Y-79891860D01*
X63488140Y-80077274D01*
X63488148Y-80077281D01*
X63696196Y-80236924D01*
X63923299Y-80368041D01*
X63923309Y-80368046D01*
X64165571Y-80468394D01*
X64165581Y-80468398D01*
X64418884Y-80536270D01*
X64678880Y-80570500D01*
X64678887Y-80570500D01*
X64941113Y-80570500D01*
X64941120Y-80570500D01*
X65201116Y-80536270D01*
X65454419Y-80468398D01*
X65649205Y-80387715D01*
X65696690Y-80368046D01*
X65696691Y-80368045D01*
X65696697Y-80368043D01*
X65923803Y-80236924D01*
X66131851Y-80077282D01*
X66131855Y-80077277D01*
X66131860Y-80077274D01*
X66317274Y-79891860D01*
X66317277Y-79891855D01*
X66317282Y-79891851D01*
X66476924Y-79683803D01*
X66608043Y-79456697D01*
X66708398Y-79214419D01*
X66776270Y-78961116D01*
X66810500Y-78701120D01*
X66810500Y-78438880D01*
X66776270Y-78178884D01*
X66708398Y-77925581D01*
X66690240Y-77881743D01*
X66608046Y-77683309D01*
X66608041Y-77683299D01*
X66476924Y-77456196D01*
X66317281Y-77248148D01*
X66317274Y-77248140D01*
X66131860Y-77062726D01*
X66131851Y-77062718D01*
X65923803Y-76903075D01*
X65696700Y-76771958D01*
X65696690Y-76771953D01*
X65454428Y-76671605D01*
X65454421Y-76671603D01*
X65454419Y-76671602D01*
X65201116Y-76603730D01*
X65143339Y-76596123D01*
X64941127Y-76569500D01*
X64941120Y-76569500D01*
X64678880Y-76569500D01*
X64678872Y-76569500D01*
X64447772Y-76599926D01*
X64418884Y-76603730D01*
X64165581Y-76671602D01*
X64165571Y-76671605D01*
X63923309Y-76771953D01*
X63923299Y-76771958D01*
X63696196Y-76903075D01*
X63488148Y-77062718D01*
X63302718Y-77248148D01*
X63143075Y-77456196D01*
X63011958Y-77683299D01*
X63011953Y-77683309D01*
X62911605Y-77925571D01*
X62911602Y-77925581D01*
X62848227Y-78162103D01*
X62843730Y-78178885D01*
X62809500Y-78438872D01*
X50500500Y-78438872D01*
X50500500Y-61261386D01*
X58549500Y-61261386D01*
X58549500Y-63198613D01*
X58549501Y-63198652D01*
X58552295Y-63251243D01*
X58552295Y-63251244D01*
X58587279Y-63432128D01*
X58596755Y-63481126D01*
X58623183Y-63551155D01*
X58679425Y-63700189D01*
X58797929Y-63902131D01*
X58797934Y-63902138D01*
X58948856Y-64081141D01*
X58948858Y-64081143D01*
X59127861Y-64232065D01*
X59127868Y-64232070D01*
X59329810Y-64350574D01*
X59548874Y-64433245D01*
X59778759Y-64477705D01*
X59831378Y-64480500D01*
X59831386Y-64480500D01*
X61768614Y-64480500D01*
X61768622Y-64480500D01*
X61821241Y-64477705D01*
X62051126Y-64433245D01*
X62270190Y-64350574D01*
X62472132Y-64232070D01*
X62472138Y-64232065D01*
X62651141Y-64081143D01*
X62651143Y-64081141D01*
X62802065Y-63902138D01*
X62802065Y-63902137D01*
X62802070Y-63902132D01*
X62920574Y-63700190D01*
X63003245Y-63481126D01*
X63003756Y-63478485D01*
X63004281Y-63477467D01*
X63004683Y-63476050D01*
X63004971Y-63476131D01*
X63035812Y-63416403D01*
X63096343Y-63381507D01*
X63166131Y-63384876D01*
X63223019Y-63425440D01*
X63248946Y-63490322D01*
X63249500Y-63502030D01*
X63249500Y-67027870D01*
X63249501Y-67027876D01*
X63255908Y-67087483D01*
X63306202Y-67222328D01*
X63306206Y-67222335D01*
X63392452Y-67337544D01*
X63392455Y-67337547D01*
X63507664Y-67423793D01*
X63507671Y-67423797D01*
X63642517Y-67474091D01*
X63642516Y-67474091D01*
X63649444Y-67474835D01*
X63702127Y-67480500D01*
X67297872Y-67480499D01*
X67357483Y-67474091D01*
X67492331Y-67423796D01*
X67607546Y-67337546D01*
X67693796Y-67222331D01*
X67744091Y-67087483D01*
X67750500Y-67027873D01*
X67750500Y-66104500D01*
X67770185Y-66037461D01*
X67822989Y-65991706D01*
X67874500Y-65980500D01*
X72843920Y-65980500D01*
X72959403Y-65957528D01*
X72988913Y-65951658D01*
X73125495Y-65895084D01*
X73174729Y-65862186D01*
X73248416Y-65812952D01*
X74886497Y-64174871D01*
X76699500Y-64174871D01*
X76699500Y-65374889D01*
X76699501Y-65374906D01*
X76710000Y-65477684D01*
X76710001Y-65477687D01*
X76765185Y-65644219D01*
X76765187Y-65644224D01*
X76857289Y-65793545D01*
X76926510Y-65862766D01*
X76959995Y-65924089D01*
X76955011Y-65993781D01*
X76939148Y-66023332D01*
X76888139Y-66093539D01*
X76795244Y-66275856D01*
X76732009Y-66470470D01*
X76700000Y-66672570D01*
X76700000Y-66877205D01*
X76732009Y-67079305D01*
X76795244Y-67273919D01*
X76888141Y-67456238D01*
X76888147Y-67456247D01*
X76920523Y-67500809D01*
X76920524Y-67500810D01*
X77600000Y-66821334D01*
X77600000Y-66827549D01*
X77627259Y-66929282D01*
X77679920Y-67020494D01*
X77754394Y-67094968D01*
X77845606Y-67147629D01*
X77947339Y-67174888D01*
X77953553Y-67174888D01*
X77274076Y-67854362D01*
X77318650Y-67886747D01*
X77500968Y-67979643D01*
X77695582Y-68042878D01*
X77897683Y-68074888D01*
X78102317Y-68074888D01*
X78304417Y-68042878D01*
X78499031Y-67979643D01*
X78681349Y-67886747D01*
X78725921Y-67854362D01*
X78046447Y-67174888D01*
X78052661Y-67174888D01*
X78154394Y-67147629D01*
X78245606Y-67094968D01*
X78320080Y-67020494D01*
X78372741Y-66929282D01*
X78400000Y-66827549D01*
X78400000Y-66821335D01*
X79079474Y-67500809D01*
X79111859Y-67456237D01*
X79204755Y-67273919D01*
X79267990Y-67079305D01*
X79300000Y-66877205D01*
X79300000Y-66672570D01*
X79267990Y-66470470D01*
X79204755Y-66275856D01*
X79111857Y-66093534D01*
X79060853Y-66023334D01*
X79037372Y-65957528D01*
X79053197Y-65889474D01*
X79073489Y-65862767D01*
X79074070Y-65862186D01*
X79142712Y-65793544D01*
X79234814Y-65644222D01*
X79245891Y-65610794D01*
X79246028Y-65610382D01*
X79285801Y-65552938D01*
X79350317Y-65526116D01*
X79363733Y-65525388D01*
X79912658Y-65525388D01*
X79979697Y-65545073D01*
X80000339Y-65561707D01*
X82481584Y-68042952D01*
X82527929Y-68073918D01*
X82604508Y-68125086D01*
X82741082Y-68181656D01*
X82741087Y-68181658D01*
X82741091Y-68181658D01*
X82741092Y-68181659D01*
X82886079Y-68210500D01*
X82886082Y-68210500D01*
X82886083Y-68210500D01*
X83033918Y-68210500D01*
X86664582Y-68210500D01*
X86731621Y-68230185D01*
X86764900Y-68261615D01*
X86798028Y-68307212D01*
X86798032Y-68307217D01*
X86942786Y-68451971D01*
X87097749Y-68564556D01*
X87108390Y-68572287D01*
X87199840Y-68618883D01*
X87201080Y-68619515D01*
X87251876Y-68667490D01*
X87268671Y-68735311D01*
X87246134Y-68801446D01*
X87201080Y-68840485D01*
X87108386Y-68887715D01*
X86942786Y-69008028D01*
X86798028Y-69152786D01*
X86677715Y-69318386D01*
X86584781Y-69500776D01*
X86521522Y-69695465D01*
X86489500Y-69897648D01*
X86489500Y-69897769D01*
X86489486Y-69897813D01*
X86489117Y-69902511D01*
X86488130Y-69902433D01*
X86469815Y-69964808D01*
X86453181Y-69985450D01*
X83917050Y-72521580D01*
X83917044Y-72521588D01*
X83867812Y-72595268D01*
X83867813Y-72595269D01*
X83834921Y-72644496D01*
X83834914Y-72644508D01*
X83778342Y-72781086D01*
X83778340Y-72781092D01*
X83749500Y-72926079D01*
X83749500Y-72926082D01*
X83749500Y-81573918D01*
X83749500Y-81573920D01*
X83749499Y-81573920D01*
X83778340Y-81718907D01*
X83778342Y-81718913D01*
X83834915Y-81855492D01*
X83834914Y-81855492D01*
X83834915Y-81855494D01*
X83834916Y-81855495D01*
X83836347Y-81857636D01*
X83836351Y-81857650D01*
X83836355Y-81857648D01*
X83917051Y-81978420D01*
X83917052Y-81978421D01*
X91021584Y-89082952D01*
X91021586Y-89082954D01*
X91051058Y-89102645D01*
X91095270Y-89132186D01*
X91144505Y-89165084D01*
X91144506Y-89165084D01*
X91144507Y-89165085D01*
X91144509Y-89165086D01*
X91281082Y-89221656D01*
X91281087Y-89221658D01*
X91281091Y-89221658D01*
X91281092Y-89221659D01*
X91426079Y-89250500D01*
X91426082Y-89250500D01*
X91426083Y-89250500D01*
X91573917Y-89250500D01*
X93874582Y-89250500D01*
X93941621Y-89270185D01*
X93974900Y-89301615D01*
X94008028Y-89347212D01*
X94008032Y-89347217D01*
X94152786Y-89491971D01*
X94307749Y-89604556D01*
X94318390Y-89612287D01*
X94434607Y-89671503D01*
X94500776Y-89705218D01*
X94500778Y-89705218D01*
X94500781Y-89705220D01*
X94605137Y-89739127D01*
X94695465Y-89768477D01*
X94796557Y-89784488D01*
X94897648Y-89800500D01*
X94897649Y-89800500D01*
X95102351Y-89800500D01*
X95102352Y-89800500D01*
X95304534Y-89768477D01*
X95499219Y-89705220D01*
X95681610Y-89612287D01*
X95774590Y-89544732D01*
X95847213Y-89491971D01*
X95847215Y-89491968D01*
X95847219Y-89491966D01*
X95991966Y-89347219D01*
X96009570Y-89322989D01*
X96025100Y-89301615D01*
X96080429Y-89258949D01*
X96125418Y-89250500D01*
X100888769Y-89250500D01*
X100955808Y-89270185D01*
X101001563Y-89322989D01*
X101011507Y-89392147D01*
X100982482Y-89455703D01*
X100976450Y-89462181D01*
X100225451Y-90213181D01*
X100164128Y-90246666D01*
X100137770Y-90249500D01*
X91926080Y-90249500D01*
X91781092Y-90278340D01*
X91781086Y-90278342D01*
X91644508Y-90334914D01*
X91644496Y-90334921D01*
X91595269Y-90367813D01*
X91521588Y-90417044D01*
X91521580Y-90417050D01*
X88339201Y-93599429D01*
X88277878Y-93632914D01*
X88208186Y-93627930D01*
X88204067Y-93626309D01*
X88144428Y-93601605D01*
X88144421Y-93601603D01*
X88144419Y-93601602D01*
X87891116Y-93533730D01*
X87833339Y-93526123D01*
X87631127Y-93499500D01*
X87631120Y-93499500D01*
X87368880Y-93499500D01*
X87368872Y-93499500D01*
X87137772Y-93529926D01*
X87108884Y-93533730D01*
X86863691Y-93599429D01*
X86855581Y-93601602D01*
X86855571Y-93601605D01*
X86613309Y-93701953D01*
X86613299Y-93701958D01*
X86386196Y-93833075D01*
X86178148Y-93992718D01*
X85992718Y-94178148D01*
X85833075Y-94386196D01*
X85701958Y-94613299D01*
X85701953Y-94613309D01*
X85601605Y-94855571D01*
X85601602Y-94855581D01*
X85558161Y-95017708D01*
X85533730Y-95108885D01*
X85499500Y-95368872D01*
X85499500Y-95631127D01*
X85518568Y-95775955D01*
X85533730Y-95891116D01*
X85584341Y-96080000D01*
X85601602Y-96144418D01*
X85601605Y-96144428D01*
X85701953Y-96386690D01*
X85701958Y-96386700D01*
X85833075Y-96613803D01*
X85992718Y-96821851D01*
X85992726Y-96821860D01*
X86178140Y-97007274D01*
X86178148Y-97007281D01*
X86386196Y-97166924D01*
X86613299Y-97298041D01*
X86613309Y-97298046D01*
X86855571Y-97398394D01*
X86855581Y-97398398D01*
X87108884Y-97466270D01*
X87357188Y-97498960D01*
X87368864Y-97500498D01*
X87368880Y-97500500D01*
X87368887Y-97500500D01*
X87631113Y-97500500D01*
X87631120Y-97500500D01*
X87891116Y-97466270D01*
X88144419Y-97398398D01*
X88386697Y-97298043D01*
X88613803Y-97166924D01*
X88821851Y-97007282D01*
X88821855Y-97007277D01*
X88821860Y-97007274D01*
X89007274Y-96821860D01*
X89007277Y-96821855D01*
X89007282Y-96821851D01*
X89166924Y-96613803D01*
X89298043Y-96386697D01*
X89298422Y-96385783D01*
X89322051Y-96328738D01*
X89373319Y-96204963D01*
X89398398Y-96144419D01*
X89466270Y-95891116D01*
X89500500Y-95631120D01*
X89500500Y-95368880D01*
X89466270Y-95108884D01*
X89398398Y-94855581D01*
X89373688Y-94795927D01*
X89366220Y-94726463D01*
X89397494Y-94663983D01*
X89400540Y-94660826D01*
X90583719Y-93477648D01*
X102498318Y-93477648D01*
X102498318Y-93682351D01*
X102530340Y-93884534D01*
X102593599Y-94079223D01*
X102644846Y-94179799D01*
X102673451Y-94235940D01*
X102686533Y-94261613D01*
X102806846Y-94427213D01*
X102951604Y-94571971D01*
X103100296Y-94680000D01*
X103117208Y-94692287D01*
X103233425Y-94751503D01*
X103299594Y-94785218D01*
X103299596Y-94785218D01*
X103299599Y-94785220D01*
X103403955Y-94819127D01*
X103494283Y-94848477D01*
X103539136Y-94855581D01*
X103696466Y-94880500D01*
X103696467Y-94880500D01*
X103901169Y-94880500D01*
X103901170Y-94880500D01*
X104103352Y-94848477D01*
X104298037Y-94785220D01*
X104480428Y-94692287D01*
X104589147Y-94613299D01*
X104646031Y-94571971D01*
X104646033Y-94571968D01*
X104646037Y-94571966D01*
X104790784Y-94427219D01*
X104790786Y-94427215D01*
X104790789Y-94427213D01*
X104868055Y-94320864D01*
X104911105Y-94261610D01*
X105004038Y-94079219D01*
X105067295Y-93884534D01*
X105099318Y-93682352D01*
X105099318Y-93477648D01*
X105067295Y-93275466D01*
X105004038Y-93080781D01*
X105004036Y-93080778D01*
X105004036Y-93080776D01*
X104970004Y-93013985D01*
X104911105Y-92898390D01*
X104870116Y-92841973D01*
X104790789Y-92732786D01*
X104646031Y-92588028D01*
X104480431Y-92467715D01*
X104480430Y-92467714D01*
X104480428Y-92467713D01*
X104423471Y-92438691D01*
X104298041Y-92374781D01*
X104103352Y-92311522D01*
X103928813Y-92283878D01*
X103901170Y-92279500D01*
X103696466Y-92279500D01*
X103672147Y-92283351D01*
X103494283Y-92311522D01*
X103299594Y-92374781D01*
X103117204Y-92467715D01*
X102951604Y-92588028D01*
X102806846Y-92732786D01*
X102686533Y-92898386D01*
X102593599Y-93080776D01*
X102530340Y-93275465D01*
X102498318Y-93477648D01*
X90583719Y-93477648D01*
X92274549Y-91786819D01*
X92335872Y-91753334D01*
X92362230Y-91750500D01*
X100573920Y-91750500D01*
X100671462Y-91731096D01*
X100718913Y-91721658D01*
X100855495Y-91665084D01*
X100904729Y-91632186D01*
X100978416Y-91582952D01*
X104734549Y-87826819D01*
X104795872Y-87793334D01*
X104822230Y-87790500D01*
X107273991Y-87790500D01*
X107341030Y-87810185D01*
X107374309Y-87841615D01*
X107407437Y-87887212D01*
X107407441Y-87887217D01*
X107552195Y-88031971D01*
X107707158Y-88144556D01*
X107717799Y-88152287D01*
X107834016Y-88211503D01*
X107900185Y-88245218D01*
X107900187Y-88245218D01*
X107900190Y-88245220D01*
X108004546Y-88279127D01*
X108094874Y-88308477D01*
X108195966Y-88324488D01*
X108297057Y-88340500D01*
X108297058Y-88340500D01*
X108501760Y-88340500D01*
X108501761Y-88340500D01*
X108703943Y-88308477D01*
X108898628Y-88245220D01*
X109081019Y-88152287D01*
X109234377Y-88040867D01*
X109246622Y-88031971D01*
X109246624Y-88031968D01*
X109246628Y-88031966D01*
X109391375Y-87887219D01*
X109391377Y-87887215D01*
X109391380Y-87887213D01*
X109461645Y-87790500D01*
X109511696Y-87721610D01*
X109604629Y-87539219D01*
X109667886Y-87344534D01*
X109699909Y-87142352D01*
X109699909Y-86937648D01*
X109667886Y-86735466D01*
X109604629Y-86540781D01*
X109604627Y-86540778D01*
X109604627Y-86540776D01*
X109570912Y-86474607D01*
X109511696Y-86358390D01*
X109503965Y-86347749D01*
X109391380Y-86192786D01*
X109246622Y-86048028D01*
X109081022Y-85927715D01*
X109081021Y-85927714D01*
X109081019Y-85927713D01*
X109024062Y-85898691D01*
X108898632Y-85834781D01*
X108703944Y-85771523D01*
X108586829Y-85752973D01*
X108523695Y-85723043D01*
X108486764Y-85663731D01*
X108487762Y-85593869D01*
X108518544Y-85542823D01*
X109815297Y-84246069D01*
X109855524Y-84219191D01*
X109879179Y-84209394D01*
X110010289Y-84121789D01*
X110121789Y-84010289D01*
X110209394Y-83879179D01*
X110269737Y-83733497D01*
X110300500Y-83578842D01*
X110300500Y-83421158D01*
X110300500Y-83421155D01*
X110300499Y-83421153D01*
X110295018Y-83393598D01*
X110269737Y-83266503D01*
X110269735Y-83266498D01*
X110209397Y-83120827D01*
X110209390Y-83120814D01*
X110121789Y-82989711D01*
X110121786Y-82989707D01*
X110010292Y-82878213D01*
X110010288Y-82878210D01*
X109879185Y-82790609D01*
X109879172Y-82790602D01*
X109733501Y-82730264D01*
X109733489Y-82730261D01*
X109578845Y-82699500D01*
X109578842Y-82699500D01*
X109421158Y-82699500D01*
X109421155Y-82699500D01*
X109266510Y-82730261D01*
X109266498Y-82730264D01*
X109120827Y-82790602D01*
X109120814Y-82790609D01*
X108989711Y-82878210D01*
X108989707Y-82878213D01*
X108878213Y-82989707D01*
X108878207Y-82989715D01*
X108790607Y-83120818D01*
X108790606Y-83120819D01*
X108780805Y-83144480D01*
X108753927Y-83184703D01*
X106725451Y-85213181D01*
X106664128Y-85246666D01*
X106637770Y-85249500D01*
X103426080Y-85249500D01*
X103281092Y-85278340D01*
X103281082Y-85278343D01*
X103144509Y-85334913D01*
X103144507Y-85334914D01*
X103133521Y-85342255D01*
X103127950Y-85345978D01*
X103021579Y-85417051D01*
X103021578Y-85417052D01*
X100725451Y-87713181D01*
X100664128Y-87746666D01*
X100637770Y-87749500D01*
X96125418Y-87749500D01*
X96058379Y-87729815D01*
X96025100Y-87698385D01*
X95991971Y-87652787D01*
X95991967Y-87652782D01*
X95847213Y-87508028D01*
X95681613Y-87387715D01*
X95681612Y-87387714D01*
X95681610Y-87387713D01*
X95596867Y-87344534D01*
X95499223Y-87294781D01*
X95304534Y-87231522D01*
X95129995Y-87203878D01*
X95102352Y-87199500D01*
X94897648Y-87199500D01*
X94873329Y-87203351D01*
X94695465Y-87231522D01*
X94500776Y-87294781D01*
X94318386Y-87387715D01*
X94152786Y-87508028D01*
X94008032Y-87652782D01*
X94008028Y-87652787D01*
X93974900Y-87698385D01*
X93919571Y-87741051D01*
X93874582Y-87749500D01*
X91862230Y-87749500D01*
X91795191Y-87729815D01*
X91774549Y-87713181D01*
X85286819Y-81225451D01*
X85253334Y-81164128D01*
X85250500Y-81137770D01*
X85250500Y-73362229D01*
X85270185Y-73295190D01*
X85286819Y-73274548D01*
X85780281Y-72781086D01*
X86288484Y-72272882D01*
X86349805Y-72239399D01*
X86419497Y-72244383D01*
X86475430Y-72286255D01*
X86499847Y-72351719D01*
X86498637Y-72379959D01*
X86489500Y-72437648D01*
X86489500Y-72642352D01*
X86489903Y-72644897D01*
X86521522Y-72844534D01*
X86584781Y-73039223D01*
X86639334Y-73146287D01*
X86669602Y-73205692D01*
X86677715Y-73221613D01*
X86798028Y-73387213D01*
X86942786Y-73531971D01*
X87097749Y-73644556D01*
X87108390Y-73652287D01*
X87224607Y-73711503D01*
X87290776Y-73745218D01*
X87290778Y-73745218D01*
X87290781Y-73745220D01*
X87353812Y-73765700D01*
X87485465Y-73808477D01*
X87586557Y-73824488D01*
X87687648Y-73840500D01*
X87687649Y-73840500D01*
X88692351Y-73840500D01*
X88692352Y-73840500D01*
X88894534Y-73808477D01*
X89089219Y-73745220D01*
X89271610Y-73652287D01*
X89373547Y-73578226D01*
X89437213Y-73531971D01*
X89437215Y-73531968D01*
X89437219Y-73531966D01*
X89581966Y-73387219D01*
X89581968Y-73387215D01*
X89581971Y-73387213D01*
X89634732Y-73314590D01*
X89702287Y-73221610D01*
X89795220Y-73039219D01*
X89858477Y-72844534D01*
X89890500Y-72642352D01*
X89890500Y-72437648D01*
X89864404Y-72272884D01*
X89858477Y-72235465D01*
X89795218Y-72040776D01*
X89748841Y-71949758D01*
X89702287Y-71858390D01*
X89655036Y-71793354D01*
X89581971Y-71692786D01*
X89437213Y-71548028D01*
X89271614Y-71427715D01*
X89220099Y-71401467D01*
X89178917Y-71380483D01*
X89128123Y-71332511D01*
X89111328Y-71264690D01*
X89133865Y-71198555D01*
X89178917Y-71159516D01*
X89271610Y-71112287D01*
X89313898Y-71081563D01*
X89437213Y-70991971D01*
X89437215Y-70991968D01*
X89437219Y-70991966D01*
X89581966Y-70847219D01*
X89581968Y-70847215D01*
X89581971Y-70847213D01*
X89652599Y-70750000D01*
X89702287Y-70681610D01*
X89795220Y-70499219D01*
X89824074Y-70410413D01*
X89825625Y-70408145D01*
X89825822Y-70405399D01*
X89845234Y-70379467D01*
X89863510Y-70352740D01*
X89866045Y-70351668D01*
X89867694Y-70349466D01*
X89898029Y-70338151D01*
X89927868Y-70325541D01*
X89930580Y-70326010D01*
X89933158Y-70325049D01*
X89964794Y-70331931D01*
X89996715Y-70337455D01*
X89999565Y-70339495D01*
X90001431Y-70339901D01*
X90029685Y-70361052D01*
X90147048Y-70478415D01*
X90147049Y-70478416D01*
X90234459Y-70565826D01*
X90251585Y-70582952D01*
X90374498Y-70665080D01*
X90374511Y-70665087D01*
X90441883Y-70692993D01*
X90511087Y-70721658D01*
X90511091Y-70721658D01*
X90511092Y-70721659D01*
X90656079Y-70750500D01*
X90656082Y-70750500D01*
X94284582Y-70750500D01*
X94351621Y-70770185D01*
X94384900Y-70801615D01*
X94418028Y-70847212D01*
X94418032Y-70847217D01*
X94562786Y-70991971D01*
X94717749Y-71104556D01*
X94728390Y-71112287D01*
X94819840Y-71158883D01*
X94821080Y-71159515D01*
X94871876Y-71207490D01*
X94888671Y-71275311D01*
X94866134Y-71341446D01*
X94821080Y-71380485D01*
X94728386Y-71427715D01*
X94562786Y-71548028D01*
X94418028Y-71692786D01*
X94297715Y-71858386D01*
X94204781Y-72040776D01*
X94141522Y-72235465D01*
X94109500Y-72437648D01*
X94109500Y-72642352D01*
X94109903Y-72644897D01*
X94141522Y-72844534D01*
X94204781Y-73039223D01*
X94259334Y-73146287D01*
X94289602Y-73205692D01*
X94297715Y-73221613D01*
X94418028Y-73387213D01*
X94562786Y-73531971D01*
X94717749Y-73644556D01*
X94728390Y-73652287D01*
X94910781Y-73745220D01*
X94973818Y-73765701D01*
X95031492Y-73805137D01*
X95058691Y-73869495D01*
X95059500Y-73883632D01*
X95059500Y-78137770D01*
X95039815Y-78204809D01*
X95023181Y-78225451D01*
X93075105Y-80173526D01*
X93013782Y-80207011D01*
X92968026Y-80208318D01*
X92912352Y-80199500D01*
X92707648Y-80199500D01*
X92683329Y-80203351D01*
X92505465Y-80231522D01*
X92310776Y-80294781D01*
X92128386Y-80387715D01*
X91962786Y-80508028D01*
X91818028Y-80652786D01*
X91697714Y-80818386D01*
X91670203Y-80872379D01*
X91622227Y-80923174D01*
X91554406Y-80939968D01*
X91488272Y-80917429D01*
X91449234Y-80872376D01*
X91421861Y-80818652D01*
X91389474Y-80774077D01*
X91389474Y-80774076D01*
X90710000Y-81453551D01*
X90710000Y-81447339D01*
X90682741Y-81345606D01*
X90630080Y-81254394D01*
X90555606Y-81179920D01*
X90464394Y-81127259D01*
X90362661Y-81100000D01*
X90356446Y-81100000D01*
X91035922Y-80420524D01*
X91035921Y-80420523D01*
X90991359Y-80388147D01*
X90991350Y-80388141D01*
X90809031Y-80295244D01*
X90614417Y-80232009D01*
X90412317Y-80200000D01*
X90207683Y-80200000D01*
X90005582Y-80232009D01*
X89810968Y-80295244D01*
X89628644Y-80388143D01*
X89584077Y-80420523D01*
X89584077Y-80420524D01*
X90263554Y-81100000D01*
X90257339Y-81100000D01*
X90155606Y-81127259D01*
X90064394Y-81179920D01*
X89989920Y-81254394D01*
X89937259Y-81345606D01*
X89910000Y-81447339D01*
X89910000Y-81453553D01*
X89230524Y-80774077D01*
X89230523Y-80774077D01*
X89198143Y-80818644D01*
X89105244Y-81000968D01*
X89042009Y-81195582D01*
X89010000Y-81397682D01*
X89010000Y-81602317D01*
X89042009Y-81804417D01*
X89105244Y-81999031D01*
X89198141Y-82181350D01*
X89198147Y-82181359D01*
X89230523Y-82225921D01*
X89230524Y-82225922D01*
X89910000Y-81546446D01*
X89910000Y-81552661D01*
X89937259Y-81654394D01*
X89989920Y-81745606D01*
X90064394Y-81820080D01*
X90155606Y-81872741D01*
X90257339Y-81900000D01*
X90263553Y-81900000D01*
X89584076Y-82579474D01*
X89628650Y-82611859D01*
X89810968Y-82704755D01*
X90005582Y-82767990D01*
X90207683Y-82800000D01*
X90412317Y-82800000D01*
X90614417Y-82767990D01*
X90809031Y-82704755D01*
X90991349Y-82611859D01*
X91035921Y-82579474D01*
X90356447Y-81900000D01*
X90362661Y-81900000D01*
X90464394Y-81872741D01*
X90555606Y-81820080D01*
X90630080Y-81745606D01*
X90682741Y-81654394D01*
X90710000Y-81552661D01*
X90710000Y-81546448D01*
X91389474Y-82225922D01*
X91389474Y-82225921D01*
X91421859Y-82181349D01*
X91449233Y-82127624D01*
X91497207Y-82076827D01*
X91565028Y-82060031D01*
X91631163Y-82082567D01*
X91670203Y-82127621D01*
X91697713Y-82181611D01*
X91818028Y-82347213D01*
X91962786Y-82491971D01*
X92083226Y-82579474D01*
X92128390Y-82612287D01*
X92244607Y-82671503D01*
X92310776Y-82705218D01*
X92310778Y-82705218D01*
X92310781Y-82705220D01*
X92409581Y-82737322D01*
X92505465Y-82768477D01*
X92567750Y-82778342D01*
X92707648Y-82800500D01*
X92707649Y-82800500D01*
X92912351Y-82800500D01*
X92912352Y-82800500D01*
X93114534Y-82768477D01*
X93309219Y-82705220D01*
X93491610Y-82612287D01*
X93584590Y-82544732D01*
X93657213Y-82491971D01*
X93657215Y-82491968D01*
X93657219Y-82491966D01*
X93801966Y-82347219D01*
X93801968Y-82347215D01*
X93801971Y-82347213D01*
X93872599Y-82250000D01*
X93922287Y-82181610D01*
X94015220Y-81999219D01*
X94061219Y-81857648D01*
X98300091Y-81857648D01*
X98300091Y-82062351D01*
X98332113Y-82264534D01*
X98395372Y-82459223D01*
X98488306Y-82641613D01*
X98608619Y-82807213D01*
X98753377Y-82951971D01*
X98908340Y-83064556D01*
X98918981Y-83072287D01*
X99014246Y-83120827D01*
X99101367Y-83165218D01*
X99101369Y-83165218D01*
X99101372Y-83165220D01*
X99205728Y-83199127D01*
X99296056Y-83228477D01*
X99397148Y-83244488D01*
X99498239Y-83260500D01*
X99498240Y-83260500D01*
X99702942Y-83260500D01*
X99702943Y-83260500D01*
X99905125Y-83228477D01*
X100099810Y-83165220D01*
X100282201Y-83072287D01*
X100395864Y-82989707D01*
X100447804Y-82951971D01*
X100447806Y-82951968D01*
X100447810Y-82951966D01*
X100592557Y-82807219D01*
X100592559Y-82807215D01*
X100592562Y-82807213D01*
X100667001Y-82704755D01*
X100712878Y-82641610D01*
X100805811Y-82459219D01*
X100869068Y-82264534D01*
X100901091Y-82062352D01*
X100901091Y-81857648D01*
X100880632Y-81728477D01*
X100869068Y-81655465D01*
X100818554Y-81500000D01*
X100805811Y-81460781D01*
X100805809Y-81460778D01*
X100805809Y-81460776D01*
X100747126Y-81345606D01*
X100712878Y-81278390D01*
X100674416Y-81225451D01*
X100592562Y-81112786D01*
X100447804Y-80968028D01*
X100282204Y-80847715D01*
X100282203Y-80847714D01*
X100282201Y-80847713D01*
X100224644Y-80818386D01*
X100099814Y-80754781D01*
X99905125Y-80691522D01*
X99730586Y-80663878D01*
X99702943Y-80659500D01*
X99498239Y-80659500D01*
X99473920Y-80663351D01*
X99296056Y-80691522D01*
X99101367Y-80754781D01*
X98918977Y-80847715D01*
X98753377Y-80968028D01*
X98608619Y-81112786D01*
X98488306Y-81278386D01*
X98395372Y-81460776D01*
X98332113Y-81655465D01*
X98300091Y-81857648D01*
X94061219Y-81857648D01*
X94078477Y-81804534D01*
X94110500Y-81602352D01*
X94110500Y-81397648D01*
X94101681Y-81341971D01*
X94110635Y-81272679D01*
X94136470Y-81234895D01*
X95013718Y-80357648D01*
X107300091Y-80357648D01*
X107300091Y-80562351D01*
X107332113Y-80764534D01*
X107395372Y-80959223D01*
X107416643Y-81000968D01*
X107486347Y-81137770D01*
X107488306Y-81141613D01*
X107608619Y-81307213D01*
X107753377Y-81451971D01*
X107888305Y-81550000D01*
X107918981Y-81572287D01*
X108035198Y-81631503D01*
X108101367Y-81665218D01*
X108101369Y-81665218D01*
X108101372Y-81665220D01*
X108205728Y-81699127D01*
X108296056Y-81728477D01*
X108397148Y-81744488D01*
X108498239Y-81760500D01*
X108498240Y-81760500D01*
X108702942Y-81760500D01*
X108702943Y-81760500D01*
X108905125Y-81728477D01*
X109099810Y-81665220D01*
X109282201Y-81572287D01*
X109381698Y-81499999D01*
X109447804Y-81451971D01*
X109447806Y-81451968D01*
X109447810Y-81451966D01*
X109592557Y-81307219D01*
X109592559Y-81307215D01*
X109592562Y-81307213D01*
X109673665Y-81195582D01*
X109712878Y-81141610D01*
X109805811Y-80959219D01*
X109869068Y-80764534D01*
X109901091Y-80562352D01*
X109901091Y-80357648D01*
X109881970Y-80236924D01*
X109869068Y-80155465D01*
X109805809Y-79960776D01*
X109770689Y-79891851D01*
X109712878Y-79778390D01*
X109705147Y-79767749D01*
X109592562Y-79612786D01*
X109447804Y-79468028D01*
X109282204Y-79347715D01*
X109282203Y-79347714D01*
X109282201Y-79347713D01*
X109225244Y-79318691D01*
X109099814Y-79254781D01*
X108905125Y-79191522D01*
X108730586Y-79163878D01*
X108702943Y-79159500D01*
X108498239Y-79159500D01*
X108473920Y-79163351D01*
X108296056Y-79191522D01*
X108101367Y-79254781D01*
X107918977Y-79347715D01*
X107753377Y-79468028D01*
X107608619Y-79612786D01*
X107488306Y-79778386D01*
X107395372Y-79960776D01*
X107332113Y-80155465D01*
X107300091Y-80357648D01*
X95013718Y-80357648D01*
X96392952Y-78978415D01*
X96420205Y-78937627D01*
X96475084Y-78855495D01*
X96498518Y-78798920D01*
X96531659Y-78718912D01*
X96554763Y-78602759D01*
X96560500Y-78573918D01*
X96560500Y-73883632D01*
X96580185Y-73816593D01*
X96632989Y-73770838D01*
X96646168Y-73765706D01*
X96709219Y-73745220D01*
X96891610Y-73652287D01*
X96993547Y-73578226D01*
X97057213Y-73531971D01*
X97057215Y-73531968D01*
X97057219Y-73531966D01*
X97201966Y-73387219D01*
X97201968Y-73387215D01*
X97201971Y-73387213D01*
X97254732Y-73314590D01*
X97322287Y-73221610D01*
X97415220Y-73039219D01*
X97478477Y-72844534D01*
X97510500Y-72642352D01*
X97510500Y-72437648D01*
X97484404Y-72272884D01*
X97478477Y-72235465D01*
X97415218Y-72040776D01*
X97368841Y-71949758D01*
X97322287Y-71858390D01*
X97275036Y-71793354D01*
X97201971Y-71692786D01*
X97057213Y-71548028D01*
X96891614Y-71427715D01*
X96840099Y-71401467D01*
X96798917Y-71380483D01*
X96748123Y-71332511D01*
X96731328Y-71264690D01*
X96753865Y-71198555D01*
X96798917Y-71159516D01*
X96891610Y-71112287D01*
X96933898Y-71081563D01*
X97057213Y-70991971D01*
X97057215Y-70991968D01*
X97057219Y-70991966D01*
X97201966Y-70847219D01*
X97201968Y-70847215D01*
X97201971Y-70847213D01*
X97272599Y-70750000D01*
X97322287Y-70681610D01*
X97415220Y-70499219D01*
X97478477Y-70304534D01*
X97510500Y-70102352D01*
X97510500Y-69897648D01*
X97478477Y-69695466D01*
X97415220Y-69500781D01*
X97415218Y-69500778D01*
X97415218Y-69500776D01*
X97377157Y-69426079D01*
X97322287Y-69318390D01*
X97303704Y-69292812D01*
X97201971Y-69152786D01*
X97057213Y-69008028D01*
X96891614Y-68887715D01*
X96885006Y-68884348D01*
X96798917Y-68840483D01*
X96748123Y-68792511D01*
X96731328Y-68724690D01*
X96753865Y-68658555D01*
X96798917Y-68619516D01*
X96891610Y-68572287D01*
X96912770Y-68556913D01*
X97057213Y-68451971D01*
X97057215Y-68451968D01*
X97057219Y-68451966D01*
X97201966Y-68307219D01*
X97201968Y-68307215D01*
X97201971Y-68307213D01*
X97272236Y-68210500D01*
X97322287Y-68141610D01*
X97415220Y-67959219D01*
X97478477Y-67764534D01*
X97510500Y-67562352D01*
X97510500Y-67357648D01*
X97497239Y-67273919D01*
X97478477Y-67155465D01*
X97437020Y-67027876D01*
X97415220Y-66960781D01*
X97415218Y-66960778D01*
X97415218Y-66960776D01*
X97362586Y-66857482D01*
X97322287Y-66778390D01*
X97272236Y-66709500D01*
X97201971Y-66612786D01*
X97057213Y-66468028D01*
X96891614Y-66347715D01*
X96884884Y-66344286D01*
X96798917Y-66300483D01*
X96748123Y-66252511D01*
X96731328Y-66184690D01*
X96753865Y-66118555D01*
X96798917Y-66079516D01*
X96891610Y-66032287D01*
X96922696Y-66009702D01*
X97057213Y-65911971D01*
X97057215Y-65911968D01*
X97057219Y-65911966D01*
X97201966Y-65767219D01*
X97201968Y-65767215D01*
X97201971Y-65767213D01*
X97291326Y-65644224D01*
X97322287Y-65601610D01*
X97415220Y-65419219D01*
X97478477Y-65224534D01*
X97510500Y-65022352D01*
X97510500Y-64817648D01*
X97502127Y-64764785D01*
X97478477Y-64615465D01*
X97422498Y-64443181D01*
X97415220Y-64420781D01*
X97415218Y-64420778D01*
X97415218Y-64420776D01*
X97379448Y-64350574D01*
X97322287Y-64238390D01*
X97288539Y-64191939D01*
X97201971Y-64072786D01*
X97057213Y-63928028D01*
X96891613Y-63807715D01*
X96891612Y-63807714D01*
X96891610Y-63807713D01*
X96828616Y-63775616D01*
X96709223Y-63714781D01*
X96514534Y-63651522D01*
X96339995Y-63623878D01*
X96312352Y-63619500D01*
X95307648Y-63619500D01*
X95283329Y-63623351D01*
X95105465Y-63651522D01*
X94910776Y-63714781D01*
X94728386Y-63807715D01*
X94562786Y-63928028D01*
X94418028Y-64072786D01*
X94297715Y-64238386D01*
X94204781Y-64420776D01*
X94141522Y-64615465D01*
X94109500Y-64817648D01*
X94109500Y-65022351D01*
X94141522Y-65224534D01*
X94204781Y-65419223D01*
X94256117Y-65519973D01*
X94277381Y-65561707D01*
X94297715Y-65601613D01*
X94418028Y-65767213D01*
X94562786Y-65911971D01*
X94697304Y-66009702D01*
X94728390Y-66032287D01*
X94812980Y-66075388D01*
X94821080Y-66079515D01*
X94871876Y-66127490D01*
X94888671Y-66195311D01*
X94866134Y-66261446D01*
X94821080Y-66300485D01*
X94728386Y-66347715D01*
X94562786Y-66468028D01*
X94418028Y-66612786D01*
X94297715Y-66778386D01*
X94204781Y-66960776D01*
X94141522Y-67155465D01*
X94109500Y-67357647D01*
X94109500Y-67562351D01*
X94141522Y-67764534D01*
X94204781Y-67959223D01*
X94297715Y-68141613D01*
X94418028Y-68307213D01*
X94562786Y-68451971D01*
X94717749Y-68564556D01*
X94728390Y-68572287D01*
X94819840Y-68618883D01*
X94821080Y-68619515D01*
X94871876Y-68667490D01*
X94888671Y-68735311D01*
X94866134Y-68801446D01*
X94821080Y-68840485D01*
X94728386Y-68887715D01*
X94562786Y-69008028D01*
X94418032Y-69152782D01*
X94418028Y-69152787D01*
X94384900Y-69198385D01*
X94329571Y-69241051D01*
X94284582Y-69249500D01*
X91092229Y-69249500D01*
X91025190Y-69229815D01*
X91004548Y-69213181D01*
X89838005Y-68046637D01*
X89804520Y-67985314D01*
X89807754Y-67920640D01*
X89858477Y-67764534D01*
X89890500Y-67562352D01*
X89890500Y-67357648D01*
X89877239Y-67273919D01*
X89858477Y-67155465D01*
X89817020Y-67027876D01*
X89795220Y-66960781D01*
X89795218Y-66960778D01*
X89795218Y-66960776D01*
X89742586Y-66857482D01*
X89702287Y-66778390D01*
X89652236Y-66709500D01*
X89581971Y-66612786D01*
X89437217Y-66468032D01*
X89437212Y-66468028D01*
X89343051Y-66399616D01*
X89300385Y-66344286D01*
X89294406Y-66274673D01*
X89327012Y-66212878D01*
X89376933Y-66181592D01*
X89459117Y-66154359D01*
X89459124Y-66154356D01*
X89608345Y-66062315D01*
X89732315Y-65938345D01*
X89824356Y-65789124D01*
X89824358Y-65789119D01*
X89879505Y-65622697D01*
X89879506Y-65622690D01*
X89889999Y-65519986D01*
X89890000Y-65519973D01*
X89890000Y-65170000D01*
X88505686Y-65170000D01*
X88510080Y-65165606D01*
X88562741Y-65074394D01*
X88590000Y-64972661D01*
X88590000Y-64867339D01*
X88562741Y-64765606D01*
X88510080Y-64674394D01*
X88505686Y-64670000D01*
X89889999Y-64670000D01*
X89889999Y-64320028D01*
X89889998Y-64320013D01*
X89879505Y-64217302D01*
X89824358Y-64050880D01*
X89824356Y-64050875D01*
X89732315Y-63901654D01*
X89608345Y-63777684D01*
X89459124Y-63685643D01*
X89459119Y-63685641D01*
X89292697Y-63630494D01*
X89292690Y-63630493D01*
X89189986Y-63620000D01*
X88440000Y-63620000D01*
X88440000Y-64604314D01*
X88435606Y-64599920D01*
X88344394Y-64547259D01*
X88242661Y-64520000D01*
X88137339Y-64520000D01*
X88035606Y-64547259D01*
X87944394Y-64599920D01*
X87940000Y-64604314D01*
X87940000Y-63620000D01*
X87190028Y-63620000D01*
X87190012Y-63620001D01*
X87087302Y-63630494D01*
X86920880Y-63685641D01*
X86920875Y-63685643D01*
X86771654Y-63777684D01*
X86647684Y-63901654D01*
X86555643Y-64050875D01*
X86555641Y-64050880D01*
X86500494Y-64217302D01*
X86500493Y-64217309D01*
X86490000Y-64320013D01*
X86490000Y-64670000D01*
X87874314Y-64670000D01*
X87869920Y-64674394D01*
X87817259Y-64765606D01*
X87790000Y-64867339D01*
X87790000Y-64972661D01*
X87817259Y-65074394D01*
X87869920Y-65165606D01*
X87874314Y-65170000D01*
X86490001Y-65170000D01*
X86490001Y-65519986D01*
X86500494Y-65622697D01*
X86555641Y-65789119D01*
X86555643Y-65789124D01*
X86647684Y-65938345D01*
X86771654Y-66062315D01*
X86920875Y-66154356D01*
X86920882Y-66154359D01*
X87003067Y-66181592D01*
X87060512Y-66221364D01*
X87087336Y-66285880D01*
X87075021Y-66354656D01*
X87036949Y-66399616D01*
X86942787Y-66468028D01*
X86942782Y-66468032D01*
X86798032Y-66612782D01*
X86798028Y-66612787D01*
X86764900Y-66658385D01*
X86709571Y-66701051D01*
X86664582Y-66709500D01*
X83322230Y-66709500D01*
X83255191Y-66689815D01*
X83234549Y-66673181D01*
X80965914Y-64404545D01*
X80753308Y-64191939D01*
X80727775Y-64174879D01*
X80646501Y-64120574D01*
X80630383Y-64109804D01*
X80630378Y-64109801D01*
X80493805Y-64053231D01*
X80493795Y-64053228D01*
X80348808Y-64024388D01*
X80348806Y-64024388D01*
X79363733Y-64024388D01*
X79296694Y-64004703D01*
X79250939Y-63951899D01*
X79246028Y-63939394D01*
X79239905Y-63920917D01*
X79234814Y-63905554D01*
X79142712Y-63756232D01*
X79018656Y-63632176D01*
X78925888Y-63574957D01*
X78869336Y-63540075D01*
X78869331Y-63540073D01*
X78867862Y-63539586D01*
X78702797Y-63484889D01*
X78702795Y-63484888D01*
X78600010Y-63474388D01*
X77399998Y-63474388D01*
X77399981Y-63474389D01*
X77297203Y-63484888D01*
X77297200Y-63484889D01*
X77130668Y-63540073D01*
X77130663Y-63540075D01*
X76981342Y-63632177D01*
X76857289Y-63756230D01*
X76765187Y-63905551D01*
X76765185Y-63905556D01*
X76749829Y-63951899D01*
X76710001Y-64072091D01*
X76710001Y-64072092D01*
X76710000Y-64072092D01*
X76699500Y-64174871D01*
X74886497Y-64174871D01*
X77234549Y-61826819D01*
X77295872Y-61793334D01*
X77322230Y-61790500D01*
X78533920Y-61790500D01*
X78636046Y-61770185D01*
X78678913Y-61761658D01*
X78815495Y-61705084D01*
X78864729Y-61672186D01*
X78875359Y-61665084D01*
X78889071Y-61655921D01*
X78938416Y-61622952D01*
X82622952Y-57938415D01*
X82650205Y-57897627D01*
X82705084Y-57815495D01*
X82728518Y-57758920D01*
X82761659Y-57678912D01*
X82790500Y-57533917D01*
X82790500Y-57386082D01*
X82790500Y-56894475D01*
X82810185Y-56827437D01*
X82862989Y-56781682D01*
X82890135Y-56774236D01*
X82889932Y-56773376D01*
X82897479Y-56771592D01*
X82897481Y-56771591D01*
X82897483Y-56771591D01*
X83032331Y-56721296D01*
X83147546Y-56635046D01*
X83233796Y-56519831D01*
X83284091Y-56384983D01*
X83290500Y-56325373D01*
X83290499Y-54729628D01*
X83284091Y-54670017D01*
X83272229Y-54638214D01*
X83233797Y-54535171D01*
X83233793Y-54535164D01*
X83147547Y-54419955D01*
X83147544Y-54419952D01*
X83032335Y-54333706D01*
X83032328Y-54333702D01*
X82897482Y-54283408D01*
X82897483Y-54283408D01*
X82837883Y-54277001D01*
X82837881Y-54277000D01*
X82837873Y-54277000D01*
X82837864Y-54277000D01*
X81242129Y-54277000D01*
X81242123Y-54277001D01*
X81182516Y-54283408D01*
X81047671Y-54333702D01*
X81047664Y-54333706D01*
X80932455Y-54419952D01*
X80932452Y-54419955D01*
X80869266Y-54504361D01*
X80813332Y-54546232D01*
X80743641Y-54551216D01*
X80682318Y-54517730D01*
X80670734Y-54504361D01*
X80607547Y-54419955D01*
X80607544Y-54419952D01*
X80492335Y-54333706D01*
X80492326Y-54333701D01*
X80480345Y-54329233D01*
X80424411Y-54287363D01*
X80399993Y-54221899D01*
X80414844Y-54153626D01*
X80435993Y-54125373D01*
X80774548Y-53786819D01*
X80835871Y-53753334D01*
X80862229Y-53750500D01*
X83637770Y-53750500D01*
X83704809Y-53770185D01*
X83725451Y-53786819D01*
X84185681Y-54247049D01*
X84219166Y-54308372D01*
X84222000Y-54334730D01*
X84222000Y-60926082D01*
X84222000Y-61073918D01*
X84222000Y-61073920D01*
X84221999Y-61073920D01*
X84250840Y-61218907D01*
X84250843Y-61218917D01*
X84307412Y-61355488D01*
X84307419Y-61355501D01*
X84389548Y-61478415D01*
X84389551Y-61478419D01*
X84494080Y-61582948D01*
X84494084Y-61582951D01*
X84616998Y-61665080D01*
X84617011Y-61665087D01*
X84753582Y-61721656D01*
X84753587Y-61721658D01*
X84753591Y-61721658D01*
X84753592Y-61721659D01*
X84898579Y-61750500D01*
X84898582Y-61750500D01*
X98247770Y-61750500D01*
X98314809Y-61770185D01*
X98335451Y-61786819D01*
X100415817Y-63867185D01*
X100449302Y-63928508D01*
X100446068Y-63993180D01*
X100438910Y-64015210D01*
X100438910Y-64015211D01*
X100399500Y-64264038D01*
X100399500Y-64515961D01*
X100438910Y-64764785D01*
X100516760Y-65004383D01*
X100552433Y-65074394D01*
X100628933Y-65224534D01*
X100631132Y-65228848D01*
X100779201Y-65432649D01*
X100779205Y-65432654D01*
X100957345Y-65610794D01*
X100957350Y-65610798D01*
X101135117Y-65739952D01*
X101161155Y-65758870D01*
X101267301Y-65812954D01*
X101385616Y-65873239D01*
X101385618Y-65873239D01*
X101385621Y-65873241D01*
X101625215Y-65951090D01*
X101874038Y-65990500D01*
X101874039Y-65990500D01*
X102125961Y-65990500D01*
X102125962Y-65990500D01*
X102374785Y-65951090D01*
X102614379Y-65873241D01*
X102838845Y-65758870D01*
X103042656Y-65610793D01*
X103220793Y-65432656D01*
X103368870Y-65228845D01*
X103483241Y-65004379D01*
X103561090Y-64764785D01*
X103600500Y-64515962D01*
X103600500Y-64264038D01*
X103561090Y-64015215D01*
X103483241Y-63775621D01*
X103483239Y-63775618D01*
X103483239Y-63775616D01*
X103420009Y-63651522D01*
X103368870Y-63551155D01*
X103317991Y-63481126D01*
X103220798Y-63347350D01*
X103220794Y-63347345D01*
X103042654Y-63169205D01*
X103042649Y-63169201D01*
X102838848Y-63021132D01*
X102838847Y-63021131D01*
X102838845Y-63021130D01*
X102768747Y-62985413D01*
X102614383Y-62906760D01*
X102374785Y-62828910D01*
X102125962Y-62789500D01*
X101874038Y-62789500D01*
X101824273Y-62797382D01*
X101625211Y-62828910D01*
X101625210Y-62828910D01*
X101603180Y-62836068D01*
X101533339Y-62838061D01*
X101477185Y-62805817D01*
X99088421Y-60417052D01*
X99088420Y-60417051D01*
X99074594Y-60407813D01*
X98978144Y-60343368D01*
X98965495Y-60334916D01*
X98965490Y-60334913D01*
X98828917Y-60278343D01*
X98828907Y-60278340D01*
X98683920Y-60249500D01*
X98683918Y-60249500D01*
X85847000Y-60249500D01*
X85779961Y-60229815D01*
X85734206Y-60177011D01*
X85723000Y-60125500D01*
X85723000Y-53898580D01*
X85717364Y-53870248D01*
X85710441Y-53835444D01*
X85694159Y-53753588D01*
X85638125Y-53618313D01*
X85637803Y-53617332D01*
X85573826Y-53521583D01*
X85573824Y-53521582D01*
X85555452Y-53494084D01*
X85060183Y-52998815D01*
X84478421Y-52417052D01*
X84478414Y-52417046D01*
X84404729Y-52367812D01*
X84404729Y-52367813D01*
X84355491Y-52334913D01*
X84218917Y-52278343D01*
X84218907Y-52278340D01*
X84073920Y-52249500D01*
X84073918Y-52249500D01*
X80426082Y-52249500D01*
X80426076Y-52249500D01*
X80397242Y-52255234D01*
X80397243Y-52255235D01*
X80281093Y-52278339D01*
X80281083Y-52278342D01*
X80201081Y-52311479D01*
X80201082Y-52311480D01*
X80144505Y-52334915D01*
X80062372Y-52389795D01*
X80021585Y-52417047D01*
X80021581Y-52417050D01*
X78917050Y-53521582D01*
X78917049Y-53521582D01*
X78917048Y-53521584D01*
X78876045Y-53582951D01*
X78834919Y-53644499D01*
X78834912Y-53644511D01*
X78778343Y-53781082D01*
X78778340Y-53781092D01*
X78749500Y-53926079D01*
X78749500Y-54160523D01*
X78729815Y-54227562D01*
X78677011Y-54273317D01*
X78649865Y-54280766D01*
X78650068Y-54281624D01*
X78642520Y-54283407D01*
X78507671Y-54333702D01*
X78507664Y-54333706D01*
X78392455Y-54419952D01*
X78392452Y-54419955D01*
X78329266Y-54504361D01*
X78273332Y-54546232D01*
X78203641Y-54551216D01*
X78142318Y-54517730D01*
X78130734Y-54504361D01*
X78067547Y-54419955D01*
X78067544Y-54419952D01*
X77952335Y-54333706D01*
X77952328Y-54333702D01*
X77817482Y-54283408D01*
X77817483Y-54283408D01*
X77757883Y-54277001D01*
X77757881Y-54277000D01*
X77757873Y-54277000D01*
X77757864Y-54277000D01*
X76162129Y-54277000D01*
X76162123Y-54277001D01*
X76102516Y-54283408D01*
X75967671Y-54333702D01*
X75967664Y-54333706D01*
X75852455Y-54419952D01*
X75852452Y-54419955D01*
X75766206Y-54535164D01*
X75766202Y-54535171D01*
X75715908Y-54670017D01*
X75709501Y-54729616D01*
X75709501Y-54729623D01*
X75709500Y-54729635D01*
X75709500Y-56325370D01*
X75709501Y-56325376D01*
X75715908Y-56384983D01*
X75766202Y-56519828D01*
X75766206Y-56519835D01*
X75852452Y-56635044D01*
X75852455Y-56635047D01*
X75967664Y-56721293D01*
X75967671Y-56721297D01*
X76102517Y-56771591D01*
X76102516Y-56771591D01*
X76109444Y-56772335D01*
X76162127Y-56778000D01*
X77757872Y-56777999D01*
X77817483Y-56771591D01*
X77952331Y-56721296D01*
X78067546Y-56635046D01*
X78130734Y-56550636D01*
X78186667Y-56508767D01*
X78256359Y-56503783D01*
X78317682Y-56537268D01*
X78329260Y-56550630D01*
X78392454Y-56635046D01*
X78430092Y-56663222D01*
X78507664Y-56721293D01*
X78507671Y-56721297D01*
X78642517Y-56771591D01*
X78642516Y-56771591D01*
X78649444Y-56772335D01*
X78702127Y-56778000D01*
X80297872Y-56777999D01*
X80357483Y-56771591D01*
X80492331Y-56721296D01*
X80607546Y-56635046D01*
X80670734Y-56550636D01*
X80726667Y-56508767D01*
X80796359Y-56503783D01*
X80857682Y-56537268D01*
X80869260Y-56550630D01*
X80932454Y-56635046D01*
X80970092Y-56663222D01*
X81047664Y-56721293D01*
X81047671Y-56721297D01*
X81182517Y-56771591D01*
X81183138Y-56771738D01*
X81183147Y-56771737D01*
X81183161Y-56771743D01*
X81190062Y-56773374D01*
X81189737Y-56774746D01*
X81212984Y-56785363D01*
X81243287Y-56797908D01*
X81244603Y-56799803D01*
X81246703Y-56800762D01*
X81264437Y-56828356D01*
X81283147Y-56855293D01*
X81283619Y-56858205D01*
X81284477Y-56859540D01*
X81289500Y-56894475D01*
X81289500Y-57097770D01*
X81269815Y-57164809D01*
X81253181Y-57185451D01*
X78185451Y-60253181D01*
X78124128Y-60286666D01*
X78097770Y-60289500D01*
X76886080Y-60289500D01*
X76741092Y-60318340D01*
X76741086Y-60318342D01*
X76604508Y-60374914D01*
X76604496Y-60374921D01*
X76555269Y-60407813D01*
X76481588Y-60457044D01*
X76481580Y-60457050D01*
X72495451Y-64443181D01*
X72434128Y-64476666D01*
X72407770Y-64479500D01*
X67874499Y-64479500D01*
X67807460Y-64459815D01*
X67761705Y-64407011D01*
X67750499Y-64355500D01*
X67750499Y-63432129D01*
X67750498Y-63432123D01*
X67748808Y-63416403D01*
X67744091Y-63372517D01*
X67734704Y-63347350D01*
X67693797Y-63237671D01*
X67693793Y-63237664D01*
X67607547Y-63122455D01*
X67607544Y-63122452D01*
X67492335Y-63036206D01*
X67492328Y-63036202D01*
X67357482Y-62985908D01*
X67357483Y-62985908D01*
X67297883Y-62979501D01*
X67297881Y-62979500D01*
X67297873Y-62979500D01*
X67297864Y-62979500D01*
X63702129Y-62979500D01*
X63702123Y-62979501D01*
X63642516Y-62985908D01*
X63507671Y-63036202D01*
X63507664Y-63036206D01*
X63392455Y-63122452D01*
X63392452Y-63122455D01*
X63306206Y-63237664D01*
X63306203Y-63237669D01*
X63288573Y-63284939D01*
X63246701Y-63340872D01*
X63181237Y-63365289D01*
X63112964Y-63350437D01*
X63063559Y-63301032D01*
X63048566Y-63235025D01*
X63050499Y-63198650D01*
X63050500Y-63198613D01*
X63050500Y-61261386D01*
X63050498Y-61261347D01*
X63048833Y-61229998D01*
X63047705Y-61208759D01*
X63003245Y-60978874D01*
X62920574Y-60759810D01*
X62802070Y-60557868D01*
X62802065Y-60557861D01*
X62651143Y-60378858D01*
X62651141Y-60378856D01*
X62472138Y-60227934D01*
X62472131Y-60227929D01*
X62270189Y-60109425D01*
X62179832Y-60075326D01*
X62051126Y-60026755D01*
X62051121Y-60026754D01*
X61821243Y-59982295D01*
X61768652Y-59979501D01*
X61768629Y-59979500D01*
X61768622Y-59979500D01*
X59831378Y-59979500D01*
X59831370Y-59979500D01*
X59831347Y-59979501D01*
X59778756Y-59982295D01*
X59778755Y-59982295D01*
X59548878Y-60026754D01*
X59548876Y-60026754D01*
X59548874Y-60026755D01*
X59502656Y-60044197D01*
X59329810Y-60109425D01*
X59127868Y-60227929D01*
X59127861Y-60227934D01*
X58948858Y-60378856D01*
X58948856Y-60378858D01*
X58797934Y-60557861D01*
X58797929Y-60557868D01*
X58679425Y-60759810D01*
X58624659Y-60904933D01*
X58596755Y-60978874D01*
X58596754Y-60978876D01*
X58596754Y-60978878D01*
X58552295Y-61208755D01*
X58552295Y-61208756D01*
X58549501Y-61261347D01*
X58549500Y-61261386D01*
X50500500Y-61261386D01*
X50500500Y-58415803D01*
X63250000Y-58415803D01*
X63250000Y-58980000D01*
X64066988Y-58980000D01*
X64034075Y-59037007D01*
X64000000Y-59164174D01*
X64000000Y-59295826D01*
X64034075Y-59422993D01*
X64066988Y-59480000D01*
X63250001Y-59480000D01*
X63250001Y-60044197D01*
X63260400Y-60176332D01*
X63315377Y-60394519D01*
X63408428Y-60599374D01*
X63408431Y-60599380D01*
X63536559Y-60784323D01*
X63536569Y-60784335D01*
X63695664Y-60943430D01*
X63695676Y-60943440D01*
X63880619Y-61071568D01*
X63880625Y-61071571D01*
X64085480Y-61164622D01*
X64303667Y-61219599D01*
X64435810Y-61229999D01*
X65249999Y-61229999D01*
X65250000Y-61229998D01*
X65250000Y-59730000D01*
X65750000Y-59730000D01*
X65750000Y-61229999D01*
X66564182Y-61229999D01*
X66564197Y-61229998D01*
X66696332Y-61219599D01*
X66914519Y-61164622D01*
X67119374Y-61071571D01*
X67119380Y-61071568D01*
X67304323Y-60943440D01*
X67304335Y-60943430D01*
X67463430Y-60784335D01*
X67463440Y-60784323D01*
X67591568Y-60599380D01*
X67591571Y-60599374D01*
X67684622Y-60394519D01*
X67739599Y-60176332D01*
X67749999Y-60044196D01*
X67750000Y-60044184D01*
X67750000Y-59480000D01*
X66933012Y-59480000D01*
X66965925Y-59422993D01*
X67000000Y-59295826D01*
X67000000Y-59164174D01*
X66965925Y-59037007D01*
X66933012Y-58980000D01*
X67749999Y-58980000D01*
X67749999Y-58415817D01*
X67749998Y-58415802D01*
X67739599Y-58283667D01*
X67684622Y-58065480D01*
X67591571Y-57860625D01*
X67591568Y-57860619D01*
X67463440Y-57675676D01*
X67463430Y-57675664D01*
X67304335Y-57516569D01*
X67304323Y-57516559D01*
X67119380Y-57388431D01*
X67119374Y-57388428D01*
X66914519Y-57295377D01*
X66696332Y-57240400D01*
X66564196Y-57230000D01*
X65750000Y-57230000D01*
X65750000Y-58730000D01*
X65250000Y-58730000D01*
X65250000Y-57230000D01*
X64435817Y-57230000D01*
X64435802Y-57230001D01*
X64303667Y-57240400D01*
X64085480Y-57295377D01*
X63880625Y-57388428D01*
X63880619Y-57388431D01*
X63695676Y-57516559D01*
X63695664Y-57516569D01*
X63536569Y-57675664D01*
X63536559Y-57675676D01*
X63408431Y-57860619D01*
X63408428Y-57860625D01*
X63315377Y-58065480D01*
X63260400Y-58283667D01*
X63250000Y-58415803D01*
X50500500Y-58415803D01*
X50500500Y-55002706D01*
X50500618Y-54997297D01*
X50505796Y-54878711D01*
X53149500Y-54878711D01*
X53149500Y-55121288D01*
X53181161Y-55361785D01*
X53243947Y-55596104D01*
X53313829Y-55764814D01*
X53336776Y-55820212D01*
X53458064Y-56030289D01*
X53458066Y-56030292D01*
X53458067Y-56030293D01*
X53605733Y-56222736D01*
X53605739Y-56222743D01*
X53777256Y-56394260D01*
X53777263Y-56394266D01*
X53890321Y-56481018D01*
X53969711Y-56541936D01*
X54179788Y-56663224D01*
X54403900Y-56756054D01*
X54638211Y-56818838D01*
X54818586Y-56842584D01*
X54878711Y-56850500D01*
X54878712Y-56850500D01*
X55121289Y-56850500D01*
X55169388Y-56844167D01*
X55361789Y-56818838D01*
X55596100Y-56756054D01*
X55820212Y-56663224D01*
X56030289Y-56541936D01*
X56222738Y-56394265D01*
X56394265Y-56222738D01*
X56541936Y-56030289D01*
X56663224Y-55820212D01*
X56756054Y-55596100D01*
X56818838Y-55361789D01*
X56850500Y-55121288D01*
X56850500Y-54878712D01*
X56849253Y-54869243D01*
X56836074Y-54769132D01*
X56818838Y-54638211D01*
X56756054Y-54403900D01*
X56663224Y-54179788D01*
X56541936Y-53969711D01*
X56407707Y-53794780D01*
X56394266Y-53777263D01*
X56394260Y-53777256D01*
X56222743Y-53605739D01*
X56222736Y-53605733D01*
X56030293Y-53458067D01*
X56030292Y-53458066D01*
X56030289Y-53458064D01*
X55820212Y-53336776D01*
X55820205Y-53336773D01*
X55596104Y-53243947D01*
X55361785Y-53181161D01*
X55121289Y-53149500D01*
X55121288Y-53149500D01*
X54878712Y-53149500D01*
X54878711Y-53149500D01*
X54638214Y-53181161D01*
X54403895Y-53243947D01*
X54179794Y-53336773D01*
X54179785Y-53336777D01*
X53969706Y-53458067D01*
X53777263Y-53605733D01*
X53777256Y-53605739D01*
X53605739Y-53777256D01*
X53605733Y-53777263D01*
X53458067Y-53969706D01*
X53336777Y-54179785D01*
X53336773Y-54179794D01*
X53243947Y-54403895D01*
X53181161Y-54638214D01*
X53149500Y-54878711D01*
X50505796Y-54878711D01*
X50506209Y-54869244D01*
X50506209Y-54869243D01*
X50511223Y-54754394D01*
X50517386Y-54613226D01*
X50518325Y-54602496D01*
X50568151Y-54224032D01*
X50570024Y-54213402D01*
X50652648Y-53840714D01*
X50655446Y-53830276D01*
X50770230Y-53466227D01*
X50773917Y-53456095D01*
X50920003Y-53103412D01*
X50924561Y-53093638D01*
X51100822Y-52755045D01*
X51106217Y-52745700D01*
X51311325Y-52423744D01*
X51317515Y-52414905D01*
X51549896Y-52112060D01*
X51556834Y-52103791D01*
X51814726Y-51822352D01*
X51822352Y-51814726D01*
X52103791Y-51556834D01*
X52112060Y-51549896D01*
X52414905Y-51317515D01*
X52423744Y-51311325D01*
X52745700Y-51106217D01*
X52755045Y-51100822D01*
X53093638Y-50924561D01*
X53103412Y-50920003D01*
X53456095Y-50773917D01*
X53466227Y-50770230D01*
X53830285Y-50655443D01*
X53840714Y-50652648D01*
X54213402Y-50570024D01*
X54224032Y-50568151D01*
X54602496Y-50518325D01*
X54613224Y-50517387D01*
X54997297Y-50500617D01*
X55002706Y-50500500D01*
X55065892Y-50500500D01*
X134934108Y-50500500D01*
X134997294Y-50500500D01*
X135002702Y-50500617D01*
G37*
%TD.AperFunction*%
%TD*%
M02*
