%TF.GenerationSoftware,KiCad,Pcbnew,10.0.1*%
%TF.CreationDate,2026-06-06T16:23:10-04:00*%
%TF.ProjectId,relov0,72656c6f-7630-42e6-9b69-6361645f7063,rev?*%
%TF.SameCoordinates,Original*%
%TF.FileFunction,Copper,L2,Bot*%
%TF.FilePolarity,Positive*%
%FSLAX46Y46*%
G04 Gerber Fmt 4.6, Leading zero omitted, Abs format (unit mm)*
G04 Created by KiCad (PCBNEW 10.0.1) date 2026-06-06 16:23:10*
%MOMM*%
%LPD*%
G01*
G04 APERTURE LIST*
G04 Aperture macros list*
%AMRoundRect*
0 Rectangle with rounded corners*
0 $1 Rounding radius*
0 $2 $3 $4 $5 $6 $7 $8 $9 X,Y pos of 4 corners*
0 Add a 4 corners polygon primitive as box body*
4,1,4,$2,$3,$4,$5,$6,$7,$8,$9,$2,$3,0*
0 Add four circle primitives for the rounded corners*
1,1,$1+$1,$2,$3*
1,1,$1+$1,$4,$5*
1,1,$1+$1,$6,$7*
1,1,$1+$1,$8,$9*
0 Add four rect primitives between the rounded corners*
20,1,$1+$1,$2,$3,$4,$5,0*
20,1,$1+$1,$4,$5,$6,$7,0*
20,1,$1+$1,$6,$7,$8,$9,0*
20,1,$1+$1,$8,$9,$2,$3,0*%
G04 Aperture macros list end*
%TA.AperFunction,ComponentPad*%
%ADD10R,1.500000X1.500000*%
%TD*%
%TA.AperFunction,ComponentPad*%
%ADD11R,1.905000X2.000000*%
%TD*%
%TA.AperFunction,ComponentPad*%
%ADD12O,1.905000X2.000000*%
%TD*%
%TA.AperFunction,ComponentPad*%
%ADD13RoundRect,0.250000X-0.550000X0.550000X-0.550000X-0.550000X0.550000X-0.550000X0.550000X0.550000X0*%
%TD*%
%TA.AperFunction,ComponentPad*%
%ADD14C,1.600000*%
%TD*%
%TA.AperFunction,ComponentPad*%
%ADD15R,1.700000X1.700000*%
%TD*%
%TA.AperFunction,ComponentPad*%
%ADD16C,1.700000*%
%TD*%
%TA.AperFunction,ComponentPad*%
%ADD17RoundRect,0.250000X-0.350000X0.350000X-0.350000X-0.350000X0.350000X-0.350000X0.350000X0.350000X0*%
%TD*%
%TA.AperFunction,ComponentPad*%
%ADD18C,1.200000*%
%TD*%
%TA.AperFunction,ComponentPad*%
%ADD19R,1.800000X1.800000*%
%TD*%
%TA.AperFunction,ComponentPad*%
%ADD20C,1.800000*%
%TD*%
%TA.AperFunction,ComponentPad*%
%ADD21R,3.000000X3.000000*%
%TD*%
%TA.AperFunction,ComponentPad*%
%ADD22C,3.000000*%
%TD*%
%TA.AperFunction,ComponentPad*%
%ADD23R,3.500000X3.500000*%
%TD*%
%TA.AperFunction,ComponentPad*%
%ADD24RoundRect,0.750000X-1.000000X0.750000X-1.000000X-0.750000X1.000000X-0.750000X1.000000X0.750000X0*%
%TD*%
%TA.AperFunction,ComponentPad*%
%ADD25RoundRect,0.875000X-0.875000X0.875000X-0.875000X-0.875000X0.875000X-0.875000X0.875000X0.875000X0*%
%TD*%
%TA.AperFunction,ComponentPad*%
%ADD26RoundRect,0.249999X-0.850001X0.850001X-0.850001X-0.850001X0.850001X-0.850001X0.850001X0.850001X0*%
%TD*%
%TA.AperFunction,ComponentPad*%
%ADD27C,2.200000*%
%TD*%
%TA.AperFunction,ComponentPad*%
%ADD28RoundRect,0.250000X-0.950000X-0.550000X0.950000X-0.550000X0.950000X0.550000X-0.950000X0.550000X0*%
%TD*%
%TA.AperFunction,ComponentPad*%
%ADD29O,2.400000X1.600000*%
%TD*%
%TA.AperFunction,ViaPad*%
%ADD30C,0.600000*%
%TD*%
%TA.AperFunction,Conductor*%
%ADD31C,0.500000*%
%TD*%
G04 APERTURE END LIST*
D10*
%TO.P,SW1,1,A_1*%
%TO.N,Net-(SW1-A)*%
X82040000Y-55527500D03*
%TO.P,SW1,2,B_2*%
%TO.N,Net-(D1-A)*%
X79500000Y-55527500D03*
%TO.P,SW1,3,C_3*%
%TO.N,unconnected-(SW1-C-Pad3)*%
X76960000Y-55527500D03*
%TD*%
D11*
%TO.P,U2,1,IN_1*%
%TO.N,+12V*%
X62270000Y-95230000D03*
D12*
%TO.P,U2,2,GND_2*%
%TO.N,GND*%
X64810000Y-95230000D03*
%TO.P,U2,3,OUT_3*%
%TO.N,+5V*%
X67350000Y-95230000D03*
%TD*%
D13*
%TO.P,C5,1*%
%TO.N,Net-(U1-OUT)*%
X124000000Y-72044888D03*
D14*
%TO.P,C5,2*%
%TO.N,Net-(C5-Pad2)*%
X124000000Y-74044888D03*
%TD*%
D15*
%TO.P,J4,1,Pin_1_1*%
%TO.N,GND*%
X138000000Y-70500000D03*
D16*
%TO.P,J4,2,Pin_2_2*%
%TO.N,+5V*%
X138000000Y-73040000D03*
%TO.P,J4,3,Pin_3_3*%
%TO.N,+12V*%
X138000000Y-75580000D03*
%TD*%
D17*
%TO.P,C4,1*%
%TO.N,+5V*%
X77810000Y-83500000D03*
D18*
%TO.P,C4,2*%
%TO.N,GND*%
X77810000Y-85500000D03*
%TD*%
D19*
%TO.P,D2,1,K_1*%
%TO.N,GND*%
X127000000Y-82000000D03*
D20*
%TO.P,D2,2,A_2*%
%TO.N,Net-(D2-A)*%
X127000000Y-79460000D03*
%TD*%
D14*
%TO.P,R1,1*%
%TO.N,Net-(U1-DISCH)*%
X108600591Y-80460000D03*
%TO.P,R1,2*%
%TO.N,+5V*%
X117399409Y-85540000D03*
%TD*%
D21*
%TO.P,RV1,1,1_1*%
%TO.N,unconnected-(RV1-Pad1)*%
X77500000Y-95500000D03*
D22*
%TO.P,RV1,2,2_2*%
%TO.N,Net-(U1-DISCH)*%
X82500000Y-95500000D03*
%TO.P,RV1,3,3_3*%
%TO.N,Net-(R2-Pad2)*%
X87500000Y-95500000D03*
%TD*%
D14*
%TO.P,R3,1*%
%TO.N,Net-(U1-OUT)*%
X95000000Y-88500000D03*
%TO.P,R3,2*%
%TO.N,Net-(D2-A)*%
X103798818Y-93580000D03*
%TD*%
D23*
%TO.P,J1,1*%
%TO.N,Net-(SW1-A)*%
X65500000Y-65230000D03*
D24*
%TO.P,J1,2*%
%TO.N,GND*%
X65500000Y-59230000D03*
D25*
%TO.P,J1,3*%
%TO.N,unconnected-(J1-Pad3)*%
X60800000Y-62230000D03*
%TD*%
D14*
%TO.P,R2,1*%
%TO.N,Net-(U1-THRES)*%
X99600591Y-81960000D03*
%TO.P,R2,2*%
%TO.N,Net-(R2-Pad2)*%
X108399409Y-87040000D03*
%TD*%
%TO.P,C6,1*%
%TO.N,+5V*%
X112500000Y-55000000D03*
%TO.P,C6,2*%
%TO.N,GND*%
X115000000Y-55000000D03*
%TD*%
D26*
%TO.P,D1,1,K_1*%
%TO.N,+12V*%
X102000000Y-54230000D03*
D27*
%TO.P,D1,2,A_2*%
%TO.N,Net-(D1-A)*%
X102000000Y-64390000D03*
%TD*%
D23*
%TO.P,J2,1*%
%TO.N,Net-(SW1-A)*%
X125457500Y-65000000D03*
D24*
%TO.P,J2,2*%
%TO.N,GND*%
X125457500Y-59000000D03*
D25*
%TO.P,J2,3*%
%TO.N,unconnected-(J2-Pad3)*%
X120757500Y-62000000D03*
%TD*%
D20*
%TO.P,J3,1*%
%TO.N,GND*%
X126000000Y-97480000D03*
%TO.P,J3,2*%
%TO.N,unconnected-(J3-Pad2)*%
X126000000Y-86080000D03*
%TO.P,J3,3*%
%TO.N,Net-(C5-Pad2)*%
X126000000Y-94380000D03*
%TD*%
D13*
%TO.P,C2,1*%
%TO.N,+12V*%
X78000000Y-73927349D03*
D14*
%TO.P,C2,2*%
%TO.N,GND*%
X78000000Y-77727349D03*
%TD*%
D13*
%TO.P,C1,1*%
%TO.N,Net-(U1-THRES)*%
X78000000Y-64774888D03*
D14*
%TO.P,C1,2*%
%TO.N,GND*%
X78000000Y-66774888D03*
%TD*%
D28*
%TO.P,U1,1,GND_1*%
%TO.N,GND*%
X88190000Y-64920000D03*
D29*
%TO.P,U1,2,TRIG_2*%
%TO.N,Net-(U1-THRES)*%
X88190000Y-67460000D03*
%TO.P,U1,3,OUT_3*%
%TO.N,Net-(U1-OUT)*%
X88190000Y-70000000D03*
%TO.P,U1,4,~{RST}_4*%
%TO.N,+5V*%
X88190000Y-72540000D03*
%TO.P,U1,5,CONT_5*%
%TO.N,Net-(U1-CONT)*%
X95810000Y-72540000D03*
%TO.P,U1,6,THRES_6*%
%TO.N,Net-(U1-THRES)*%
X95810000Y-70000000D03*
%TO.P,U1,7,DISCH_7*%
%TO.N,Net-(U1-DISCH)*%
X95810000Y-67460000D03*
%TO.P,U1,8,VCC_8*%
%TO.N,+5V*%
X95810000Y-64920000D03*
%TD*%
D19*
%TO.P,D3,1,K_1*%
%TO.N,Net-(D3-K)*%
X90730000Y-56230000D03*
D20*
%TO.P,D3,2,A_2*%
%TO.N,+5V*%
X93270000Y-56230000D03*
%TD*%
D14*
%TO.P,C3,1*%
%TO.N,GND*%
X90310000Y-81500000D03*
%TO.P,C3,2*%
%TO.N,Net-(U1-CONT)*%
X92810000Y-81500000D03*
%TD*%
%TO.P,R4,1*%
%TO.N,Net-(D3-K)*%
X109000000Y-93000000D03*
%TO.P,R4,2*%
%TO.N,GND*%
X117798818Y-98080000D03*
%TD*%
D30*
%TO.N,Net-(U1-OUT)*%
X114500000Y-78500000D03*
X109500000Y-83500000D03*
%TD*%
%TO.N,Net-(SW1-A)*%
D31*
X99000000Y-52500000D02*
X100000000Y-51500000D01*
X88000000Y-52500000D02*
X99000000Y-52500000D01*
X82040000Y-55527500D02*
X84972500Y-55527500D01*
X100000000Y-51500000D02*
X104457500Y-51500000D01*
X84972500Y-55527500D02*
X88000000Y-52500000D01*
X104457500Y-51500000D02*
X117957500Y-65000000D01*
X117957500Y-65000000D02*
X125457500Y-65000000D01*
%TO.N,Net-(U1-OUT)*%
X109500000Y-83500000D02*
X114500000Y-78500000D01*
%TO.N,+12V*%
X83000000Y-70000000D02*
X79072651Y-73927349D01*
X90030000Y-54230000D02*
X83000000Y-61260000D01*
X102000000Y-54230000D02*
X90030000Y-54230000D01*
X83000000Y-61260000D02*
X83000000Y-70000000D01*
X79072651Y-73927349D02*
X78000000Y-73927349D01*
%TO.N,+5V*%
X81000000Y-83500000D02*
X88190000Y-76310000D01*
X77810000Y-83500000D02*
X81000000Y-83500000D01*
X126439409Y-76500000D02*
X117399409Y-85540000D01*
X93270000Y-67460000D02*
X93270000Y-62380000D01*
X88190000Y-72540000D02*
X93270000Y-67460000D01*
X93270000Y-62380000D02*
X95810000Y-64920000D01*
X138000000Y-73040000D02*
X134540000Y-76500000D01*
X93270000Y-56230000D02*
X93270000Y-62380000D01*
X88190000Y-76310000D02*
X88190000Y-72540000D01*
X134540000Y-76500000D02*
X126439409Y-76500000D01*
%TO.N,Net-(SW1-A)*%
X81500000Y-55527500D02*
X81500000Y-56027500D01*
%TO.N,Net-(D2-A)*%
X127000000Y-79460000D02*
X115960000Y-90500000D01*
X106878818Y-90500000D02*
X103798818Y-93580000D01*
X115960000Y-90500000D02*
X106878818Y-90500000D01*
%TO.N,Net-(U1-DISCH)*%
X95810000Y-67460000D02*
X104750000Y-76400000D01*
X106540000Y-80460000D02*
X108600591Y-80460000D01*
X82500000Y-95500000D02*
X92000000Y-86000000D01*
X104750000Y-76400000D02*
X104750000Y-82250000D01*
X92000000Y-86000000D02*
X101000000Y-86000000D01*
X104750000Y-82250000D02*
X106540000Y-80460000D01*
X101000000Y-86000000D02*
X104750000Y-82250000D01*
%TO.N,Net-(U1-THRES)*%
X99600591Y-73790591D02*
X99600591Y-81960000D01*
X95810000Y-70000000D02*
X99600591Y-73790591D01*
%TD*%
%TA.AperFunction,Conductor*%
%TO.N,GND*%
G36*
X135002702Y-50500617D02*
G01*
X135386773Y-50517386D01*
X135397505Y-50518326D01*
X135775963Y-50568150D01*
X135786601Y-50570025D01*
X136159279Y-50652647D01*
X136169720Y-50655445D01*
X136533765Y-50770227D01*
X136543911Y-50773920D01*
X136896578Y-50920000D01*
X136906369Y-50924566D01*
X137244942Y-51100816D01*
X137254310Y-51106224D01*
X137576244Y-51311318D01*
X137585105Y-51317523D01*
X137887930Y-51549889D01*
X137896217Y-51556843D01*
X138177635Y-51814715D01*
X138185284Y-51822364D01*
X138443156Y-52103782D01*
X138450110Y-52112069D01*
X138682476Y-52414894D01*
X138688681Y-52423755D01*
X138893775Y-52745689D01*
X138899183Y-52755057D01*
X139075430Y-53093623D01*
X139080002Y-53103427D01*
X139226075Y-53456078D01*
X139229775Y-53466244D01*
X139344553Y-53830276D01*
X139347353Y-53840724D01*
X139429972Y-54213390D01*
X139431850Y-54224044D01*
X139468283Y-54500781D01*
X139481345Y-54600000D01*
X139481671Y-54602472D01*
X139482614Y-54613248D01*
X139499382Y-54997297D01*
X139499500Y-55002706D01*
X139499500Y-69310730D01*
X139479815Y-69377769D01*
X139427011Y-69423524D01*
X139357853Y-69433468D01*
X139294297Y-69404443D01*
X139276234Y-69385042D01*
X139207187Y-69292809D01*
X139092093Y-69206649D01*
X139092086Y-69206645D01*
X138957379Y-69156403D01*
X138957372Y-69156401D01*
X138897844Y-69150000D01*
X138250000Y-69150000D01*
X138250000Y-70066988D01*
X138192993Y-70034075D01*
X138065826Y-70000000D01*
X137934174Y-70000000D01*
X137807007Y-70034075D01*
X137750000Y-70066988D01*
X137750000Y-69150000D01*
X137102155Y-69150000D01*
X137042627Y-69156401D01*
X137042620Y-69156403D01*
X136907913Y-69206645D01*
X136907906Y-69206649D01*
X136792812Y-69292809D01*
X136792809Y-69292812D01*
X136706649Y-69407906D01*
X136706645Y-69407913D01*
X136656403Y-69542620D01*
X136656401Y-69542627D01*
X136650000Y-69602155D01*
X136650000Y-70250000D01*
X137566988Y-70250000D01*
X137534075Y-70307007D01*
X137500000Y-70434174D01*
X137500000Y-70565826D01*
X137534075Y-70692993D01*
X137566988Y-70750000D01*
X136650000Y-70750000D01*
X136650000Y-71397844D01*
X136656401Y-71457372D01*
X136656403Y-71457379D01*
X136706645Y-71592086D01*
X136706649Y-71592093D01*
X136792809Y-71707187D01*
X136792812Y-71707190D01*
X136907906Y-71793350D01*
X136907913Y-71793354D01*
X137039470Y-71842422D01*
X137095404Y-71884293D01*
X137119821Y-71949758D01*
X137104969Y-72018031D01*
X137083819Y-72046285D01*
X136969889Y-72160215D01*
X136844951Y-72332179D01*
X136748444Y-72521585D01*
X136682753Y-72723760D01*
X136649500Y-72933713D01*
X136649500Y-73146291D01*
X136664616Y-73241726D01*
X136655662Y-73311020D01*
X136629824Y-73348806D01*
X134265451Y-75713181D01*
X134204128Y-75746666D01*
X134177770Y-75749500D01*
X126365485Y-75749500D01*
X126336651Y-75755234D01*
X126336652Y-75755235D01*
X126220502Y-75778339D01*
X126220492Y-75778342D01*
X126140490Y-75811479D01*
X126140491Y-75811480D01*
X126083915Y-75834915D01*
X126028661Y-75871835D01*
X125960991Y-75917049D01*
X117664514Y-84213526D01*
X117603191Y-84247011D01*
X117557435Y-84248318D01*
X117501761Y-84239500D01*
X117297057Y-84239500D01*
X117272738Y-84243351D01*
X117094874Y-84271522D01*
X116900185Y-84334781D01*
X116717795Y-84427715D01*
X116552195Y-84548028D01*
X116407437Y-84692786D01*
X116287124Y-84858386D01*
X116194190Y-85040776D01*
X116130931Y-85235465D01*
X116098909Y-85437648D01*
X116098909Y-85642351D01*
X116130931Y-85844534D01*
X116194190Y-86039223D01*
X116258100Y-86164653D01*
X116272435Y-86192786D01*
X116287124Y-86221613D01*
X116407437Y-86387213D01*
X116552195Y-86531971D01*
X116670064Y-86617606D01*
X116717799Y-86652287D01*
X116834016Y-86711503D01*
X116900185Y-86745218D01*
X116900187Y-86745218D01*
X116900190Y-86745220D01*
X117004546Y-86779127D01*
X117094874Y-86808477D01*
X117195966Y-86824488D01*
X117297057Y-86840500D01*
X117297058Y-86840500D01*
X117501760Y-86840500D01*
X117501761Y-86840500D01*
X117703943Y-86808477D01*
X117898628Y-86745220D01*
X118081019Y-86652287D01*
X118176451Y-86582952D01*
X118246622Y-86531971D01*
X118246624Y-86531968D01*
X118246628Y-86531966D01*
X118391375Y-86387219D01*
X118391377Y-86387215D01*
X118391380Y-86387213D01*
X118444141Y-86314590D01*
X118511696Y-86221610D01*
X118604629Y-86039219D01*
X118667886Y-85844534D01*
X118699909Y-85642352D01*
X118699909Y-85437648D01*
X118691090Y-85381971D01*
X118700044Y-85312679D01*
X118725879Y-85274895D01*
X126713957Y-77286819D01*
X126775280Y-77253334D01*
X126801638Y-77250500D01*
X134613920Y-77250500D01*
X134711462Y-77231096D01*
X134758913Y-77221658D01*
X134895495Y-77165084D01*
X134960487Y-77121658D01*
X134960487Y-77121657D01*
X134960489Y-77121657D01*
X134989451Y-77102305D01*
X135018416Y-77082952D01*
X136445366Y-75656000D01*
X136506687Y-75622517D01*
X136576378Y-75627501D01*
X136632312Y-75669372D01*
X136655518Y-75724285D01*
X136673040Y-75834916D01*
X136682754Y-75896243D01*
X136734075Y-76054193D01*
X136748444Y-76098414D01*
X136844951Y-76287820D01*
X136969890Y-76459786D01*
X137120213Y-76610109D01*
X137292179Y-76735048D01*
X137292181Y-76735049D01*
X137292184Y-76735051D01*
X137481588Y-76831557D01*
X137683757Y-76897246D01*
X137893713Y-76930500D01*
X137893714Y-76930500D01*
X138106286Y-76930500D01*
X138106287Y-76930500D01*
X138316243Y-76897246D01*
X138518412Y-76831557D01*
X138707816Y-76735051D01*
X138803550Y-76665497D01*
X138879786Y-76610109D01*
X138879788Y-76610106D01*
X138879792Y-76610104D01*
X139030104Y-76459792D01*
X139030106Y-76459788D01*
X139030109Y-76459786D01*
X139155048Y-76287820D01*
X139155047Y-76287820D01*
X139155051Y-76287816D01*
X139251557Y-76098412D01*
X139257569Y-76079907D01*
X139297006Y-76022232D01*
X139361365Y-75995034D01*
X139430211Y-76006949D01*
X139481687Y-76054193D01*
X139499500Y-76118226D01*
X139499500Y-94997293D01*
X139499382Y-95002702D01*
X139482614Y-95386751D01*
X139481671Y-95397527D01*
X139431850Y-95775955D01*
X139429972Y-95786609D01*
X139347353Y-96159275D01*
X139344553Y-96169723D01*
X139229775Y-96533755D01*
X139226075Y-96543921D01*
X139080002Y-96896572D01*
X139075430Y-96906376D01*
X138899183Y-97244942D01*
X138893775Y-97254310D01*
X138688681Y-97576244D01*
X138682476Y-97585105D01*
X138450110Y-97887930D01*
X138443156Y-97896217D01*
X138185284Y-98177635D01*
X138177635Y-98185284D01*
X137896217Y-98443156D01*
X137887930Y-98450110D01*
X137585105Y-98682476D01*
X137576244Y-98688681D01*
X137254310Y-98893775D01*
X137244942Y-98899183D01*
X136906376Y-99075430D01*
X136896572Y-99080002D01*
X136543921Y-99226075D01*
X136533755Y-99229775D01*
X136169723Y-99344553D01*
X136159275Y-99347353D01*
X135786609Y-99429972D01*
X135775955Y-99431850D01*
X135397527Y-99481671D01*
X135386751Y-99482614D01*
X135002703Y-99499382D01*
X134997294Y-99499500D01*
X118392886Y-99499500D01*
X118325847Y-99479815D01*
X118280092Y-99427011D01*
X118270148Y-99357853D01*
X118299173Y-99294297D01*
X118336591Y-99265015D01*
X118480167Y-99191859D01*
X118645712Y-99071582D01*
X118645713Y-99071582D01*
X118790400Y-98926895D01*
X118790400Y-98926894D01*
X118910677Y-98761349D01*
X119003572Y-98579031D01*
X119014472Y-98545488D01*
X119066808Y-98384417D01*
X119098818Y-98182317D01*
X119098818Y-97990484D01*
X119098817Y-97990484D01*
X118168451Y-98239776D01*
X118171559Y-98234394D01*
X118198818Y-98132661D01*
X118198818Y-98027339D01*
X118171559Y-97925606D01*
X118118898Y-97834394D01*
X118044424Y-97759920D01*
X118039040Y-97756811D01*
X118966540Y-97508290D01*
X118966540Y-97508289D01*
X118922187Y-97421241D01*
X118922186Y-97421239D01*
X118910676Y-97398648D01*
X118910674Y-97398646D01*
X118889729Y-97369818D01*
X124600000Y-97369818D01*
X124600000Y-97590181D01*
X124634473Y-97807835D01*
X124702567Y-98017410D01*
X124802611Y-98213756D01*
X124848932Y-98277513D01*
X125284152Y-97842292D01*
X125291049Y-97858942D01*
X125378599Y-97989970D01*
X125490030Y-98101401D01*
X125621058Y-98188951D01*
X125637705Y-98195846D01*
X125202485Y-98631065D01*
X125202485Y-98631066D01*
X125266243Y-98677388D01*
X125462589Y-98777432D01*
X125672164Y-98845526D01*
X125889819Y-98880000D01*
X126110181Y-98880000D01*
X126327835Y-98845526D01*
X126537410Y-98777432D01*
X126733760Y-98677386D01*
X126797513Y-98631066D01*
X126797514Y-98631066D01*
X126362294Y-98195846D01*
X126378942Y-98188951D01*
X126509970Y-98101401D01*
X126621401Y-97989970D01*
X126708951Y-97858942D01*
X126715846Y-97842294D01*
X127151066Y-98277514D01*
X127151066Y-98277513D01*
X127197386Y-98213760D01*
X127297432Y-98017410D01*
X127365526Y-97807835D01*
X127400000Y-97590181D01*
X127400000Y-97369818D01*
X127365526Y-97152164D01*
X127297432Y-96942589D01*
X127197388Y-96746243D01*
X127151066Y-96682485D01*
X127151065Y-96682485D01*
X126715846Y-97117704D01*
X126708951Y-97101058D01*
X126621401Y-96970030D01*
X126509970Y-96858599D01*
X126378942Y-96771049D01*
X126362292Y-96764152D01*
X126797513Y-96328932D01*
X126733756Y-96282611D01*
X126537410Y-96182567D01*
X126327835Y-96114473D01*
X126110181Y-96080000D01*
X125889819Y-96080000D01*
X125672164Y-96114473D01*
X125462589Y-96182567D01*
X125266233Y-96282616D01*
X125202485Y-96328931D01*
X125202485Y-96328932D01*
X125637706Y-96764153D01*
X125621058Y-96771049D01*
X125490030Y-96858599D01*
X125378599Y-96970030D01*
X125291049Y-97101058D01*
X125284153Y-97117706D01*
X124848932Y-96682485D01*
X124848931Y-96682485D01*
X124802616Y-96746233D01*
X124702567Y-96942589D01*
X124634473Y-97152164D01*
X124600000Y-97369818D01*
X118889729Y-97369818D01*
X118790400Y-97233105D01*
X118790400Y-97233104D01*
X118645713Y-97088417D01*
X118480167Y-96968140D01*
X118297849Y-96875244D01*
X118103235Y-96812009D01*
X117901135Y-96780000D01*
X117709303Y-96780000D01*
X117958593Y-97710366D01*
X117953212Y-97707259D01*
X117851479Y-97680000D01*
X117746157Y-97680000D01*
X117644424Y-97707259D01*
X117553212Y-97759920D01*
X117478738Y-97834394D01*
X117475630Y-97839777D01*
X117227108Y-96912276D01*
X117227107Y-96912276D01*
X117117468Y-96968140D01*
X116951923Y-97088417D01*
X116951922Y-97088417D01*
X116807235Y-97233104D01*
X116807235Y-97233105D01*
X116686958Y-97398650D01*
X116594062Y-97580968D01*
X116530827Y-97775582D01*
X116498818Y-97977682D01*
X116498818Y-98169514D01*
X117429185Y-97920221D01*
X117426077Y-97925606D01*
X117398818Y-98027339D01*
X117398818Y-98132661D01*
X117426077Y-98234394D01*
X117478738Y-98325606D01*
X117553212Y-98400080D01*
X117558593Y-98403186D01*
X116631094Y-98651708D01*
X116631094Y-98651710D01*
X116686956Y-98761347D01*
X116807235Y-98926894D01*
X116807235Y-98926895D01*
X116951922Y-99071582D01*
X117117468Y-99191859D01*
X117261045Y-99265015D01*
X117311841Y-99312989D01*
X117328636Y-99380810D01*
X117306099Y-99446945D01*
X117251384Y-99490397D01*
X117204750Y-99499500D01*
X55002706Y-99499500D01*
X54997297Y-99499382D01*
X54791507Y-99490397D01*
X54613247Y-99482613D01*
X54602474Y-99481671D01*
X54540007Y-99473447D01*
X54224044Y-99431850D01*
X54213390Y-99429972D01*
X53840724Y-99347353D01*
X53830276Y-99344553D01*
X53466244Y-99229775D01*
X53456078Y-99226075D01*
X53103427Y-99080002D01*
X53093623Y-99075430D01*
X52755057Y-98899183D01*
X52745689Y-98893775D01*
X52423755Y-98688681D01*
X52414894Y-98682476D01*
X52112069Y-98450110D01*
X52103782Y-98443156D01*
X51822364Y-98185284D01*
X51814715Y-98177635D01*
X51703797Y-98056589D01*
X51556843Y-97896217D01*
X51549889Y-97887930D01*
X51317523Y-97585105D01*
X51311318Y-97576244D01*
X51212570Y-97421241D01*
X51106223Y-97254309D01*
X51100816Y-97244942D01*
X51029259Y-97107482D01*
X50924566Y-96906369D01*
X50919997Y-96896572D01*
X50904268Y-96858599D01*
X50773920Y-96543911D01*
X50770224Y-96533755D01*
X50765955Y-96520216D01*
X50655445Y-96169720D01*
X50652646Y-96159275D01*
X50570025Y-95786601D01*
X50568149Y-95775955D01*
X50518326Y-95397505D01*
X50517386Y-95386773D01*
X50500618Y-95002702D01*
X50500500Y-94997293D01*
X50500500Y-94878711D01*
X53149500Y-94878711D01*
X53149500Y-95121288D01*
X53173344Y-95302409D01*
X53181162Y-95361789D01*
X53204329Y-95448247D01*
X53243947Y-95596104D01*
X53322857Y-95786609D01*
X53336776Y-95820212D01*
X53458064Y-96030289D01*
X53458066Y-96030292D01*
X53458067Y-96030293D01*
X53605733Y-96222736D01*
X53605739Y-96222743D01*
X53777256Y-96394260D01*
X53777262Y-96394265D01*
X53969711Y-96541936D01*
X54179788Y-96663224D01*
X54403900Y-96756054D01*
X54638211Y-96818838D01*
X54818586Y-96842584D01*
X54878711Y-96850500D01*
X54878712Y-96850500D01*
X55121289Y-96850500D01*
X55169388Y-96844167D01*
X55361789Y-96818838D01*
X55596100Y-96756054D01*
X55820212Y-96663224D01*
X56030289Y-96541936D01*
X56222738Y-96394265D01*
X56394265Y-96222738D01*
X56541936Y-96030289D01*
X56663224Y-95820212D01*
X56756054Y-95596100D01*
X56818838Y-95361789D01*
X56850500Y-95121288D01*
X56850500Y-94878712D01*
X56847453Y-94855571D01*
X56825957Y-94692287D01*
X56818838Y-94638211D01*
X56756054Y-94403900D01*
X56728302Y-94336901D01*
X56682473Y-94226259D01*
X56682472Y-94226257D01*
X56664197Y-94182135D01*
X60817000Y-94182135D01*
X60817000Y-96277870D01*
X60817001Y-96277876D01*
X60823408Y-96337483D01*
X60873702Y-96472328D01*
X60873706Y-96472335D01*
X60959952Y-96587544D01*
X60959955Y-96587547D01*
X61075164Y-96673793D01*
X61075171Y-96673797D01*
X61210017Y-96724091D01*
X61210016Y-96724091D01*
X61216944Y-96724835D01*
X61269627Y-96730500D01*
X63270372Y-96730499D01*
X63329983Y-96724091D01*
X63464831Y-96673796D01*
X63580046Y-96587546D01*
X63666296Y-96472331D01*
X63676872Y-96443974D01*
X63718740Y-96388041D01*
X63784204Y-96363622D01*
X63852477Y-96378472D01*
X63865940Y-96386988D01*
X64048723Y-96519788D01*
X64252429Y-96623582D01*
X64469871Y-96694234D01*
X64560000Y-96708509D01*
X64560000Y-95720747D01*
X64597708Y-95742518D01*
X64737591Y-95780000D01*
X64882409Y-95780000D01*
X65022292Y-95742518D01*
X65060000Y-95720747D01*
X65060000Y-96708508D01*
X65150128Y-96694234D01*
X65367570Y-96623582D01*
X65571276Y-96519788D01*
X65756242Y-96385402D01*
X65917905Y-96223739D01*
X65979371Y-96139137D01*
X66034701Y-96096470D01*
X66104314Y-96090491D01*
X66166109Y-96123096D01*
X66180007Y-96139134D01*
X66241714Y-96224066D01*
X66403434Y-96385786D01*
X66588462Y-96520217D01*
X66687804Y-96570834D01*
X66792244Y-96624049D01*
X67009751Y-96694721D01*
X67009752Y-96694721D01*
X67009755Y-96694722D01*
X67235646Y-96730500D01*
X67235647Y-96730500D01*
X67464353Y-96730500D01*
X67464354Y-96730500D01*
X67690245Y-96694722D01*
X67690248Y-96694721D01*
X67690249Y-96694721D01*
X67907755Y-96624049D01*
X67907755Y-96624048D01*
X67907758Y-96624048D01*
X68111538Y-96520217D01*
X68296566Y-96385786D01*
X68458286Y-96224066D01*
X68592717Y-96039038D01*
X68696548Y-95835258D01*
X68762876Y-95631120D01*
X68767221Y-95617749D01*
X68767221Y-95617748D01*
X68767222Y-95617745D01*
X68803000Y-95391854D01*
X68803000Y-95068146D01*
X68767222Y-94842255D01*
X68767221Y-94842251D01*
X68767221Y-94842250D01*
X68696549Y-94624744D01*
X68690723Y-94613309D01*
X68592717Y-94420962D01*
X68458286Y-94235934D01*
X68296566Y-94074214D01*
X68128539Y-93952135D01*
X75499500Y-93952135D01*
X75499500Y-97047870D01*
X75499501Y-97047876D01*
X75505908Y-97107483D01*
X75556202Y-97242328D01*
X75556206Y-97242335D01*
X75642452Y-97357544D01*
X75642455Y-97357547D01*
X75757664Y-97443793D01*
X75757671Y-97443797D01*
X75892517Y-97494091D01*
X75892516Y-97494091D01*
X75899444Y-97494835D01*
X75952127Y-97500500D01*
X79047872Y-97500499D01*
X79107483Y-97494091D01*
X79242331Y-97443796D01*
X79357546Y-97357546D01*
X79443796Y-97242331D01*
X79494091Y-97107483D01*
X79500500Y-97047873D01*
X79500499Y-93952128D01*
X79494091Y-93892517D01*
X79486608Y-93872455D01*
X79443797Y-93757671D01*
X79443793Y-93757664D01*
X79357547Y-93642455D01*
X79357544Y-93642452D01*
X79242335Y-93556206D01*
X79242328Y-93556202D01*
X79107482Y-93505908D01*
X79107483Y-93505908D01*
X79047883Y-93499501D01*
X79047881Y-93499500D01*
X79047873Y-93499500D01*
X79047864Y-93499500D01*
X75952129Y-93499500D01*
X75952123Y-93499501D01*
X75892516Y-93505908D01*
X75757671Y-93556202D01*
X75757664Y-93556206D01*
X75642455Y-93642452D01*
X75642452Y-93642455D01*
X75556206Y-93757664D01*
X75556202Y-93757671D01*
X75505908Y-93892517D01*
X75500827Y-93939783D01*
X75499501Y-93952123D01*
X75499500Y-93952135D01*
X68128539Y-93952135D01*
X68111538Y-93939783D01*
X67907755Y-93835950D01*
X67690248Y-93765278D01*
X67504812Y-93735908D01*
X67464354Y-93729500D01*
X67235646Y-93729500D01*
X67195188Y-93735908D01*
X67009753Y-93765278D01*
X67009750Y-93765278D01*
X66792244Y-93835950D01*
X66588461Y-93939783D01*
X66515603Y-93992718D01*
X66403434Y-94074214D01*
X66403432Y-94074216D01*
X66403431Y-94074216D01*
X66241716Y-94235931D01*
X66241709Y-94235940D01*
X66180007Y-94320864D01*
X66124677Y-94363530D01*
X66055063Y-94369508D01*
X65993269Y-94336901D01*
X65979372Y-94320863D01*
X65917907Y-94236263D01*
X65917902Y-94236257D01*
X65756242Y-94074597D01*
X65571276Y-93940211D01*
X65367568Y-93836417D01*
X65150124Y-93765765D01*
X65060000Y-93751490D01*
X65060000Y-94739252D01*
X65022292Y-94717482D01*
X64882409Y-94680000D01*
X64737591Y-94680000D01*
X64597708Y-94717482D01*
X64560000Y-94739252D01*
X64560000Y-93751490D01*
X64559999Y-93751490D01*
X64469875Y-93765765D01*
X64252431Y-93836417D01*
X64048719Y-93940213D01*
X63865939Y-94073010D01*
X63800132Y-94096490D01*
X63732079Y-94080664D01*
X63683384Y-94030558D01*
X63676875Y-94016033D01*
X63666296Y-93987669D01*
X63666295Y-93987667D01*
X63666293Y-93987664D01*
X63580047Y-93872455D01*
X63580044Y-93872452D01*
X63464835Y-93786206D01*
X63464828Y-93786202D01*
X63329982Y-93735908D01*
X63329983Y-93735908D01*
X63270383Y-93729501D01*
X63270381Y-93729500D01*
X63270373Y-93729500D01*
X63270364Y-93729500D01*
X61269629Y-93729500D01*
X61269623Y-93729501D01*
X61210016Y-93735908D01*
X61075171Y-93786202D01*
X61075164Y-93786206D01*
X60959955Y-93872452D01*
X60959952Y-93872455D01*
X60873706Y-93987664D01*
X60873702Y-93987671D01*
X60823408Y-94122517D01*
X60817001Y-94182116D01*
X60817000Y-94182135D01*
X56664197Y-94182135D01*
X56663229Y-94179799D01*
X56663226Y-94179793D01*
X56663224Y-94179788D01*
X56541936Y-93969711D01*
X56444244Y-93842396D01*
X56394266Y-93777263D01*
X56394260Y-93777256D01*
X56222743Y-93605739D01*
X56222736Y-93605733D01*
X56030293Y-93458067D01*
X56030292Y-93458066D01*
X56030289Y-93458064D01*
X55820212Y-93336776D01*
X55767382Y-93314893D01*
X55596104Y-93243947D01*
X55361785Y-93181161D01*
X55121289Y-93149500D01*
X55121288Y-93149500D01*
X54878712Y-93149500D01*
X54878711Y-93149500D01*
X54638214Y-93181161D01*
X54403895Y-93243947D01*
X54179794Y-93336773D01*
X54179785Y-93336777D01*
X53969706Y-93458067D01*
X53777263Y-93605733D01*
X53777256Y-93605739D01*
X53605739Y-93777256D01*
X53605733Y-93777263D01*
X53458067Y-93969706D01*
X53336777Y-94179785D01*
X53336773Y-94179794D01*
X53243947Y-94403895D01*
X53181161Y-94638214D01*
X53149500Y-94878711D01*
X50500500Y-94878711D01*
X50500500Y-86436289D01*
X77227261Y-86436289D01*
X77227262Y-86436290D01*
X77233471Y-86440801D01*
X77387742Y-86519408D01*
X77552415Y-86572914D01*
X77723429Y-86600000D01*
X77896571Y-86600000D01*
X78067584Y-86572914D01*
X78232257Y-86519408D01*
X78386525Y-86440803D01*
X78392736Y-86436289D01*
X78392737Y-86436289D01*
X77810001Y-85853553D01*
X77810000Y-85853553D01*
X77227261Y-86436289D01*
X50500500Y-86436289D01*
X50500500Y-85413428D01*
X76710000Y-85413428D01*
X76710000Y-85586571D01*
X76737085Y-85757584D01*
X76790592Y-85922259D01*
X76869196Y-86076525D01*
X76873709Y-86082736D01*
X76873709Y-86082737D01*
X77456446Y-85500000D01*
X77456446Y-85499999D01*
X77416951Y-85460504D01*
X77510000Y-85460504D01*
X77510000Y-85539496D01*
X77530444Y-85615796D01*
X77569940Y-85684205D01*
X77625795Y-85740060D01*
X77694204Y-85779556D01*
X77770504Y-85800000D01*
X77849496Y-85800000D01*
X77925796Y-85779556D01*
X77994205Y-85740060D01*
X78050060Y-85684205D01*
X78089556Y-85615796D01*
X78110000Y-85539496D01*
X78110000Y-85499999D01*
X78163553Y-85499999D01*
X78163553Y-85500001D01*
X78746289Y-86082737D01*
X78746289Y-86082736D01*
X78750803Y-86076525D01*
X78829408Y-85922257D01*
X78882914Y-85757584D01*
X78910000Y-85586571D01*
X78910000Y-85413428D01*
X78882914Y-85242415D01*
X78829408Y-85077742D01*
X78750801Y-84923471D01*
X78746290Y-84917262D01*
X78746289Y-84917261D01*
X78163553Y-85499999D01*
X78110000Y-85499999D01*
X78110000Y-85460504D01*
X78089556Y-85384204D01*
X78050060Y-85315795D01*
X77994205Y-85259940D01*
X77925796Y-85220444D01*
X77849496Y-85200000D01*
X77770504Y-85200000D01*
X77694204Y-85220444D01*
X77625795Y-85259940D01*
X77569940Y-85315795D01*
X77530444Y-85384204D01*
X77510000Y-85460504D01*
X77416951Y-85460504D01*
X76873709Y-84917261D01*
X76873708Y-84917261D01*
X76869203Y-84923463D01*
X76869193Y-84923480D01*
X76790592Y-85077740D01*
X76737085Y-85242415D01*
X76710000Y-85413428D01*
X50500500Y-85413428D01*
X50500500Y-78438872D01*
X62809500Y-78438872D01*
X62809500Y-78701127D01*
X62832943Y-78879185D01*
X62843730Y-78961116D01*
X62910256Y-79209394D01*
X62911602Y-79214418D01*
X62911605Y-79214428D01*
X63011953Y-79456690D01*
X63011958Y-79456700D01*
X63143075Y-79683803D01*
X63302718Y-79891851D01*
X63302726Y-79891860D01*
X63488140Y-80077274D01*
X63488148Y-80077281D01*
X63696196Y-80236924D01*
X63923299Y-80368041D01*
X63923309Y-80368046D01*
X64165571Y-80468394D01*
X64165581Y-80468398D01*
X64418884Y-80536270D01*
X64678880Y-80570500D01*
X64678887Y-80570500D01*
X64941113Y-80570500D01*
X64941120Y-80570500D01*
X65201116Y-80536270D01*
X65454419Y-80468398D01*
X65649205Y-80387715D01*
X65696690Y-80368046D01*
X65696691Y-80368045D01*
X65696697Y-80368043D01*
X65923803Y-80236924D01*
X66131851Y-80077282D01*
X66131855Y-80077277D01*
X66131860Y-80077274D01*
X66317274Y-79891860D01*
X66317277Y-79891855D01*
X66317282Y-79891851D01*
X66476924Y-79683803D01*
X66608043Y-79456697D01*
X66708398Y-79214419D01*
X66776270Y-78961116D01*
X66796648Y-78806332D01*
X66804937Y-78743378D01*
X66804937Y-78743377D01*
X66807228Y-78725974D01*
X66810500Y-78701120D01*
X66810500Y-78438880D01*
X66776270Y-78178884D01*
X66708398Y-77925581D01*
X66690240Y-77881743D01*
X66608046Y-77683309D01*
X66608041Y-77683300D01*
X66608040Y-77683299D01*
X66574399Y-77625031D01*
X76700000Y-77625031D01*
X76700000Y-77829666D01*
X76732009Y-78031766D01*
X76795244Y-78226380D01*
X76888141Y-78408699D01*
X76888147Y-78408708D01*
X76920523Y-78453270D01*
X76920524Y-78453271D01*
X77600000Y-77773795D01*
X77600000Y-77780010D01*
X77627259Y-77881743D01*
X77679920Y-77972955D01*
X77754394Y-78047429D01*
X77845606Y-78100090D01*
X77947339Y-78127349D01*
X77953553Y-78127349D01*
X77274076Y-78806823D01*
X77318650Y-78839208D01*
X77500968Y-78932104D01*
X77695582Y-78995339D01*
X77897683Y-79027349D01*
X78102317Y-79027349D01*
X78304417Y-78995339D01*
X78499031Y-78932104D01*
X78681349Y-78839208D01*
X78725921Y-78806823D01*
X78046447Y-78127349D01*
X78052661Y-78127349D01*
X78154394Y-78100090D01*
X78245606Y-78047429D01*
X78320080Y-77972955D01*
X78372741Y-77881743D01*
X78400000Y-77780010D01*
X78400000Y-77773796D01*
X79079474Y-78453270D01*
X79111859Y-78408698D01*
X79204755Y-78226380D01*
X79267990Y-78031766D01*
X79300000Y-77829666D01*
X79300000Y-77625031D01*
X79267990Y-77422931D01*
X79204755Y-77228317D01*
X79111859Y-77045999D01*
X79079474Y-77001426D01*
X79079474Y-77001425D01*
X78400000Y-77680900D01*
X78400000Y-77674688D01*
X78372741Y-77572955D01*
X78320080Y-77481743D01*
X78245606Y-77407269D01*
X78154394Y-77354608D01*
X78052661Y-77327349D01*
X78046446Y-77327349D01*
X78725922Y-76647873D01*
X78725921Y-76647872D01*
X78681359Y-76615496D01*
X78681350Y-76615490D01*
X78499031Y-76522593D01*
X78304417Y-76459358D01*
X78102317Y-76427349D01*
X77897683Y-76427349D01*
X77695582Y-76459358D01*
X77500968Y-76522593D01*
X77318644Y-76615492D01*
X77274077Y-76647872D01*
X77274077Y-76647873D01*
X77953554Y-77327349D01*
X77947339Y-77327349D01*
X77845606Y-77354608D01*
X77754394Y-77407269D01*
X77679920Y-77481743D01*
X77627259Y-77572955D01*
X77600000Y-77674688D01*
X77600000Y-77680902D01*
X76920524Y-77001426D01*
X76920523Y-77001426D01*
X76888143Y-77045993D01*
X76795244Y-77228317D01*
X76732009Y-77422931D01*
X76700000Y-77625031D01*
X66574399Y-77625031D01*
X66491673Y-77481743D01*
X66476924Y-77456196D01*
X66346955Y-77286819D01*
X66317282Y-77248149D01*
X66317281Y-77248148D01*
X66317274Y-77248140D01*
X66131860Y-77062726D01*
X66131851Y-77062718D01*
X65923803Y-76903075D01*
X65749632Y-76802519D01*
X65696699Y-76771958D01*
X65696690Y-76771953D01*
X65454428Y-76671605D01*
X65454421Y-76671603D01*
X65454419Y-76671602D01*
X65201116Y-76603730D01*
X65143339Y-76596123D01*
X64941127Y-76569500D01*
X64941120Y-76569500D01*
X64678880Y-76569500D01*
X64678872Y-76569500D01*
X64447772Y-76599926D01*
X64418884Y-76603730D01*
X64188373Y-76665495D01*
X64165581Y-76671602D01*
X64165571Y-76671605D01*
X63923309Y-76771953D01*
X63923299Y-76771958D01*
X63696196Y-76903075D01*
X63488148Y-77062718D01*
X63302718Y-77248148D01*
X63143075Y-77456196D01*
X63011958Y-77683299D01*
X63011953Y-77683309D01*
X62911605Y-77925571D01*
X62911602Y-77925581D01*
X62848227Y-78162103D01*
X62843730Y-78178885D01*
X62809500Y-78438872D01*
X50500500Y-78438872D01*
X50500500Y-61261386D01*
X58549500Y-61261386D01*
X58549500Y-63198613D01*
X58549501Y-63198652D01*
X58552295Y-63251243D01*
X58552295Y-63251244D01*
X58587279Y-63432128D01*
X58596755Y-63481126D01*
X58623183Y-63551155D01*
X58679425Y-63700189D01*
X58797929Y-63902131D01*
X58797934Y-63902138D01*
X58948856Y-64081141D01*
X58948858Y-64081143D01*
X59127861Y-64232065D01*
X59127868Y-64232070D01*
X59329810Y-64350574D01*
X59548874Y-64433245D01*
X59778759Y-64477705D01*
X59831378Y-64480500D01*
X59831386Y-64480500D01*
X61768614Y-64480500D01*
X61768622Y-64480500D01*
X61821241Y-64477705D01*
X62051126Y-64433245D01*
X62270190Y-64350574D01*
X62472132Y-64232070D01*
X62474807Y-64229815D01*
X62651141Y-64081143D01*
X62651143Y-64081141D01*
X62802065Y-63902138D01*
X62802065Y-63902137D01*
X62802070Y-63902132D01*
X62920574Y-63700190D01*
X63003245Y-63481126D01*
X63003756Y-63478485D01*
X63004281Y-63477467D01*
X63004683Y-63476050D01*
X63004971Y-63476131D01*
X63035812Y-63416403D01*
X63096343Y-63381507D01*
X63166131Y-63384876D01*
X63223019Y-63425440D01*
X63248946Y-63490322D01*
X63249500Y-63502030D01*
X63249500Y-67027870D01*
X63249501Y-67027876D01*
X63255908Y-67087483D01*
X63306202Y-67222328D01*
X63306206Y-67222335D01*
X63392452Y-67337544D01*
X63392455Y-67337547D01*
X63507664Y-67423793D01*
X63507671Y-67423797D01*
X63642517Y-67474091D01*
X63642516Y-67474091D01*
X63649444Y-67474835D01*
X63702127Y-67480500D01*
X67297872Y-67480499D01*
X67357483Y-67474091D01*
X67492331Y-67423796D01*
X67607546Y-67337546D01*
X67693796Y-67222331D01*
X67744091Y-67087483D01*
X67750500Y-67027873D01*
X67750499Y-64174871D01*
X76699500Y-64174871D01*
X76699500Y-65374889D01*
X76699501Y-65374906D01*
X76710000Y-65477684D01*
X76710001Y-65477687D01*
X76765185Y-65644219D01*
X76765187Y-65644224D01*
X76800069Y-65700776D01*
X76830738Y-65750500D01*
X76857289Y-65793545D01*
X76926510Y-65862766D01*
X76959995Y-65924089D01*
X76955011Y-65993781D01*
X76939148Y-66023332D01*
X76888139Y-66093539D01*
X76795244Y-66275856D01*
X76732009Y-66470470D01*
X76700000Y-66672570D01*
X76700000Y-66877205D01*
X76732009Y-67079305D01*
X76795244Y-67273919D01*
X76888141Y-67456238D01*
X76888147Y-67456247D01*
X76920523Y-67500809D01*
X76920524Y-67500810D01*
X77600000Y-66821334D01*
X77600000Y-66827549D01*
X77627259Y-66929282D01*
X77679920Y-67020494D01*
X77754394Y-67094968D01*
X77845606Y-67147629D01*
X77947339Y-67174888D01*
X77953553Y-67174888D01*
X77274076Y-67854362D01*
X77318650Y-67886747D01*
X77500968Y-67979643D01*
X77695582Y-68042878D01*
X77897683Y-68074888D01*
X78102317Y-68074888D01*
X78304417Y-68042878D01*
X78499031Y-67979643D01*
X78681349Y-67886747D01*
X78725921Y-67854362D01*
X78046447Y-67174888D01*
X78052661Y-67174888D01*
X78154394Y-67147629D01*
X78245606Y-67094968D01*
X78320080Y-67020494D01*
X78372741Y-66929282D01*
X78400000Y-66827549D01*
X78400000Y-66821335D01*
X79079474Y-67500809D01*
X79111859Y-67456237D01*
X79204755Y-67273919D01*
X79267990Y-67079305D01*
X79300000Y-66877205D01*
X79300000Y-66672570D01*
X79267990Y-66470470D01*
X79204755Y-66275856D01*
X79111857Y-66093534D01*
X79060853Y-66023334D01*
X79037372Y-65957528D01*
X79053197Y-65889474D01*
X79073489Y-65862767D01*
X79073490Y-65862766D01*
X79142712Y-65793544D01*
X79234814Y-65644222D01*
X79289999Y-65477685D01*
X79300500Y-65374897D01*
X79300499Y-64174880D01*
X79289999Y-64072091D01*
X79234814Y-63905554D01*
X79142712Y-63756232D01*
X79018656Y-63632176D01*
X78925888Y-63574957D01*
X78869336Y-63540075D01*
X78869331Y-63540073D01*
X78867862Y-63539586D01*
X78702797Y-63484889D01*
X78702795Y-63484888D01*
X78600010Y-63474388D01*
X77399998Y-63474388D01*
X77399981Y-63474389D01*
X77297203Y-63484888D01*
X77297200Y-63484889D01*
X77130668Y-63540073D01*
X77130663Y-63540075D01*
X76981342Y-63632177D01*
X76857289Y-63756230D01*
X76765187Y-63905551D01*
X76765186Y-63905554D01*
X76710001Y-64072091D01*
X76710001Y-64072092D01*
X76710000Y-64072092D01*
X76699500Y-64174871D01*
X67750499Y-64174871D01*
X67750499Y-63432128D01*
X67744091Y-63372517D01*
X67734704Y-63347350D01*
X67693797Y-63237671D01*
X67693793Y-63237664D01*
X67607547Y-63122455D01*
X67607544Y-63122452D01*
X67492335Y-63036206D01*
X67492328Y-63036202D01*
X67357482Y-62985908D01*
X67357483Y-62985908D01*
X67297883Y-62979501D01*
X67297881Y-62979500D01*
X67297873Y-62979500D01*
X67297864Y-62979500D01*
X63702129Y-62979500D01*
X63702123Y-62979501D01*
X63642516Y-62985908D01*
X63507671Y-63036202D01*
X63507664Y-63036206D01*
X63392455Y-63122452D01*
X63392452Y-63122455D01*
X63306206Y-63237664D01*
X63306203Y-63237669D01*
X63288573Y-63284939D01*
X63246701Y-63340872D01*
X63181237Y-63365289D01*
X63112964Y-63350437D01*
X63063559Y-63301032D01*
X63048566Y-63235025D01*
X63050499Y-63198650D01*
X63050500Y-63198613D01*
X63050500Y-61261386D01*
X63050498Y-61261347D01*
X63048833Y-61229998D01*
X63047705Y-61208759D01*
X63003245Y-60978874D01*
X62920574Y-60759810D01*
X62802070Y-60557868D01*
X62802065Y-60557861D01*
X62651143Y-60378858D01*
X62651141Y-60378856D01*
X62472138Y-60227934D01*
X62472131Y-60227929D01*
X62270189Y-60109425D01*
X62179832Y-60075326D01*
X62051126Y-60026755D01*
X62051121Y-60026754D01*
X61821243Y-59982295D01*
X61768652Y-59979501D01*
X61768629Y-59979500D01*
X61768622Y-59979500D01*
X59831378Y-59979500D01*
X59831370Y-59979500D01*
X59831347Y-59979501D01*
X59778756Y-59982295D01*
X59778755Y-59982295D01*
X59548878Y-60026754D01*
X59548876Y-60026754D01*
X59548874Y-60026755D01*
X59502656Y-60044197D01*
X59329810Y-60109425D01*
X59127868Y-60227929D01*
X59127861Y-60227934D01*
X58948858Y-60378856D01*
X58948856Y-60378858D01*
X58797934Y-60557861D01*
X58797929Y-60557868D01*
X58679425Y-60759810D01*
X58643401Y-60855269D01*
X58596755Y-60978874D01*
X58596754Y-60978876D01*
X58596754Y-60978878D01*
X58552295Y-61208755D01*
X58552295Y-61208756D01*
X58549501Y-61261347D01*
X58549500Y-61261386D01*
X50500500Y-61261386D01*
X50500500Y-58415803D01*
X63250000Y-58415803D01*
X63250000Y-58980000D01*
X64066988Y-58980000D01*
X64034075Y-59037007D01*
X64000000Y-59164174D01*
X64000000Y-59295826D01*
X64034075Y-59422993D01*
X64066988Y-59480000D01*
X63250001Y-59480000D01*
X63250001Y-60044197D01*
X63260400Y-60176332D01*
X63315377Y-60394519D01*
X63408428Y-60599374D01*
X63408431Y-60599380D01*
X63536559Y-60784323D01*
X63536569Y-60784335D01*
X63695664Y-60943430D01*
X63695676Y-60943440D01*
X63880619Y-61071568D01*
X63880625Y-61071571D01*
X64085480Y-61164622D01*
X64303667Y-61219599D01*
X64435810Y-61229999D01*
X65249999Y-61229999D01*
X65250000Y-61229998D01*
X65250000Y-59730000D01*
X65750000Y-59730000D01*
X65750000Y-61229999D01*
X66564182Y-61229999D01*
X66564197Y-61229998D01*
X66696332Y-61219599D01*
X66914519Y-61164622D01*
X67119374Y-61071571D01*
X67119380Y-61071568D01*
X67304323Y-60943440D01*
X67304335Y-60943430D01*
X67463430Y-60784335D01*
X67463440Y-60784323D01*
X67591568Y-60599380D01*
X67591571Y-60599374D01*
X67684622Y-60394519D01*
X67739599Y-60176332D01*
X67749999Y-60044196D01*
X67750000Y-60044184D01*
X67750000Y-59480000D01*
X66933012Y-59480000D01*
X66965925Y-59422993D01*
X67000000Y-59295826D01*
X67000000Y-59164174D01*
X66965925Y-59037007D01*
X66933012Y-58980000D01*
X67749999Y-58980000D01*
X67749999Y-58415817D01*
X67749998Y-58415802D01*
X67739599Y-58283667D01*
X67684622Y-58065480D01*
X67591571Y-57860625D01*
X67591568Y-57860619D01*
X67463440Y-57675676D01*
X67463430Y-57675664D01*
X67304335Y-57516569D01*
X67304323Y-57516559D01*
X67119380Y-57388431D01*
X67119374Y-57388428D01*
X66914519Y-57295377D01*
X66696332Y-57240400D01*
X66564196Y-57230000D01*
X65750000Y-57230000D01*
X65750000Y-58730000D01*
X65250000Y-58730000D01*
X65250000Y-57230000D01*
X64435817Y-57230000D01*
X64435802Y-57230001D01*
X64303667Y-57240400D01*
X64085480Y-57295377D01*
X63880625Y-57388428D01*
X63880619Y-57388431D01*
X63695676Y-57516559D01*
X63695664Y-57516569D01*
X63536569Y-57675664D01*
X63536559Y-57675676D01*
X63408431Y-57860619D01*
X63408428Y-57860625D01*
X63315377Y-58065480D01*
X63260400Y-58283667D01*
X63250000Y-58415803D01*
X50500500Y-58415803D01*
X50500500Y-55002706D01*
X50500618Y-54997297D01*
X50505796Y-54878711D01*
X53149500Y-54878711D01*
X53149500Y-55121288D01*
X53181161Y-55361785D01*
X53243947Y-55596104D01*
X53313829Y-55764814D01*
X53336776Y-55820212D01*
X53458064Y-56030289D01*
X53458066Y-56030292D01*
X53458067Y-56030293D01*
X53605733Y-56222736D01*
X53605739Y-56222743D01*
X53777256Y-56394260D01*
X53777262Y-56394265D01*
X53969711Y-56541936D01*
X54179788Y-56663224D01*
X54403900Y-56756054D01*
X54638211Y-56818838D01*
X54818586Y-56842584D01*
X54878711Y-56850500D01*
X54878712Y-56850500D01*
X55121289Y-56850500D01*
X55169388Y-56844167D01*
X55361789Y-56818838D01*
X55596100Y-56756054D01*
X55820212Y-56663224D01*
X56030289Y-56541936D01*
X56222738Y-56394265D01*
X56394265Y-56222738D01*
X56541936Y-56030289D01*
X56663224Y-55820212D01*
X56756054Y-55596100D01*
X56818838Y-55361789D01*
X56850500Y-55121288D01*
X56850500Y-54878712D01*
X56830874Y-54729635D01*
X75709500Y-54729635D01*
X75709500Y-56325370D01*
X75709501Y-56325376D01*
X75715908Y-56384983D01*
X75766202Y-56519828D01*
X75766206Y-56519835D01*
X75852452Y-56635044D01*
X75852455Y-56635047D01*
X75967664Y-56721293D01*
X75967671Y-56721297D01*
X76102517Y-56771591D01*
X76102516Y-56771591D01*
X76109444Y-56772335D01*
X76162127Y-56778000D01*
X77757872Y-56777999D01*
X77817483Y-56771591D01*
X77952331Y-56721296D01*
X78067546Y-56635046D01*
X78130734Y-56550636D01*
X78186667Y-56508767D01*
X78256359Y-56503783D01*
X78317682Y-56537268D01*
X78329260Y-56550630D01*
X78392454Y-56635046D01*
X78430092Y-56663222D01*
X78507664Y-56721293D01*
X78507671Y-56721297D01*
X78642517Y-56771591D01*
X78642516Y-56771591D01*
X78649444Y-56772335D01*
X78702127Y-56778000D01*
X80297872Y-56777999D01*
X80357483Y-56771591D01*
X80492331Y-56721296D01*
X80607546Y-56635046D01*
X80670734Y-56550636D01*
X80726667Y-56508767D01*
X80796359Y-56503783D01*
X80857682Y-56537268D01*
X80869260Y-56550630D01*
X80932454Y-56635046D01*
X80970092Y-56663222D01*
X81047664Y-56721293D01*
X81047671Y-56721297D01*
X81092618Y-56738061D01*
X81182517Y-56771591D01*
X81242127Y-56778000D01*
X81426081Y-56777999D01*
X81426082Y-56778000D01*
X81573918Y-56778000D01*
X81573919Y-56777999D01*
X82837872Y-56777999D01*
X82897483Y-56771591D01*
X83032331Y-56721296D01*
X83147546Y-56635046D01*
X83233796Y-56519831D01*
X83284091Y-56384983D01*
X83284091Y-56384981D01*
X83285874Y-56377438D01*
X83288146Y-56377974D01*
X83310429Y-56324188D01*
X83367823Y-56284343D01*
X83406976Y-56278000D01*
X85046420Y-56278000D01*
X85143962Y-56258596D01*
X85191413Y-56249158D01*
X85327995Y-56192584D01*
X85382624Y-56156082D01*
X85450916Y-56110452D01*
X88274548Y-53286818D01*
X88335871Y-53253334D01*
X88362229Y-53250500D01*
X89848351Y-53250500D01*
X89915390Y-53270185D01*
X89961145Y-53322989D01*
X89971089Y-53392147D01*
X89942064Y-53455703D01*
X89883286Y-53493477D01*
X89872543Y-53496117D01*
X89811092Y-53508340D01*
X89811082Y-53508343D01*
X89674511Y-53564912D01*
X89674498Y-53564919D01*
X89551584Y-53647048D01*
X89551580Y-53647051D01*
X82417050Y-60781580D01*
X82417044Y-60781588D01*
X82367812Y-60855268D01*
X82367813Y-60855269D01*
X82334921Y-60904496D01*
X82334914Y-60904508D01*
X82278342Y-61041086D01*
X82278340Y-61041092D01*
X82249500Y-61186079D01*
X82249500Y-69637769D01*
X82229815Y-69704808D01*
X82213181Y-69725450D01*
X79171692Y-72766938D01*
X79110369Y-72800423D01*
X79040677Y-72795439D01*
X79018915Y-72784796D01*
X78869340Y-72692538D01*
X78869335Y-72692536D01*
X78869334Y-72692535D01*
X78702797Y-72637350D01*
X78702795Y-72637349D01*
X78600010Y-72626849D01*
X77399998Y-72626849D01*
X77399981Y-72626850D01*
X77297203Y-72637349D01*
X77297200Y-72637350D01*
X77130668Y-72692534D01*
X77130663Y-72692536D01*
X76981342Y-72784638D01*
X76857289Y-72908691D01*
X76765187Y-73058012D01*
X76765185Y-73058017D01*
X76763354Y-73063544D01*
X76710001Y-73224552D01*
X76710001Y-73224553D01*
X76710000Y-73224553D01*
X76699500Y-73327332D01*
X76699500Y-74527350D01*
X76699501Y-74527367D01*
X76710000Y-74630145D01*
X76710001Y-74630148D01*
X76733217Y-74700208D01*
X76765186Y-74796683D01*
X76857288Y-74946005D01*
X76981344Y-75070061D01*
X77130666Y-75162163D01*
X77297203Y-75217348D01*
X77399991Y-75227849D01*
X78600008Y-75227848D01*
X78702797Y-75217348D01*
X78869334Y-75162163D01*
X79018656Y-75070061D01*
X79142712Y-74946005D01*
X79234814Y-74796683D01*
X79264661Y-74706608D01*
X79282020Y-74681535D01*
X79297461Y-74655241D01*
X79302460Y-74652011D01*
X79304433Y-74649163D01*
X79326361Y-74634981D01*
X79330569Y-74632850D01*
X79428146Y-74592433D01*
X79477380Y-74559535D01*
X79491807Y-74549896D01*
X79500898Y-74543820D01*
X79551067Y-74510301D01*
X83582951Y-70478416D01*
X83665084Y-70355495D01*
X83721658Y-70218913D01*
X83750500Y-70073918D01*
X83750500Y-69926083D01*
X83750500Y-61622228D01*
X83770185Y-61555189D01*
X83786814Y-61534552D01*
X89117821Y-56203544D01*
X89179142Y-56170061D01*
X89248834Y-56175045D01*
X89304767Y-56216917D01*
X89329184Y-56282381D01*
X89329500Y-56291227D01*
X89329500Y-57177870D01*
X89329501Y-57177876D01*
X89335908Y-57237483D01*
X89386202Y-57372328D01*
X89386206Y-57372335D01*
X89472452Y-57487544D01*
X89472455Y-57487547D01*
X89587664Y-57573793D01*
X89587671Y-57573797D01*
X89722517Y-57624091D01*
X89722516Y-57624091D01*
X89729444Y-57624835D01*
X89782127Y-57630500D01*
X91677872Y-57630499D01*
X91737483Y-57624091D01*
X91872331Y-57573796D01*
X91987546Y-57487546D01*
X92073796Y-57372331D01*
X92101428Y-57298245D01*
X92103601Y-57292420D01*
X92120919Y-57269284D01*
X92135809Y-57244514D01*
X92141600Y-57241656D01*
X92145471Y-57236486D01*
X92172549Y-57226385D01*
X92198467Y-57213598D01*
X92204884Y-57214325D01*
X92210936Y-57212068D01*
X92239177Y-57218211D01*
X92267892Y-57221465D01*
X92274471Y-57225888D01*
X92279209Y-57226919D01*
X92298142Y-57239648D01*
X92303010Y-57243617D01*
X92357635Y-57298242D01*
X92471191Y-57380745D01*
X92473859Y-57382920D01*
X92491746Y-57409000D01*
X92511051Y-57434035D01*
X92511856Y-57438322D01*
X92513377Y-57440540D01*
X92513586Y-57447536D01*
X92519500Y-57479024D01*
X92519500Y-67097769D01*
X92499815Y-67164808D01*
X92483181Y-67185450D01*
X90029685Y-69638945D01*
X89968362Y-69672430D01*
X89898670Y-69667446D01*
X89842737Y-69625574D01*
X89824073Y-69589582D01*
X89795220Y-69500781D01*
X89702287Y-69318390D01*
X89683704Y-69292812D01*
X89581971Y-69152786D01*
X89437213Y-69008028D01*
X89271614Y-68887715D01*
X89265006Y-68884348D01*
X89178917Y-68840483D01*
X89128123Y-68792511D01*
X89111328Y-68724690D01*
X89133865Y-68658555D01*
X89178917Y-68619516D01*
X89271610Y-68572287D01*
X89292770Y-68556913D01*
X89437213Y-68451971D01*
X89437215Y-68451968D01*
X89437219Y-68451966D01*
X89581966Y-68307219D01*
X89581968Y-68307215D01*
X89581971Y-68307213D01*
X89634732Y-68234590D01*
X89702287Y-68141610D01*
X89795220Y-67959219D01*
X89858477Y-67764534D01*
X89890500Y-67562352D01*
X89890500Y-67357648D01*
X89864548Y-67193796D01*
X89858477Y-67155465D01*
X89817020Y-67027876D01*
X89795220Y-66960781D01*
X89795218Y-66960778D01*
X89795218Y-66960776D01*
X89742586Y-66857482D01*
X89702287Y-66778390D01*
X89661483Y-66722227D01*
X89581971Y-66612786D01*
X89437217Y-66468032D01*
X89437212Y-66468028D01*
X89343051Y-66399616D01*
X89300385Y-66344286D01*
X89294406Y-66274673D01*
X89327012Y-66212878D01*
X89376933Y-66181592D01*
X89459117Y-66154359D01*
X89459124Y-66154356D01*
X89608345Y-66062315D01*
X89732315Y-65938345D01*
X89824356Y-65789124D01*
X89824358Y-65789119D01*
X89879505Y-65622697D01*
X89879506Y-65622690D01*
X89889999Y-65519986D01*
X89890000Y-65519973D01*
X89890000Y-65170000D01*
X88505686Y-65170000D01*
X88510080Y-65165606D01*
X88562741Y-65074394D01*
X88590000Y-64972661D01*
X88590000Y-64867339D01*
X88562741Y-64765606D01*
X88510080Y-64674394D01*
X88505686Y-64670000D01*
X89889999Y-64670000D01*
X89889999Y-64320028D01*
X89889998Y-64320013D01*
X89879505Y-64217302D01*
X89824358Y-64050880D01*
X89824356Y-64050875D01*
X89732315Y-63901654D01*
X89608345Y-63777684D01*
X89459124Y-63685643D01*
X89459119Y-63685641D01*
X89292697Y-63630494D01*
X89292690Y-63630493D01*
X89189986Y-63620000D01*
X88440000Y-63620000D01*
X88440000Y-64604314D01*
X88435606Y-64599920D01*
X88344394Y-64547259D01*
X88242661Y-64520000D01*
X88137339Y-64520000D01*
X88035606Y-64547259D01*
X87944394Y-64599920D01*
X87940000Y-64604314D01*
X87940000Y-63620000D01*
X87190028Y-63620000D01*
X87190012Y-63620001D01*
X87087302Y-63630494D01*
X86920880Y-63685641D01*
X86920875Y-63685643D01*
X86771654Y-63777684D01*
X86647684Y-63901654D01*
X86555643Y-64050875D01*
X86555641Y-64050880D01*
X86500494Y-64217302D01*
X86500493Y-64217309D01*
X86490000Y-64320013D01*
X86490000Y-64670000D01*
X87874314Y-64670000D01*
X87869920Y-64674394D01*
X87817259Y-64765606D01*
X87790000Y-64867339D01*
X87790000Y-64972661D01*
X87817259Y-65074394D01*
X87869920Y-65165606D01*
X87874314Y-65170000D01*
X86490001Y-65170000D01*
X86490001Y-65519986D01*
X86500494Y-65622697D01*
X86555641Y-65789119D01*
X86555643Y-65789124D01*
X86647684Y-65938345D01*
X86771654Y-66062315D01*
X86920875Y-66154356D01*
X86920882Y-66154359D01*
X87003067Y-66181592D01*
X87060512Y-66221364D01*
X87087336Y-66285880D01*
X87075021Y-66354656D01*
X87036949Y-66399616D01*
X86942787Y-66468028D01*
X86942782Y-66468032D01*
X86798028Y-66612786D01*
X86677715Y-66778386D01*
X86584781Y-66960776D01*
X86521522Y-67155465D01*
X86489500Y-67357648D01*
X86489500Y-67562351D01*
X86521522Y-67764534D01*
X86584781Y-67959223D01*
X86677715Y-68141613D01*
X86798028Y-68307213D01*
X86942786Y-68451971D01*
X87097749Y-68564556D01*
X87108390Y-68572287D01*
X87199840Y-68618883D01*
X87201080Y-68619515D01*
X87251876Y-68667490D01*
X87268671Y-68735311D01*
X87246134Y-68801446D01*
X87201080Y-68840485D01*
X87108386Y-68887715D01*
X86942786Y-69008028D01*
X86798028Y-69152786D01*
X86677715Y-69318386D01*
X86584781Y-69500776D01*
X86521522Y-69695465D01*
X86489500Y-69897648D01*
X86489500Y-70102351D01*
X86521522Y-70304534D01*
X86584781Y-70499223D01*
X86677715Y-70681613D01*
X86798028Y-70847213D01*
X86942786Y-70991971D01*
X87097749Y-71104556D01*
X87108390Y-71112287D01*
X87199840Y-71158883D01*
X87201080Y-71159515D01*
X87251876Y-71207490D01*
X87268671Y-71275311D01*
X87246134Y-71341446D01*
X87201080Y-71380485D01*
X87108386Y-71427715D01*
X86942786Y-71548028D01*
X86798028Y-71692786D01*
X86677715Y-71858386D01*
X86584781Y-72040776D01*
X86521522Y-72235465D01*
X86489500Y-72437648D01*
X86489500Y-72642351D01*
X86521522Y-72844534D01*
X86584781Y-73039223D01*
X86639334Y-73146287D01*
X86670595Y-73207641D01*
X86677715Y-73221613D01*
X86798028Y-73387213D01*
X86942786Y-73531971D01*
X87097749Y-73644556D01*
X87108390Y-73652287D01*
X87290781Y-73745220D01*
X87353818Y-73765701D01*
X87411492Y-73805137D01*
X87438691Y-73869495D01*
X87439500Y-73883632D01*
X87439500Y-75947770D01*
X87419815Y-76014809D01*
X87403181Y-76035451D01*
X80725451Y-82713181D01*
X80664128Y-82746666D01*
X80637770Y-82749500D01*
X78863958Y-82749500D01*
X78796919Y-82729815D01*
X78758420Y-82690598D01*
X78752712Y-82681344D01*
X78628657Y-82557289D01*
X78628656Y-82557288D01*
X78479334Y-82465186D01*
X78312797Y-82410001D01*
X78312795Y-82410000D01*
X78210010Y-82399500D01*
X77409998Y-82399500D01*
X77409980Y-82399501D01*
X77307203Y-82410000D01*
X77307200Y-82410001D01*
X77140668Y-82465185D01*
X77140663Y-82465187D01*
X76991342Y-82557289D01*
X76867289Y-82681342D01*
X76775187Y-82830663D01*
X76775186Y-82830666D01*
X76720001Y-82997203D01*
X76720001Y-82997204D01*
X76720000Y-82997204D01*
X76709500Y-83099983D01*
X76709500Y-83900001D01*
X76709501Y-83900019D01*
X76720000Y-84002796D01*
X76720001Y-84002799D01*
X76775185Y-84169331D01*
X76775187Y-84169336D01*
X76807460Y-84221659D01*
X76867288Y-84318656D01*
X76991344Y-84442712D01*
X77140666Y-84534814D01*
X77199066Y-84554166D01*
X77247743Y-84584190D01*
X77810000Y-85146446D01*
X77810001Y-85146446D01*
X78372254Y-84584191D01*
X78420930Y-84554167D01*
X78479334Y-84534814D01*
X78628656Y-84442712D01*
X78752712Y-84318656D01*
X78758420Y-84309402D01*
X78810368Y-84262678D01*
X78863958Y-84250500D01*
X81073920Y-84250500D01*
X81171462Y-84231096D01*
X81218913Y-84221658D01*
X81355495Y-84165084D01*
X81420291Y-84121789D01*
X81420294Y-84121786D01*
X81420296Y-84121786D01*
X81449547Y-84102240D01*
X81478416Y-84082952D01*
X82294870Y-83266498D01*
X83116835Y-82444534D01*
X84163687Y-81397682D01*
X89010000Y-81397682D01*
X89010000Y-81602317D01*
X89042009Y-81804417D01*
X89105244Y-81999031D01*
X89198141Y-82181350D01*
X89198147Y-82181359D01*
X89230523Y-82225921D01*
X89230524Y-82225922D01*
X89910000Y-81546446D01*
X89910000Y-81552661D01*
X89937259Y-81654394D01*
X89989920Y-81745606D01*
X90064394Y-81820080D01*
X90155606Y-81872741D01*
X90257339Y-81900000D01*
X90263553Y-81900000D01*
X89584076Y-82579474D01*
X89628650Y-82611859D01*
X89810968Y-82704755D01*
X90005582Y-82767990D01*
X90207683Y-82800000D01*
X90412317Y-82800000D01*
X90614417Y-82767990D01*
X90809031Y-82704755D01*
X90991349Y-82611859D01*
X91035921Y-82579474D01*
X90356447Y-81900000D01*
X90362661Y-81900000D01*
X90464394Y-81872741D01*
X90555606Y-81820080D01*
X90630080Y-81745606D01*
X90682741Y-81654394D01*
X90710000Y-81552661D01*
X90710000Y-81546448D01*
X91389474Y-82225922D01*
X91389474Y-82225921D01*
X91421859Y-82181349D01*
X91449233Y-82127624D01*
X91497207Y-82076827D01*
X91565028Y-82060031D01*
X91631163Y-82082567D01*
X91670203Y-82127621D01*
X91697713Y-82181611D01*
X91818028Y-82347213D01*
X91962786Y-82491971D01*
X92083226Y-82579474D01*
X92128390Y-82612287D01*
X92244607Y-82671503D01*
X92310776Y-82705218D01*
X92310778Y-82705218D01*
X92310781Y-82705220D01*
X92382168Y-82728415D01*
X92505465Y-82768477D01*
X92606557Y-82784488D01*
X92707648Y-82800500D01*
X92707649Y-82800500D01*
X92912351Y-82800500D01*
X92912352Y-82800500D01*
X93114534Y-82768477D01*
X93309219Y-82705220D01*
X93491610Y-82612287D01*
X93584590Y-82544732D01*
X93657213Y-82491971D01*
X93657215Y-82491968D01*
X93657219Y-82491966D01*
X93801966Y-82347219D01*
X93801968Y-82347215D01*
X93801971Y-82347213D01*
X93872599Y-82250000D01*
X93922287Y-82181610D01*
X94015220Y-81999219D01*
X94078477Y-81804534D01*
X94110500Y-81602352D01*
X94110500Y-81397648D01*
X94091611Y-81278390D01*
X94078477Y-81195465D01*
X94031912Y-81052155D01*
X94015220Y-81000781D01*
X94015218Y-81000778D01*
X94015218Y-81000776D01*
X93953460Y-80879571D01*
X93922287Y-80818390D01*
X93890092Y-80774077D01*
X93801971Y-80652786D01*
X93657213Y-80508028D01*
X93491613Y-80387715D01*
X93491612Y-80387714D01*
X93491610Y-80387713D01*
X93432604Y-80357648D01*
X93309223Y-80294781D01*
X93114534Y-80231522D01*
X92939995Y-80203878D01*
X92912352Y-80199500D01*
X92707648Y-80199500D01*
X92683329Y-80203351D01*
X92505465Y-80231522D01*
X92310776Y-80294781D01*
X92128386Y-80387715D01*
X91962786Y-80508028D01*
X91818028Y-80652786D01*
X91697714Y-80818386D01*
X91670203Y-80872379D01*
X91622227Y-80923174D01*
X91554406Y-80939968D01*
X91488272Y-80917429D01*
X91449234Y-80872376D01*
X91421861Y-80818652D01*
X91389474Y-80774077D01*
X91389474Y-80774076D01*
X90710000Y-81453551D01*
X90710000Y-81447339D01*
X90682741Y-81345606D01*
X90630080Y-81254394D01*
X90555606Y-81179920D01*
X90464394Y-81127259D01*
X90362661Y-81100000D01*
X90356446Y-81100000D01*
X91035922Y-80420524D01*
X91035921Y-80420523D01*
X90991359Y-80388147D01*
X90991350Y-80388141D01*
X90809031Y-80295244D01*
X90614417Y-80232009D01*
X90412317Y-80200000D01*
X90207683Y-80200000D01*
X90005582Y-80232009D01*
X89810968Y-80295244D01*
X89628644Y-80388143D01*
X89584077Y-80420523D01*
X89584077Y-80420524D01*
X90263554Y-81100000D01*
X90257339Y-81100000D01*
X90155606Y-81127259D01*
X90064394Y-81179920D01*
X89989920Y-81254394D01*
X89937259Y-81345606D01*
X89910000Y-81447339D01*
X89910000Y-81453553D01*
X89230524Y-80774077D01*
X89230523Y-80774077D01*
X89198143Y-80818644D01*
X89105244Y-81000968D01*
X89042009Y-81195582D01*
X89010000Y-81397682D01*
X84163687Y-81397682D01*
X85181267Y-80380102D01*
X88772947Y-76788420D01*
X88772950Y-76788417D01*
X88772949Y-76788417D01*
X88772952Y-76788415D01*
X88851003Y-76671602D01*
X88855084Y-76665495D01*
X88890290Y-76580500D01*
X88911659Y-76528912D01*
X88940500Y-76383917D01*
X88940500Y-76236082D01*
X88940500Y-73883632D01*
X88960185Y-73816593D01*
X89012989Y-73770838D01*
X89026168Y-73765706D01*
X89089219Y-73745220D01*
X89271610Y-73652287D01*
X89382567Y-73571673D01*
X89437213Y-73531971D01*
X89437215Y-73531968D01*
X89437219Y-73531966D01*
X89581966Y-73387219D01*
X89581968Y-73387215D01*
X89581971Y-73387213D01*
X89650439Y-73292973D01*
X89702287Y-73221610D01*
X89795220Y-73039219D01*
X89858477Y-72844534D01*
X89890500Y-72642352D01*
X89890500Y-72437648D01*
X89858477Y-72235466D01*
X89807754Y-72079359D01*
X89805760Y-72009519D01*
X89838003Y-71953363D01*
X93852952Y-67938416D01*
X93902186Y-67864729D01*
X93935084Y-67815495D01*
X93936580Y-67811882D01*
X93941924Y-67803675D01*
X93964554Y-67784299D01*
X93985437Y-67763037D01*
X93990812Y-67761816D01*
X93994998Y-67758233D01*
X94024509Y-67754167D01*
X94053573Y-67747571D01*
X94058755Y-67749450D01*
X94064214Y-67748699D01*
X94091242Y-67761236D01*
X94119255Y-67771398D01*
X94122597Y-67775779D01*
X94127597Y-67778099D01*
X94143557Y-67803260D01*
X94161628Y-67826952D01*
X94163772Y-67833011D01*
X94204781Y-67959223D01*
X94297715Y-68141613D01*
X94418028Y-68307213D01*
X94562786Y-68451971D01*
X94717749Y-68564556D01*
X94728390Y-68572287D01*
X94819840Y-68618883D01*
X94821080Y-68619515D01*
X94871876Y-68667490D01*
X94888671Y-68735311D01*
X94866134Y-68801446D01*
X94821080Y-68840485D01*
X94728386Y-68887715D01*
X94562786Y-69008028D01*
X94418028Y-69152786D01*
X94297715Y-69318386D01*
X94204781Y-69500776D01*
X94141522Y-69695465D01*
X94109500Y-69897648D01*
X94109500Y-70102351D01*
X94141522Y-70304534D01*
X94204781Y-70499223D01*
X94297715Y-70681613D01*
X94418028Y-70847213D01*
X94562786Y-70991971D01*
X94717749Y-71104556D01*
X94728390Y-71112287D01*
X94819840Y-71158883D01*
X94821080Y-71159515D01*
X94871876Y-71207490D01*
X94888671Y-71275311D01*
X94866134Y-71341446D01*
X94821080Y-71380485D01*
X94728386Y-71427715D01*
X94562786Y-71548028D01*
X94418028Y-71692786D01*
X94297715Y-71858386D01*
X94204781Y-72040776D01*
X94141522Y-72235465D01*
X94109500Y-72437648D01*
X94109500Y-72642351D01*
X94141522Y-72844534D01*
X94204781Y-73039223D01*
X94259334Y-73146287D01*
X94290595Y-73207641D01*
X94297715Y-73221613D01*
X94418028Y-73387213D01*
X94562786Y-73531971D01*
X94717749Y-73644556D01*
X94728390Y-73652287D01*
X94844607Y-73711503D01*
X94910776Y-73745218D01*
X94910778Y-73745218D01*
X94910781Y-73745220D01*
X94973812Y-73765700D01*
X95105465Y-73808477D01*
X95206557Y-73824488D01*
X95307648Y-73840500D01*
X95307649Y-73840500D01*
X96312351Y-73840500D01*
X96312352Y-73840500D01*
X96514534Y-73808477D01*
X96709219Y-73745220D01*
X96891610Y-73652287D01*
X97002567Y-73571673D01*
X97057213Y-73531971D01*
X97057215Y-73531968D01*
X97057219Y-73531966D01*
X97201966Y-73387219D01*
X97201968Y-73387215D01*
X97201971Y-73387213D01*
X97270439Y-73292973D01*
X97322287Y-73221610D01*
X97415220Y-73039219D01*
X97444074Y-72950413D01*
X97483510Y-72892740D01*
X97547868Y-72865541D01*
X97616715Y-72877455D01*
X97649685Y-72901052D01*
X98813772Y-74065139D01*
X98847257Y-74126462D01*
X98850091Y-74152820D01*
X98850091Y-80834582D01*
X98830406Y-80901621D01*
X98798976Y-80934900D01*
X98753378Y-80968028D01*
X98753373Y-80968032D01*
X98608619Y-81112786D01*
X98488306Y-81278386D01*
X98395372Y-81460776D01*
X98332113Y-81655465D01*
X98300091Y-81857648D01*
X98300091Y-82062351D01*
X98332113Y-82264534D01*
X98395372Y-82459223D01*
X98488306Y-82641613D01*
X98608619Y-82807213D01*
X98753377Y-82951971D01*
X98908340Y-83064556D01*
X98918981Y-83072287D01*
X99014246Y-83120827D01*
X99101367Y-83165218D01*
X99101369Y-83165218D01*
X99101372Y-83165220D01*
X99205728Y-83199127D01*
X99296056Y-83228477D01*
X99397148Y-83244488D01*
X99498239Y-83260500D01*
X99498240Y-83260500D01*
X99702942Y-83260500D01*
X99702943Y-83260500D01*
X99905125Y-83228477D01*
X100099810Y-83165220D01*
X100282201Y-83072287D01*
X100395864Y-82989707D01*
X100447804Y-82951971D01*
X100447806Y-82951968D01*
X100447810Y-82951966D01*
X100592557Y-82807219D01*
X100592559Y-82807215D01*
X100592562Y-82807213D01*
X100677286Y-82690598D01*
X100712878Y-82641610D01*
X100805811Y-82459219D01*
X100869068Y-82264534D01*
X100901091Y-82062352D01*
X100901091Y-81857648D01*
X100880632Y-81728477D01*
X100869068Y-81655465D01*
X100818554Y-81500000D01*
X100805811Y-81460781D01*
X100805809Y-81460778D01*
X100805809Y-81460776D01*
X100747126Y-81345606D01*
X100712878Y-81278390D01*
X100689941Y-81246819D01*
X100592562Y-81112786D01*
X100447808Y-80968032D01*
X100447803Y-80968028D01*
X100402206Y-80934900D01*
X100359540Y-80879571D01*
X100351091Y-80834582D01*
X100351091Y-73716670D01*
X100322250Y-73571683D01*
X100322249Y-73571682D01*
X100322249Y-73571678D01*
X100311474Y-73545664D01*
X100265678Y-73435102D01*
X100265671Y-73435089D01*
X100183543Y-73312176D01*
X100134791Y-73263424D01*
X100079007Y-73207640D01*
X98786637Y-71915270D01*
X97458005Y-70586637D01*
X97450712Y-70573281D01*
X97439499Y-70562990D01*
X97434307Y-70543237D01*
X97424520Y-70525314D01*
X97425331Y-70509090D01*
X97421737Y-70495415D01*
X97427754Y-70460642D01*
X97444074Y-70410413D01*
X97483510Y-70352741D01*
X97547869Y-70325542D01*
X97616715Y-70337456D01*
X97649685Y-70361053D01*
X103963181Y-76674548D01*
X103996666Y-76735871D01*
X103999500Y-76762229D01*
X103999500Y-81887770D01*
X103979815Y-81954809D01*
X103963181Y-81975451D01*
X100725451Y-85213181D01*
X100664128Y-85246666D01*
X100637770Y-85249500D01*
X91926080Y-85249500D01*
X91781092Y-85278340D01*
X91781082Y-85278343D01*
X91644509Y-85334913D01*
X91644507Y-85334914D01*
X91633521Y-85342255D01*
X91627950Y-85345978D01*
X91521579Y-85417051D01*
X83339201Y-93599429D01*
X83277878Y-93632914D01*
X83208186Y-93627930D01*
X83204067Y-93626309D01*
X83144428Y-93601605D01*
X83144421Y-93601603D01*
X83144419Y-93601602D01*
X82891116Y-93533730D01*
X82833339Y-93526123D01*
X82631127Y-93499500D01*
X82631120Y-93499500D01*
X82368880Y-93499500D01*
X82368872Y-93499500D01*
X82137772Y-93529926D01*
X82108884Y-93533730D01*
X81889364Y-93592550D01*
X81855581Y-93601602D01*
X81855571Y-93601605D01*
X81613309Y-93701953D01*
X81613299Y-93701958D01*
X81386196Y-93833075D01*
X81178148Y-93992718D01*
X80992718Y-94178148D01*
X80833075Y-94386196D01*
X80701958Y-94613299D01*
X80701953Y-94613309D01*
X80601605Y-94855571D01*
X80601602Y-94855581D01*
X80558161Y-95017708D01*
X80533730Y-95108885D01*
X80499500Y-95368872D01*
X80499500Y-95631127D01*
X80518568Y-95775955D01*
X80533730Y-95891116D01*
X80584341Y-96080000D01*
X80601602Y-96144418D01*
X80601605Y-96144428D01*
X80701953Y-96386690D01*
X80701958Y-96386700D01*
X80833075Y-96613803D01*
X80992718Y-96821851D01*
X80992726Y-96821860D01*
X81178140Y-97007274D01*
X81178148Y-97007281D01*
X81386196Y-97166924D01*
X81613299Y-97298041D01*
X81613309Y-97298046D01*
X81855571Y-97398394D01*
X81855581Y-97398398D01*
X82108884Y-97466270D01*
X82357188Y-97498960D01*
X82368864Y-97500498D01*
X82368880Y-97500500D01*
X82368887Y-97500500D01*
X82631113Y-97500500D01*
X82631120Y-97500500D01*
X82891116Y-97466270D01*
X83144419Y-97398398D01*
X83386697Y-97298043D01*
X83613803Y-97166924D01*
X83821851Y-97007282D01*
X83821855Y-97007277D01*
X83821860Y-97007274D01*
X84007274Y-96821860D01*
X84007277Y-96821855D01*
X84007282Y-96821851D01*
X84166924Y-96613803D01*
X84298043Y-96386697D01*
X84298580Y-96385402D01*
X84365407Y-96224066D01*
X84398398Y-96144419D01*
X84466270Y-95891116D01*
X84500500Y-95631120D01*
X84500500Y-95368880D01*
X84500499Y-95368872D01*
X85499500Y-95368872D01*
X85499500Y-95631127D01*
X85518568Y-95775955D01*
X85533730Y-95891116D01*
X85584341Y-96080000D01*
X85601602Y-96144418D01*
X85601605Y-96144428D01*
X85701953Y-96386690D01*
X85701958Y-96386700D01*
X85833075Y-96613803D01*
X85992718Y-96821851D01*
X85992726Y-96821860D01*
X86178140Y-97007274D01*
X86178148Y-97007281D01*
X86386196Y-97166924D01*
X86613299Y-97298041D01*
X86613309Y-97298046D01*
X86855571Y-97398394D01*
X86855581Y-97398398D01*
X87108884Y-97466270D01*
X87357188Y-97498960D01*
X87368864Y-97500498D01*
X87368880Y-97500500D01*
X87368887Y-97500500D01*
X87631113Y-97500500D01*
X87631120Y-97500500D01*
X87891116Y-97466270D01*
X88144419Y-97398398D01*
X88386697Y-97298043D01*
X88613803Y-97166924D01*
X88821851Y-97007282D01*
X88821855Y-97007277D01*
X88821860Y-97007274D01*
X89007274Y-96821860D01*
X89007277Y-96821855D01*
X89007282Y-96821851D01*
X89166924Y-96613803D01*
X89298043Y-96386697D01*
X89298422Y-96385783D01*
X89322051Y-96328738D01*
X89373319Y-96204963D01*
X89398398Y-96144419D01*
X89466270Y-95891116D01*
X89500500Y-95631120D01*
X89500500Y-95368880D01*
X89466270Y-95108884D01*
X89398398Y-94855581D01*
X89398394Y-94855571D01*
X89298046Y-94613309D01*
X89298041Y-94613299D01*
X89166924Y-94386196D01*
X89028053Y-94205218D01*
X89007282Y-94178149D01*
X89007281Y-94178148D01*
X89007274Y-94178140D01*
X88821860Y-93992726D01*
X88821851Y-93992718D01*
X88613803Y-93833075D01*
X88386700Y-93701958D01*
X88386690Y-93701953D01*
X88144428Y-93601605D01*
X88144421Y-93601603D01*
X88144422Y-93601603D01*
X88144419Y-93601602D01*
X88110637Y-93592550D01*
X88054309Y-93577457D01*
X87891116Y-93533730D01*
X87833339Y-93526123D01*
X87631127Y-93499500D01*
X87631120Y-93499500D01*
X87368880Y-93499500D01*
X87368872Y-93499500D01*
X87137772Y-93529926D01*
X87108884Y-93533730D01*
X86889364Y-93592550D01*
X86855581Y-93601602D01*
X86855571Y-93601605D01*
X86613309Y-93701953D01*
X86613299Y-93701958D01*
X86386196Y-93833075D01*
X86178148Y-93992718D01*
X85992718Y-94178148D01*
X85833075Y-94386196D01*
X85701958Y-94613299D01*
X85701953Y-94613309D01*
X85601605Y-94855571D01*
X85601602Y-94855581D01*
X85558161Y-95017708D01*
X85533730Y-95108885D01*
X85499500Y-95368872D01*
X84500499Y-95368872D01*
X84466270Y-95108884D01*
X84398398Y-94855581D01*
X84373688Y-94795927D01*
X84366220Y-94726463D01*
X84397494Y-94663983D01*
X84400541Y-94660825D01*
X85583718Y-93477648D01*
X102498318Y-93477648D01*
X102498318Y-93682351D01*
X102530340Y-93884534D01*
X102593599Y-94079223D01*
X102644846Y-94179799D01*
X102673451Y-94235940D01*
X102686533Y-94261613D01*
X102806846Y-94427213D01*
X102951604Y-94571971D01*
X103100296Y-94680000D01*
X103117208Y-94692287D01*
X103233425Y-94751503D01*
X103299594Y-94785218D01*
X103299596Y-94785218D01*
X103299599Y-94785220D01*
X103403955Y-94819127D01*
X103494283Y-94848477D01*
X103539136Y-94855581D01*
X103696466Y-94880500D01*
X103696467Y-94880500D01*
X103901169Y-94880500D01*
X103901170Y-94880500D01*
X104103352Y-94848477D01*
X104298037Y-94785220D01*
X104480428Y-94692287D01*
X104589147Y-94613299D01*
X104646031Y-94571971D01*
X104646033Y-94571968D01*
X104646037Y-94571966D01*
X104790784Y-94427219D01*
X104790786Y-94427215D01*
X104790789Y-94427213D01*
X104868055Y-94320864D01*
X104911105Y-94261610D01*
X105004038Y-94079219D01*
X105067295Y-93884534D01*
X105099318Y-93682352D01*
X105099318Y-93477648D01*
X105090499Y-93421971D01*
X105099453Y-93352680D01*
X105125288Y-93314896D01*
X105542536Y-92897648D01*
X107699500Y-92897648D01*
X107699500Y-93102351D01*
X107731522Y-93304534D01*
X107794781Y-93499223D01*
X107846947Y-93601602D01*
X107875691Y-93658016D01*
X107887715Y-93681613D01*
X108008028Y-93847213D01*
X108152786Y-93991971D01*
X108272875Y-94079219D01*
X108318390Y-94112287D01*
X108401083Y-94154421D01*
X108500776Y-94205218D01*
X108500778Y-94205218D01*
X108500781Y-94205220D01*
X108596303Y-94236257D01*
X108695465Y-94268477D01*
X108796557Y-94284488D01*
X108897648Y-94300500D01*
X108897649Y-94300500D01*
X109102351Y-94300500D01*
X109102352Y-94300500D01*
X109296320Y-94269778D01*
X124599500Y-94269778D01*
X124599500Y-94490221D01*
X124633985Y-94707952D01*
X124702103Y-94917603D01*
X124702104Y-94917606D01*
X124802187Y-95114025D01*
X124931752Y-95292358D01*
X124931756Y-95292363D01*
X125087636Y-95448243D01*
X125087641Y-95448247D01*
X125243192Y-95561260D01*
X125265978Y-95577815D01*
X125370580Y-95631113D01*
X125462393Y-95677895D01*
X125462396Y-95677896D01*
X125567221Y-95711955D01*
X125672049Y-95746015D01*
X125889778Y-95780500D01*
X125889779Y-95780500D01*
X126110221Y-95780500D01*
X126110222Y-95780500D01*
X126327951Y-95746015D01*
X126537606Y-95677895D01*
X126734022Y-95577815D01*
X126912365Y-95448242D01*
X127068242Y-95292365D01*
X127197815Y-95114022D01*
X127297895Y-94917606D01*
X127310533Y-94878711D01*
X133149500Y-94878711D01*
X133149500Y-95121288D01*
X133173344Y-95302409D01*
X133181162Y-95361789D01*
X133204329Y-95448247D01*
X133243947Y-95596104D01*
X133322857Y-95786609D01*
X133336776Y-95820212D01*
X133458064Y-96030289D01*
X133458066Y-96030292D01*
X133458067Y-96030293D01*
X133605733Y-96222736D01*
X133605739Y-96222743D01*
X133777256Y-96394260D01*
X133777262Y-96394265D01*
X133969711Y-96541936D01*
X134179788Y-96663224D01*
X134403900Y-96756054D01*
X134638211Y-96818838D01*
X134818586Y-96842584D01*
X134878711Y-96850500D01*
X134878712Y-96850500D01*
X135121289Y-96850500D01*
X135169388Y-96844167D01*
X135361789Y-96818838D01*
X135596100Y-96756054D01*
X135820212Y-96663224D01*
X136030289Y-96541936D01*
X136222738Y-96394265D01*
X136394265Y-96222738D01*
X136541936Y-96030289D01*
X136663224Y-95820212D01*
X136756054Y-95596100D01*
X136818838Y-95361789D01*
X136850500Y-95121288D01*
X136850500Y-94878712D01*
X136847453Y-94855571D01*
X136825957Y-94692287D01*
X136818838Y-94638211D01*
X136756054Y-94403900D01*
X136663224Y-94179788D01*
X136541936Y-93969711D01*
X136444244Y-93842396D01*
X136394266Y-93777263D01*
X136394260Y-93777256D01*
X136222743Y-93605739D01*
X136222736Y-93605733D01*
X136030293Y-93458067D01*
X136030292Y-93458066D01*
X136030289Y-93458064D01*
X135820212Y-93336776D01*
X135767382Y-93314893D01*
X135596104Y-93243947D01*
X135361785Y-93181161D01*
X135121289Y-93149500D01*
X135121288Y-93149500D01*
X134878712Y-93149500D01*
X134878711Y-93149500D01*
X134638214Y-93181161D01*
X134403895Y-93243947D01*
X134179794Y-93336773D01*
X134179785Y-93336777D01*
X133969706Y-93458067D01*
X133777263Y-93605733D01*
X133777256Y-93605739D01*
X133605739Y-93777256D01*
X133605733Y-93777263D01*
X133458067Y-93969706D01*
X133336777Y-94179785D01*
X133336773Y-94179794D01*
X133243947Y-94403895D01*
X133181161Y-94638214D01*
X133149500Y-94878711D01*
X127310533Y-94878711D01*
X127366015Y-94707951D01*
X127400500Y-94490222D01*
X127400500Y-94269778D01*
X127366015Y-94052049D01*
X127314181Y-93892517D01*
X127297896Y-93842396D01*
X127297895Y-93842393D01*
X127254722Y-93757664D01*
X127197815Y-93645978D01*
X127168577Y-93605735D01*
X127068247Y-93467641D01*
X127068243Y-93467636D01*
X126912363Y-93311756D01*
X126912358Y-93311752D01*
X126734025Y-93182187D01*
X126734024Y-93182186D01*
X126734022Y-93182185D01*
X126669875Y-93149500D01*
X126537606Y-93082104D01*
X126537603Y-93082103D01*
X126327952Y-93013985D01*
X126219086Y-92996742D01*
X126110222Y-92979500D01*
X125889778Y-92979500D01*
X125817201Y-92990995D01*
X125672047Y-93013985D01*
X125462396Y-93082103D01*
X125462393Y-93082104D01*
X125265974Y-93182187D01*
X125087641Y-93311752D01*
X125087636Y-93311756D01*
X124931756Y-93467636D01*
X124931752Y-93467641D01*
X124802187Y-93645974D01*
X124702104Y-93842393D01*
X124702103Y-93842396D01*
X124633985Y-94052047D01*
X124599500Y-94269778D01*
X109296320Y-94269778D01*
X109304534Y-94268477D01*
X109499219Y-94205220D01*
X109681610Y-94112287D01*
X109734011Y-94074216D01*
X109847213Y-93991971D01*
X109847215Y-93991968D01*
X109847219Y-93991966D01*
X109991966Y-93847219D01*
X109991968Y-93847215D01*
X109991971Y-93847213D01*
X110057031Y-93757664D01*
X110112287Y-93681610D01*
X110205220Y-93499219D01*
X110268477Y-93304534D01*
X110300500Y-93102352D01*
X110300500Y-92897648D01*
X110268477Y-92695466D01*
X110205220Y-92500781D01*
X110205218Y-92500778D01*
X110205218Y-92500776D01*
X110171503Y-92434607D01*
X110112287Y-92318390D01*
X110065161Y-92253526D01*
X109991971Y-92152786D01*
X109847213Y-92008028D01*
X109681613Y-91887715D01*
X109681612Y-91887714D01*
X109681610Y-91887713D01*
X109624653Y-91858691D01*
X109499223Y-91794781D01*
X109304534Y-91731522D01*
X109129995Y-91703878D01*
X109102352Y-91699500D01*
X108897648Y-91699500D01*
X108873329Y-91703351D01*
X108695465Y-91731522D01*
X108500776Y-91794781D01*
X108318386Y-91887715D01*
X108152786Y-92008028D01*
X108008028Y-92152786D01*
X107887715Y-92318386D01*
X107794781Y-92500776D01*
X107731522Y-92695465D01*
X107699500Y-92897648D01*
X105542536Y-92897648D01*
X107153367Y-91286819D01*
X107214690Y-91253334D01*
X107241048Y-91250500D01*
X116033920Y-91250500D01*
X116131462Y-91231096D01*
X116178913Y-91221658D01*
X116315495Y-91165084D01*
X116364729Y-91132186D01*
X116438416Y-91082952D01*
X121551589Y-85969778D01*
X124599500Y-85969778D01*
X124599500Y-86190221D01*
X124633985Y-86407952D01*
X124702103Y-86617602D01*
X124702104Y-86617605D01*
X124702105Y-86617606D01*
X124788324Y-86786819D01*
X124802187Y-86814025D01*
X124931752Y-86992358D01*
X124931756Y-86992363D01*
X125087636Y-87148243D01*
X125087641Y-87148247D01*
X125158186Y-87199500D01*
X125265978Y-87277815D01*
X125394375Y-87343237D01*
X125462393Y-87377895D01*
X125462396Y-87377896D01*
X125492617Y-87387715D01*
X125672049Y-87446015D01*
X125889778Y-87480500D01*
X125889779Y-87480500D01*
X126110221Y-87480500D01*
X126110222Y-87480500D01*
X126327951Y-87446015D01*
X126537606Y-87377895D01*
X126734022Y-87277815D01*
X126912365Y-87148242D01*
X127068242Y-86992365D01*
X127197815Y-86814022D01*
X127297895Y-86617606D01*
X127297895Y-86617605D01*
X127297897Y-86617602D01*
X127332580Y-86510852D01*
X127366015Y-86407951D01*
X127400500Y-86190222D01*
X127400500Y-85969778D01*
X127366015Y-85752049D01*
X127297895Y-85542394D01*
X127297895Y-85542393D01*
X127263237Y-85474375D01*
X127197815Y-85345978D01*
X127148675Y-85278342D01*
X127068247Y-85167641D01*
X127068243Y-85167636D01*
X126912363Y-85011756D01*
X126912358Y-85011752D01*
X126734025Y-84882187D01*
X126734024Y-84882186D01*
X126734022Y-84882185D01*
X126671096Y-84850122D01*
X126537606Y-84782104D01*
X126537603Y-84782103D01*
X126327952Y-84713985D01*
X126194106Y-84692786D01*
X126110222Y-84679500D01*
X125889778Y-84679500D01*
X125817201Y-84690995D01*
X125672047Y-84713985D01*
X125462396Y-84782103D01*
X125462393Y-84782104D01*
X125265974Y-84882187D01*
X125087641Y-85011752D01*
X125087636Y-85011756D01*
X124931756Y-85167636D01*
X124931752Y-85167641D01*
X124802187Y-85345974D01*
X124702104Y-85542393D01*
X124702103Y-85542396D01*
X124633985Y-85752047D01*
X124599500Y-85969778D01*
X121551589Y-85969778D01*
X125388319Y-82133047D01*
X125449642Y-82099563D01*
X125519334Y-82104547D01*
X125575267Y-82146419D01*
X125599684Y-82211883D01*
X125600000Y-82220729D01*
X125600000Y-82947844D01*
X125606401Y-83007372D01*
X125606403Y-83007379D01*
X125656645Y-83142086D01*
X125656649Y-83142093D01*
X125742809Y-83257187D01*
X125742812Y-83257190D01*
X125857906Y-83343350D01*
X125857913Y-83343354D01*
X125992620Y-83393596D01*
X125992627Y-83393598D01*
X126052155Y-83399999D01*
X126052172Y-83400000D01*
X126750000Y-83400000D01*
X126750000Y-82375277D01*
X126826306Y-82419333D01*
X126940756Y-82450000D01*
X127059244Y-82450000D01*
X127173694Y-82419333D01*
X127250000Y-82375277D01*
X127250000Y-83400000D01*
X127947828Y-83400000D01*
X127947844Y-83399999D01*
X128007372Y-83393598D01*
X128007379Y-83393596D01*
X128142086Y-83343354D01*
X128142093Y-83343350D01*
X128257187Y-83257190D01*
X128257190Y-83257187D01*
X128343350Y-83142093D01*
X128343354Y-83142086D01*
X128393596Y-83007379D01*
X128393598Y-83007372D01*
X128399999Y-82947844D01*
X128400000Y-82947827D01*
X128400000Y-82250000D01*
X127375278Y-82250000D01*
X127419333Y-82173694D01*
X127450000Y-82059244D01*
X127450000Y-81940756D01*
X127419333Y-81826306D01*
X127375278Y-81750000D01*
X128400000Y-81750000D01*
X128400000Y-81052172D01*
X128399999Y-81052155D01*
X128393598Y-80992627D01*
X128393596Y-80992620D01*
X128343354Y-80857913D01*
X128343350Y-80857906D01*
X128257190Y-80742812D01*
X128257187Y-80742809D01*
X128142093Y-80656649D01*
X128142087Y-80656646D01*
X128062030Y-80626786D01*
X128006097Y-80584914D01*
X127981680Y-80519450D01*
X127996532Y-80451177D01*
X128017681Y-80422925D01*
X128068242Y-80372365D01*
X128197815Y-80194022D01*
X128297895Y-79997606D01*
X128366015Y-79787951D01*
X128400500Y-79570222D01*
X128400500Y-79349778D01*
X128366015Y-79132049D01*
X128321596Y-78995339D01*
X128297896Y-78922396D01*
X128297895Y-78922393D01*
X128239008Y-78806823D01*
X128197815Y-78725978D01*
X128090917Y-78578844D01*
X128068247Y-78547641D01*
X128068243Y-78547636D01*
X127912363Y-78391756D01*
X127912358Y-78391752D01*
X127734025Y-78262187D01*
X127734024Y-78262186D01*
X127734022Y-78262185D01*
X127671096Y-78230122D01*
X127537606Y-78162104D01*
X127537603Y-78162103D01*
X127327952Y-78093985D01*
X127219086Y-78076742D01*
X127110222Y-78059500D01*
X126889778Y-78059500D01*
X126817201Y-78070995D01*
X126672047Y-78093985D01*
X126462396Y-78162103D01*
X126462393Y-78162104D01*
X126265974Y-78262187D01*
X126087641Y-78391752D01*
X126087636Y-78391756D01*
X125931756Y-78547636D01*
X125931752Y-78547641D01*
X125802187Y-78725974D01*
X125702104Y-78922393D01*
X125702103Y-78922396D01*
X125633985Y-79132047D01*
X125599500Y-79349778D01*
X125599500Y-79570227D01*
X125620914Y-79705429D01*
X125611959Y-79774722D01*
X125586122Y-79812508D01*
X115685451Y-89713181D01*
X115624128Y-89746666D01*
X115597770Y-89749500D01*
X106804898Y-89749500D01*
X106659910Y-89778340D01*
X106659904Y-89778342D01*
X106523326Y-89834914D01*
X106523314Y-89834921D01*
X106474087Y-89867813D01*
X106400406Y-89917044D01*
X106400398Y-89917050D01*
X104063922Y-92253526D01*
X104002599Y-92287011D01*
X103956843Y-92288318D01*
X103901170Y-92279500D01*
X103696466Y-92279500D01*
X103672147Y-92283351D01*
X103494283Y-92311522D01*
X103299594Y-92374781D01*
X103117204Y-92467715D01*
X102951604Y-92588028D01*
X102806846Y-92732786D01*
X102686533Y-92898386D01*
X102593599Y-93080776D01*
X102530340Y-93275465D01*
X102498318Y-93477648D01*
X85583718Y-93477648D01*
X90663720Y-88397648D01*
X93699500Y-88397648D01*
X93699500Y-88602351D01*
X93731522Y-88804534D01*
X93794781Y-88999223D01*
X93887715Y-89181613D01*
X94008028Y-89347213D01*
X94152786Y-89491971D01*
X94307749Y-89604556D01*
X94318390Y-89612287D01*
X94434607Y-89671503D01*
X94500776Y-89705218D01*
X94500778Y-89705218D01*
X94500781Y-89705220D01*
X94605137Y-89739127D01*
X94695465Y-89768477D01*
X94757750Y-89778342D01*
X94897648Y-89800500D01*
X94897649Y-89800500D01*
X95102351Y-89800500D01*
X95102352Y-89800500D01*
X95304534Y-89768477D01*
X95499219Y-89705220D01*
X95681610Y-89612287D01*
X95774590Y-89544732D01*
X95847213Y-89491971D01*
X95847215Y-89491968D01*
X95847219Y-89491966D01*
X95991966Y-89347219D01*
X95991968Y-89347215D01*
X95991971Y-89347213D01*
X96044732Y-89274590D01*
X96112287Y-89181610D01*
X96205220Y-88999219D01*
X96268477Y-88804534D01*
X96300500Y-88602352D01*
X96300500Y-88397648D01*
X96268477Y-88195465D01*
X96215354Y-88031971D01*
X96205220Y-88000781D01*
X96205218Y-88000778D01*
X96205218Y-88000776D01*
X96147354Y-87887213D01*
X96112287Y-87818390D01*
X96104556Y-87807749D01*
X95991971Y-87652786D01*
X95847213Y-87508028D01*
X95681613Y-87387715D01*
X95681612Y-87387714D01*
X95681610Y-87387713D01*
X95596867Y-87344534D01*
X95499223Y-87294781D01*
X95304534Y-87231522D01*
X95129995Y-87203878D01*
X95102352Y-87199500D01*
X94897648Y-87199500D01*
X94873329Y-87203351D01*
X94695465Y-87231522D01*
X94500776Y-87294781D01*
X94318386Y-87387715D01*
X94152786Y-87508028D01*
X94008028Y-87652786D01*
X93887715Y-87818386D01*
X93794781Y-88000776D01*
X93731522Y-88195465D01*
X93699500Y-88397648D01*
X90663720Y-88397648D01*
X92123720Y-86937648D01*
X107098909Y-86937648D01*
X107098909Y-87142351D01*
X107130931Y-87344534D01*
X107194190Y-87539223D01*
X107287124Y-87721613D01*
X107407437Y-87887213D01*
X107552195Y-88031971D01*
X107707158Y-88144556D01*
X107717799Y-88152287D01*
X107834016Y-88211503D01*
X107900185Y-88245218D01*
X107900187Y-88245218D01*
X107900190Y-88245220D01*
X108004546Y-88279127D01*
X108094874Y-88308477D01*
X108195966Y-88324488D01*
X108297057Y-88340500D01*
X108297058Y-88340500D01*
X108501760Y-88340500D01*
X108501761Y-88340500D01*
X108703943Y-88308477D01*
X108898628Y-88245220D01*
X109081019Y-88152287D01*
X109173999Y-88084732D01*
X109246622Y-88031971D01*
X109246624Y-88031968D01*
X109246628Y-88031966D01*
X109391375Y-87887219D01*
X109391377Y-87887215D01*
X109391380Y-87887213D01*
X109444141Y-87814590D01*
X109511696Y-87721610D01*
X109604629Y-87539219D01*
X109667886Y-87344534D01*
X109699909Y-87142352D01*
X109699909Y-86937648D01*
X109667886Y-86735466D01*
X109645018Y-86665087D01*
X109618331Y-86582952D01*
X109604629Y-86540781D01*
X109604627Y-86540778D01*
X109604627Y-86540776D01*
X109570912Y-86474607D01*
X109511696Y-86358390D01*
X109503965Y-86347749D01*
X109391380Y-86192786D01*
X109246622Y-86048028D01*
X109081022Y-85927715D01*
X109081021Y-85927714D01*
X109081019Y-85927713D01*
X109024062Y-85898691D01*
X108898632Y-85834781D01*
X108703943Y-85771522D01*
X108529404Y-85743878D01*
X108501761Y-85739500D01*
X108297057Y-85739500D01*
X108272738Y-85743351D01*
X108094874Y-85771522D01*
X107900185Y-85834781D01*
X107717795Y-85927715D01*
X107552195Y-86048028D01*
X107407437Y-86192786D01*
X107287124Y-86358386D01*
X107194190Y-86540776D01*
X107130931Y-86735465D01*
X107098909Y-86937648D01*
X92123720Y-86937648D01*
X92274549Y-86786819D01*
X92335872Y-86753334D01*
X92362230Y-86750500D01*
X101073920Y-86750500D01*
X101171462Y-86731096D01*
X101218913Y-86721658D01*
X101355495Y-86665084D01*
X101426551Y-86617606D01*
X101478416Y-86582952D01*
X104640215Y-83421153D01*
X108699500Y-83421153D01*
X108699500Y-83578846D01*
X108730261Y-83733489D01*
X108730264Y-83733501D01*
X108790602Y-83879172D01*
X108790609Y-83879185D01*
X108878210Y-84010288D01*
X108878213Y-84010292D01*
X108989707Y-84121786D01*
X108989711Y-84121789D01*
X109120814Y-84209390D01*
X109120827Y-84209397D01*
X109249461Y-84262678D01*
X109266503Y-84269737D01*
X109421153Y-84300499D01*
X109421156Y-84300500D01*
X109421158Y-84300500D01*
X109578844Y-84300500D01*
X109578845Y-84300499D01*
X109733497Y-84269737D01*
X109849576Y-84221656D01*
X109879172Y-84209397D01*
X109879172Y-84209396D01*
X109879179Y-84209394D01*
X110010289Y-84121789D01*
X110121789Y-84010289D01*
X110209394Y-83879179D01*
X110219191Y-83855524D01*
X110246069Y-83815297D01*
X114815297Y-79246069D01*
X114855524Y-79219191D01*
X114879179Y-79209394D01*
X115010289Y-79121789D01*
X115121789Y-79010289D01*
X115209394Y-78879179D01*
X115269737Y-78733497D01*
X115300500Y-78578842D01*
X115300500Y-78421158D01*
X115300500Y-78421155D01*
X115300499Y-78421153D01*
X115269737Y-78266503D01*
X115267949Y-78262187D01*
X115209397Y-78120827D01*
X115209390Y-78120814D01*
X115121789Y-77989711D01*
X115121786Y-77989707D01*
X115010292Y-77878213D01*
X115010288Y-77878210D01*
X114879185Y-77790609D01*
X114879172Y-77790602D01*
X114733501Y-77730264D01*
X114733489Y-77730261D01*
X114578845Y-77699500D01*
X114578842Y-77699500D01*
X114421158Y-77699500D01*
X114421155Y-77699500D01*
X114266510Y-77730261D01*
X114266498Y-77730264D01*
X114120827Y-77790602D01*
X114120814Y-77790609D01*
X113989711Y-77878210D01*
X113989707Y-77878213D01*
X113878213Y-77989707D01*
X113878207Y-77989715D01*
X113790607Y-78120818D01*
X113790606Y-78120819D01*
X113780805Y-78144480D01*
X113753927Y-78184703D01*
X109184703Y-82753927D01*
X109144480Y-82780805D01*
X109120819Y-82790606D01*
X109120818Y-82790607D01*
X108989715Y-82878207D01*
X108989707Y-82878213D01*
X108878213Y-82989707D01*
X108878210Y-82989711D01*
X108790609Y-83120814D01*
X108790602Y-83120827D01*
X108730264Y-83266498D01*
X108730261Y-83266510D01*
X108699500Y-83421153D01*
X104640215Y-83421153D01*
X105332952Y-82728416D01*
X105332952Y-82728415D01*
X106814548Y-81246819D01*
X106875871Y-81213334D01*
X106902229Y-81210500D01*
X107475173Y-81210500D01*
X107542212Y-81230185D01*
X107575491Y-81261615D01*
X107608619Y-81307212D01*
X107608623Y-81307217D01*
X107753377Y-81451971D01*
X107888305Y-81550000D01*
X107918981Y-81572287D01*
X108035198Y-81631503D01*
X108101367Y-81665218D01*
X108101369Y-81665218D01*
X108101372Y-81665220D01*
X108205728Y-81699127D01*
X108296056Y-81728477D01*
X108397148Y-81744488D01*
X108498239Y-81760500D01*
X108498240Y-81760500D01*
X108702942Y-81760500D01*
X108702943Y-81760500D01*
X108905125Y-81728477D01*
X109099810Y-81665220D01*
X109282201Y-81572287D01*
X109381698Y-81499999D01*
X109447804Y-81451971D01*
X109447806Y-81451968D01*
X109447810Y-81451966D01*
X109592557Y-81307219D01*
X109592559Y-81307215D01*
X109592562Y-81307213D01*
X109673665Y-81195582D01*
X109712878Y-81141610D01*
X109805811Y-80959219D01*
X109869068Y-80764534D01*
X109901091Y-80562352D01*
X109901091Y-80357648D01*
X109881970Y-80236924D01*
X109869068Y-80155465D01*
X109805809Y-79960776D01*
X109763147Y-79877048D01*
X109712878Y-79778390D01*
X109705147Y-79767749D01*
X109592562Y-79612786D01*
X109447804Y-79468028D01*
X109282204Y-79347715D01*
X109282203Y-79347714D01*
X109282201Y-79347713D01*
X109225244Y-79318691D01*
X109099814Y-79254781D01*
X108905125Y-79191522D01*
X108730586Y-79163878D01*
X108702943Y-79159500D01*
X108498239Y-79159500D01*
X108473920Y-79163351D01*
X108296056Y-79191522D01*
X108101367Y-79254781D01*
X107918977Y-79347715D01*
X107753377Y-79468028D01*
X107608623Y-79612782D01*
X107608619Y-79612787D01*
X107575491Y-79658385D01*
X107520162Y-79701051D01*
X107475173Y-79709500D01*
X106466080Y-79709500D01*
X106321092Y-79738340D01*
X106321082Y-79738343D01*
X106184511Y-79794912D01*
X106184498Y-79794919D01*
X106061584Y-79877048D01*
X106061580Y-79877051D01*
X105712181Y-80226451D01*
X105650858Y-80259936D01*
X105581166Y-80254952D01*
X105525233Y-80213080D01*
X105500816Y-80147616D01*
X105500500Y-80138770D01*
X105500500Y-76326079D01*
X105471659Y-76181092D01*
X105471658Y-76181091D01*
X105471658Y-76181087D01*
X105437413Y-76098412D01*
X105415087Y-76044511D01*
X105415080Y-76044498D01*
X105332952Y-75921585D01*
X105283202Y-75871835D01*
X105228416Y-75817049D01*
X103128037Y-73716670D01*
X100940771Y-71529403D01*
X100856239Y-71444871D01*
X122699500Y-71444871D01*
X122699500Y-72644889D01*
X122699501Y-72644906D01*
X122710000Y-72747684D01*
X122710001Y-72747687D01*
X122765185Y-72914219D01*
X122765187Y-72914224D01*
X122811237Y-72988883D01*
X122857288Y-73063544D01*
X122926152Y-73132408D01*
X122926153Y-73132409D01*
X122959637Y-73193733D01*
X122954652Y-73263424D01*
X122938790Y-73292973D01*
X122887717Y-73363271D01*
X122887712Y-73363279D01*
X122794781Y-73545664D01*
X122731522Y-73740353D01*
X122699500Y-73942536D01*
X122699500Y-74147239D01*
X122731522Y-74349422D01*
X122794781Y-74544111D01*
X122887715Y-74726501D01*
X123008028Y-74892101D01*
X123152786Y-75036859D01*
X123251823Y-75108812D01*
X123318390Y-75157175D01*
X123434607Y-75216391D01*
X123500776Y-75250106D01*
X123500778Y-75250106D01*
X123500781Y-75250108D01*
X123605137Y-75284015D01*
X123695465Y-75313365D01*
X123796557Y-75329376D01*
X123897648Y-75345388D01*
X123897649Y-75345388D01*
X124102351Y-75345388D01*
X124102352Y-75345388D01*
X124304534Y-75313365D01*
X124499219Y-75250108D01*
X124681610Y-75157175D01*
X124801516Y-75070059D01*
X124847213Y-75036859D01*
X124847215Y-75036856D01*
X124847219Y-75036854D01*
X124991966Y-74892107D01*
X124991968Y-74892103D01*
X124991971Y-74892101D01*
X125044732Y-74819478D01*
X125112287Y-74726498D01*
X125205220Y-74544107D01*
X125268477Y-74349422D01*
X125300500Y-74147240D01*
X125300500Y-73942536D01*
X125273305Y-73770838D01*
X125268477Y-73740353D01*
X125205218Y-73545664D01*
X125148877Y-73435089D01*
X125112287Y-73363278D01*
X125061207Y-73292973D01*
X125037729Y-73227170D01*
X125053554Y-73159116D01*
X125073839Y-73132416D01*
X125142712Y-73063544D01*
X125234814Y-72914222D01*
X125289999Y-72747685D01*
X125300500Y-72644897D01*
X125300499Y-71444880D01*
X125289999Y-71342091D01*
X125234814Y-71175554D01*
X125142712Y-71026232D01*
X125018656Y-70902176D01*
X124869334Y-70810074D01*
X124702797Y-70754889D01*
X124702795Y-70754888D01*
X124600010Y-70744388D01*
X123399998Y-70744388D01*
X123399981Y-70744389D01*
X123297203Y-70754888D01*
X123297200Y-70754889D01*
X123130668Y-70810073D01*
X123130663Y-70810075D01*
X122981342Y-70902177D01*
X122857289Y-71026230D01*
X122765187Y-71175551D01*
X122765185Y-71175556D01*
X122754603Y-71207490D01*
X122710001Y-71342091D01*
X122710001Y-71342092D01*
X122710000Y-71342092D01*
X122699500Y-71444871D01*
X100856239Y-71444871D01*
X97458005Y-68046637D01*
X97424520Y-67985314D01*
X97427754Y-67920640D01*
X97478477Y-67764534D01*
X97510500Y-67562352D01*
X97510500Y-67357648D01*
X97484548Y-67193796D01*
X97478477Y-67155465D01*
X97437020Y-67027876D01*
X97415220Y-66960781D01*
X97415218Y-66960778D01*
X97415218Y-66960776D01*
X97362586Y-66857482D01*
X97322287Y-66778390D01*
X97281483Y-66722227D01*
X97201971Y-66612786D01*
X97057213Y-66468028D01*
X96891614Y-66347715D01*
X96884884Y-66344286D01*
X96798917Y-66300483D01*
X96748123Y-66252511D01*
X96731328Y-66184690D01*
X96753865Y-66118555D01*
X96798917Y-66079516D01*
X96891610Y-66032287D01*
X96922696Y-66009702D01*
X97057213Y-65911971D01*
X97057215Y-65911968D01*
X97057219Y-65911966D01*
X97201966Y-65767219D01*
X97201968Y-65767215D01*
X97201971Y-65767213D01*
X97254732Y-65694590D01*
X97322287Y-65601610D01*
X97415220Y-65419219D01*
X97478477Y-65224534D01*
X97510500Y-65022352D01*
X97510500Y-64817648D01*
X97502127Y-64764785D01*
X97478477Y-64615465D01*
X97433715Y-64477704D01*
X97415220Y-64420781D01*
X97415218Y-64420778D01*
X97415218Y-64420776D01*
X97361557Y-64315461D01*
X97335355Y-64264038D01*
X100399500Y-64264038D01*
X100399500Y-64515961D01*
X100438910Y-64764785D01*
X100516760Y-65004383D01*
X100552433Y-65074394D01*
X100628933Y-65224534D01*
X100631132Y-65228848D01*
X100779201Y-65432649D01*
X100779205Y-65432654D01*
X100957345Y-65610794D01*
X100957350Y-65610798D01*
X101032069Y-65665084D01*
X101161155Y-65758870D01*
X101286996Y-65822989D01*
X101385616Y-65873239D01*
X101385618Y-65873239D01*
X101385621Y-65873241D01*
X101625215Y-65951090D01*
X101874038Y-65990500D01*
X101874039Y-65990500D01*
X102125961Y-65990500D01*
X102125962Y-65990500D01*
X102374785Y-65951090D01*
X102614379Y-65873241D01*
X102838845Y-65758870D01*
X103042656Y-65610793D01*
X103220793Y-65432656D01*
X103368870Y-65228845D01*
X103483241Y-65004379D01*
X103561090Y-64764785D01*
X103600500Y-64515962D01*
X103600500Y-64264038D01*
X103561090Y-64015215D01*
X103483241Y-63775621D01*
X103483239Y-63775618D01*
X103483239Y-63775616D01*
X103420009Y-63651522D01*
X103368870Y-63551155D01*
X103317991Y-63481126D01*
X103220798Y-63347350D01*
X103220794Y-63347345D01*
X103042654Y-63169205D01*
X103042649Y-63169201D01*
X102838848Y-63021132D01*
X102838847Y-63021131D01*
X102838845Y-63021130D01*
X102768747Y-62985413D01*
X102614383Y-62906760D01*
X102374785Y-62828910D01*
X102125962Y-62789500D01*
X101874038Y-62789500D01*
X101768587Y-62806202D01*
X101625214Y-62828910D01*
X101385616Y-62906760D01*
X101161151Y-63021132D01*
X100957350Y-63169201D01*
X100957345Y-63169205D01*
X100779205Y-63347345D01*
X100779201Y-63347350D01*
X100631132Y-63551151D01*
X100516760Y-63775616D01*
X100438910Y-64015214D01*
X100399500Y-64264038D01*
X97335355Y-64264038D01*
X97322287Y-64238390D01*
X97288975Y-64192539D01*
X97201971Y-64072786D01*
X97057213Y-63928028D01*
X96891613Y-63807715D01*
X96891612Y-63807714D01*
X96891610Y-63807713D01*
X96828616Y-63775616D01*
X96709223Y-63714781D01*
X96514534Y-63651522D01*
X96339995Y-63623878D01*
X96312352Y-63619500D01*
X96312351Y-63619500D01*
X95622229Y-63619500D01*
X95555190Y-63599815D01*
X95534548Y-63583181D01*
X94056819Y-62105451D01*
X94023334Y-62044128D01*
X94020500Y-62017770D01*
X94020500Y-57479024D01*
X94040185Y-57411985D01*
X94071616Y-57378705D01*
X94080390Y-57372331D01*
X94182365Y-57298242D01*
X94338242Y-57142365D01*
X94467815Y-56964022D01*
X94567895Y-56767606D01*
X94636015Y-56557951D01*
X94670500Y-56340222D01*
X94670500Y-56119778D01*
X94636015Y-55902049D01*
X94578789Y-55725922D01*
X94567896Y-55692396D01*
X94567895Y-55692393D01*
X94518830Y-55596100D01*
X94467815Y-55495978D01*
X94409501Y-55415715D01*
X94338247Y-55317641D01*
X94338243Y-55317636D01*
X94212788Y-55192181D01*
X94179303Y-55130858D01*
X94184287Y-55061166D01*
X94226159Y-55005233D01*
X94291623Y-54980816D01*
X94300469Y-54980500D01*
X100275500Y-54980500D01*
X100342539Y-55000185D01*
X100388294Y-55052989D01*
X100399500Y-55104500D01*
X100399500Y-55130017D01*
X100410000Y-55232796D01*
X100438115Y-55317641D01*
X100465186Y-55399335D01*
X100557288Y-55548656D01*
X100681344Y-55672712D01*
X100830665Y-55764814D01*
X100997202Y-55819999D01*
X101099990Y-55830500D01*
X101099995Y-55830500D01*
X102900005Y-55830500D01*
X102900010Y-55830500D01*
X103002798Y-55819999D01*
X103169335Y-55764814D01*
X103318656Y-55672712D01*
X103442712Y-55548656D01*
X103534814Y-55399335D01*
X103589999Y-55232798D01*
X103600500Y-55130010D01*
X103600500Y-53329990D01*
X103589999Y-53227202D01*
X103534814Y-53060665D01*
X103442712Y-52911344D01*
X103318656Y-52787288D01*
X103169335Y-52695186D01*
X103002798Y-52640001D01*
X103002796Y-52640000D01*
X102900017Y-52629500D01*
X102900010Y-52629500D01*
X101099990Y-52629500D01*
X101099982Y-52629500D01*
X100997203Y-52640000D01*
X100997202Y-52640001D01*
X100914669Y-52667349D01*
X100830667Y-52695185D01*
X100830662Y-52695187D01*
X100681342Y-52787289D01*
X100557289Y-52911342D01*
X100465187Y-53060662D01*
X100465186Y-53060665D01*
X100410001Y-53227202D01*
X100410001Y-53227203D01*
X100410000Y-53227203D01*
X100399500Y-53329982D01*
X100399500Y-53355500D01*
X100379815Y-53422539D01*
X100327011Y-53468294D01*
X100275500Y-53479500D01*
X99181649Y-53479500D01*
X99114610Y-53459815D01*
X99068855Y-53407011D01*
X99058911Y-53337853D01*
X99087936Y-53274297D01*
X99146714Y-53236523D01*
X99157457Y-53233883D01*
X99196797Y-53226057D01*
X99218913Y-53221658D01*
X99355495Y-53165084D01*
X99404729Y-53132186D01*
X99478416Y-53082952D01*
X100274548Y-52286818D01*
X100335871Y-52253334D01*
X100362229Y-52250500D01*
X104095270Y-52250500D01*
X104162309Y-52270185D01*
X104182951Y-52286819D01*
X117374549Y-65478416D01*
X117470179Y-65574046D01*
X117479085Y-65582952D01*
X117601998Y-65665080D01*
X117602011Y-65665087D01*
X117738582Y-65721656D01*
X117738587Y-65721658D01*
X117738591Y-65721658D01*
X117738592Y-65721659D01*
X117883579Y-65750500D01*
X117883582Y-65750500D01*
X117883583Y-65750500D01*
X118031417Y-65750500D01*
X123083001Y-65750500D01*
X123150040Y-65770185D01*
X123195795Y-65822989D01*
X123207001Y-65874500D01*
X123207001Y-66797876D01*
X123213408Y-66857483D01*
X123263702Y-66992328D01*
X123263706Y-66992335D01*
X123349952Y-67107544D01*
X123349955Y-67107547D01*
X123465164Y-67193793D01*
X123465171Y-67193797D01*
X123600017Y-67244091D01*
X123600016Y-67244091D01*
X123606944Y-67244835D01*
X123659627Y-67250500D01*
X127255372Y-67250499D01*
X127314983Y-67244091D01*
X127449831Y-67193796D01*
X127565046Y-67107546D01*
X127651296Y-66992331D01*
X127701591Y-66857483D01*
X127708000Y-66797873D01*
X127707999Y-63202128D01*
X127701591Y-63142517D01*
X127694108Y-63122455D01*
X127651297Y-63007671D01*
X127651293Y-63007664D01*
X127565047Y-62892455D01*
X127565044Y-62892452D01*
X127449835Y-62806206D01*
X127449828Y-62806202D01*
X127314982Y-62755908D01*
X127314983Y-62755908D01*
X127255383Y-62749501D01*
X127255381Y-62749500D01*
X127255373Y-62749500D01*
X127255364Y-62749500D01*
X123659629Y-62749500D01*
X123659623Y-62749501D01*
X123600016Y-62755908D01*
X123465171Y-62806202D01*
X123465164Y-62806206D01*
X123349955Y-62892452D01*
X123349952Y-62892455D01*
X123263706Y-63007664D01*
X123263703Y-63007669D01*
X123246073Y-63054939D01*
X123204201Y-63110872D01*
X123138737Y-63135289D01*
X123070464Y-63120437D01*
X123021059Y-63071032D01*
X123006066Y-63005025D01*
X123007999Y-62968650D01*
X123008000Y-62968613D01*
X123008000Y-61031386D01*
X123007998Y-61031347D01*
X123006333Y-60999998D01*
X123005205Y-60978759D01*
X122960745Y-60748874D01*
X122878074Y-60529810D01*
X122759570Y-60327868D01*
X122759565Y-60327861D01*
X122608643Y-60148858D01*
X122608641Y-60148856D01*
X122429638Y-59997934D01*
X122429631Y-59997929D01*
X122227689Y-59879425D01*
X122137332Y-59845326D01*
X122008626Y-59796755D01*
X122008621Y-59796754D01*
X121778743Y-59752295D01*
X121726152Y-59749501D01*
X121726129Y-59749500D01*
X121726122Y-59749500D01*
X119788878Y-59749500D01*
X119788870Y-59749500D01*
X119788847Y-59749501D01*
X119736256Y-59752295D01*
X119736255Y-59752295D01*
X119506378Y-59796754D01*
X119506376Y-59796754D01*
X119506374Y-59796755D01*
X119460156Y-59814197D01*
X119287310Y-59879425D01*
X119085368Y-59997929D01*
X119085361Y-59997934D01*
X118906358Y-60148856D01*
X118906356Y-60148858D01*
X118755434Y-60327861D01*
X118755429Y-60327868D01*
X118636925Y-60529810D01*
X118610671Y-60599380D01*
X118554255Y-60748874D01*
X118554254Y-60748876D01*
X118554254Y-60748878D01*
X118509795Y-60978755D01*
X118509795Y-60978756D01*
X118507001Y-61031347D01*
X118507000Y-61031386D01*
X118507000Y-62968613D01*
X118507001Y-62968652D01*
X118509795Y-63021243D01*
X118509795Y-63021244D01*
X118544779Y-63202128D01*
X118554255Y-63251126D01*
X118591733Y-63350437D01*
X118636925Y-63470189D01*
X118755429Y-63672131D01*
X118755434Y-63672138D01*
X118906356Y-63851141D01*
X118906358Y-63851143D01*
X119085361Y-64002065D01*
X119085365Y-64002067D01*
X119085368Y-64002070D01*
X119095841Y-64008216D01*
X119113459Y-64018555D01*
X119161315Y-64069462D01*
X119174052Y-64138161D01*
X119147625Y-64202840D01*
X119090426Y-64242964D01*
X119050700Y-64249500D01*
X118319729Y-64249500D01*
X118252690Y-64229815D01*
X118232048Y-64213181D01*
X113305187Y-59286319D01*
X112204671Y-58185803D01*
X123207500Y-58185803D01*
X123207500Y-58750000D01*
X124024488Y-58750000D01*
X123991575Y-58807007D01*
X123957500Y-58934174D01*
X123957500Y-59065826D01*
X123991575Y-59192993D01*
X124024488Y-59250000D01*
X123207501Y-59250000D01*
X123207501Y-59814197D01*
X123217900Y-59946332D01*
X123272877Y-60164519D01*
X123365928Y-60369374D01*
X123365931Y-60369380D01*
X123494059Y-60554323D01*
X123494069Y-60554335D01*
X123653164Y-60713430D01*
X123653176Y-60713440D01*
X123838119Y-60841568D01*
X123838125Y-60841571D01*
X124042980Y-60934622D01*
X124261167Y-60989599D01*
X124393310Y-60999999D01*
X125207499Y-60999999D01*
X125207500Y-60999998D01*
X125207500Y-59500000D01*
X125707500Y-59500000D01*
X125707500Y-60999999D01*
X126521682Y-60999999D01*
X126521697Y-60999998D01*
X126653832Y-60989599D01*
X126872019Y-60934622D01*
X127076874Y-60841571D01*
X127076880Y-60841568D01*
X127261823Y-60713440D01*
X127261835Y-60713430D01*
X127420930Y-60554335D01*
X127420940Y-60554323D01*
X127549068Y-60369380D01*
X127549071Y-60369374D01*
X127642122Y-60164519D01*
X127697099Y-59946332D01*
X127707499Y-59814196D01*
X127707500Y-59814184D01*
X127707500Y-59250000D01*
X126890512Y-59250000D01*
X126923425Y-59192993D01*
X126957500Y-59065826D01*
X126957500Y-58934174D01*
X126923425Y-58807007D01*
X126890512Y-58750000D01*
X127707499Y-58750000D01*
X127707499Y-58185817D01*
X127707498Y-58185802D01*
X127697099Y-58053667D01*
X127642122Y-57835480D01*
X127549071Y-57630625D01*
X127549068Y-57630619D01*
X127420940Y-57445676D01*
X127420930Y-57445664D01*
X127261835Y-57286569D01*
X127261823Y-57286559D01*
X127076880Y-57158431D01*
X127076874Y-57158428D01*
X126872019Y-57065377D01*
X126653832Y-57010400D01*
X126521696Y-57000000D01*
X125707500Y-57000000D01*
X125707500Y-58500000D01*
X125207500Y-58500000D01*
X125207500Y-57000000D01*
X124393317Y-57000000D01*
X124393302Y-57000001D01*
X124261167Y-57010400D01*
X124042980Y-57065377D01*
X123838125Y-57158428D01*
X123838119Y-57158431D01*
X123653176Y-57286559D01*
X123653164Y-57286569D01*
X123494069Y-57445664D01*
X123494059Y-57445676D01*
X123365931Y-57630619D01*
X123365928Y-57630625D01*
X123272877Y-57835480D01*
X123217900Y-58053667D01*
X123207500Y-58185803D01*
X112204671Y-58185803D01*
X108999325Y-54980457D01*
X108916516Y-54897648D01*
X111199500Y-54897648D01*
X111199500Y-55102351D01*
X111231522Y-55304534D01*
X111294781Y-55499223D01*
X111337248Y-55582567D01*
X111387585Y-55681359D01*
X111387715Y-55681613D01*
X111508028Y-55847213D01*
X111652786Y-55991971D01*
X111773226Y-56079474D01*
X111818390Y-56112287D01*
X111904380Y-56156101D01*
X112000776Y-56205218D01*
X112000778Y-56205218D01*
X112000781Y-56205220D01*
X112105137Y-56239127D01*
X112195465Y-56268477D01*
X112283251Y-56282381D01*
X112397648Y-56300500D01*
X112397649Y-56300500D01*
X112602351Y-56300500D01*
X112602352Y-56300500D01*
X112804534Y-56268477D01*
X112999219Y-56205220D01*
X113181610Y-56112287D01*
X113294466Y-56030293D01*
X113347213Y-55991971D01*
X113347215Y-55991968D01*
X113347219Y-55991966D01*
X113491966Y-55847219D01*
X113491968Y-55847215D01*
X113491971Y-55847213D01*
X113580093Y-55725921D01*
X113612287Y-55681610D01*
X113639795Y-55627621D01*
X113687769Y-55576826D01*
X113755589Y-55560030D01*
X113821725Y-55582567D01*
X113860765Y-55627621D01*
X113888141Y-55681350D01*
X113888147Y-55681359D01*
X113920523Y-55725921D01*
X113920524Y-55725922D01*
X114600000Y-55046446D01*
X114600000Y-55052661D01*
X114627259Y-55154394D01*
X114679920Y-55245606D01*
X114754394Y-55320080D01*
X114845606Y-55372741D01*
X114947339Y-55400000D01*
X114953553Y-55400000D01*
X114274076Y-56079474D01*
X114318650Y-56111859D01*
X114500968Y-56204755D01*
X114695582Y-56267990D01*
X114897683Y-56300000D01*
X115102317Y-56300000D01*
X115304417Y-56267990D01*
X115499031Y-56204755D01*
X115681349Y-56111859D01*
X115725921Y-56079474D01*
X115046447Y-55400000D01*
X115052661Y-55400000D01*
X115154394Y-55372741D01*
X115245606Y-55320080D01*
X115320080Y-55245606D01*
X115372741Y-55154394D01*
X115400000Y-55052661D01*
X115400000Y-55046447D01*
X116079474Y-55725921D01*
X116111859Y-55681349D01*
X116204755Y-55499031D01*
X116267990Y-55304417D01*
X116300000Y-55102317D01*
X116300000Y-54897685D01*
X116299424Y-54894048D01*
X116299424Y-54894046D01*
X116296995Y-54878711D01*
X133149500Y-54878711D01*
X133149500Y-55121288D01*
X133181161Y-55361785D01*
X133243947Y-55596104D01*
X133313829Y-55764814D01*
X133336776Y-55820212D01*
X133458064Y-56030289D01*
X133458066Y-56030292D01*
X133458067Y-56030293D01*
X133605733Y-56222736D01*
X133605739Y-56222743D01*
X133777256Y-56394260D01*
X133777262Y-56394265D01*
X133969711Y-56541936D01*
X134179788Y-56663224D01*
X134403900Y-56756054D01*
X134638211Y-56818838D01*
X134818586Y-56842584D01*
X134878711Y-56850500D01*
X134878712Y-56850500D01*
X135121289Y-56850500D01*
X135169388Y-56844167D01*
X135361789Y-56818838D01*
X135596100Y-56756054D01*
X135820212Y-56663224D01*
X136030289Y-56541936D01*
X136222738Y-56394265D01*
X136394265Y-56222738D01*
X136541936Y-56030289D01*
X136663224Y-55820212D01*
X136756054Y-55596100D01*
X136818838Y-55361789D01*
X136850500Y-55121288D01*
X136850500Y-54878712D01*
X136849253Y-54869243D01*
X136837110Y-54777000D01*
X136818838Y-54638211D01*
X136756054Y-54403900D01*
X136663224Y-54179788D01*
X136541936Y-53969711D01*
X136394265Y-53777262D01*
X136394260Y-53777256D01*
X136222743Y-53605739D01*
X136222736Y-53605733D01*
X136030293Y-53458067D01*
X136030292Y-53458066D01*
X136030289Y-53458064D01*
X135852643Y-53355500D01*
X135820214Y-53336777D01*
X135820205Y-53336773D01*
X135596104Y-53243947D01*
X135361785Y-53181161D01*
X135121289Y-53149500D01*
X135121288Y-53149500D01*
X134878712Y-53149500D01*
X134878711Y-53149500D01*
X134638214Y-53181161D01*
X134403895Y-53243947D01*
X134179794Y-53336773D01*
X134179785Y-53336777D01*
X134058137Y-53407011D01*
X133973801Y-53455703D01*
X133969706Y-53458067D01*
X133777263Y-53605733D01*
X133777256Y-53605739D01*
X133605739Y-53777256D01*
X133605733Y-53777263D01*
X133458067Y-53969706D01*
X133336777Y-54179785D01*
X133336773Y-54179794D01*
X133243947Y-54403895D01*
X133181161Y-54638214D01*
X133149500Y-54878711D01*
X116296995Y-54878711D01*
X116267990Y-54695582D01*
X116204755Y-54500968D01*
X116111859Y-54318650D01*
X116079474Y-54274077D01*
X116079474Y-54274076D01*
X115400000Y-54953551D01*
X115400000Y-54947339D01*
X115372741Y-54845606D01*
X115320080Y-54754394D01*
X115245606Y-54679920D01*
X115154394Y-54627259D01*
X115052661Y-54600000D01*
X115046446Y-54600000D01*
X115725922Y-53920524D01*
X115725921Y-53920523D01*
X115681359Y-53888147D01*
X115681350Y-53888141D01*
X115499031Y-53795244D01*
X115304417Y-53732009D01*
X115102317Y-53700000D01*
X114897683Y-53700000D01*
X114695582Y-53732009D01*
X114500968Y-53795244D01*
X114318644Y-53888143D01*
X114274077Y-53920523D01*
X114274077Y-53920524D01*
X114953554Y-54600000D01*
X114947339Y-54600000D01*
X114845606Y-54627259D01*
X114754394Y-54679920D01*
X114679920Y-54754394D01*
X114627259Y-54845606D01*
X114600000Y-54947339D01*
X114600000Y-54953553D01*
X113920524Y-54274077D01*
X113920523Y-54274077D01*
X113888143Y-54318644D01*
X113860765Y-54372378D01*
X113812790Y-54423174D01*
X113744969Y-54439969D01*
X113678834Y-54417431D01*
X113639795Y-54372378D01*
X113612287Y-54318390D01*
X113612285Y-54318387D01*
X113612284Y-54318385D01*
X113491971Y-54152786D01*
X113347213Y-54008028D01*
X113181613Y-53887715D01*
X113181612Y-53887714D01*
X113181610Y-53887713D01*
X113124653Y-53858691D01*
X112999223Y-53794781D01*
X112804534Y-53731522D01*
X112629995Y-53703878D01*
X112602352Y-53699500D01*
X112397648Y-53699500D01*
X112373329Y-53703351D01*
X112195465Y-53731522D01*
X112000776Y-53794781D01*
X111818386Y-53887715D01*
X111652786Y-54008028D01*
X111508028Y-54152786D01*
X111387715Y-54318386D01*
X111294781Y-54500776D01*
X111231522Y-54695465D01*
X111199500Y-54897648D01*
X108916516Y-54897648D01*
X104935921Y-50917052D01*
X104935914Y-50917046D01*
X104862229Y-50867812D01*
X104862229Y-50867813D01*
X104812991Y-50834913D01*
X104676417Y-50778343D01*
X104676407Y-50778340D01*
X104531420Y-50749500D01*
X104531418Y-50749500D01*
X99926082Y-50749500D01*
X99926076Y-50749500D01*
X99897242Y-50755234D01*
X99897243Y-50755235D01*
X99781092Y-50778339D01*
X99781086Y-50778341D01*
X99731051Y-50799067D01*
X99644506Y-50834914D01*
X99562372Y-50889795D01*
X99521585Y-50917047D01*
X99521581Y-50917050D01*
X98725451Y-51713181D01*
X98664128Y-51746666D01*
X98637770Y-51749500D01*
X87926076Y-51749500D01*
X87897242Y-51755234D01*
X87897243Y-51755235D01*
X87781093Y-51778339D01*
X87781085Y-51778341D01*
X87726253Y-51801053D01*
X87726254Y-51801054D01*
X87644506Y-51834914D01*
X87562372Y-51889795D01*
X87521585Y-51917047D01*
X87521581Y-51917050D01*
X84697951Y-54740681D01*
X84636628Y-54774166D01*
X84610270Y-54777000D01*
X83406977Y-54777000D01*
X83339938Y-54757315D01*
X83294183Y-54704511D01*
X83286733Y-54677365D01*
X83285876Y-54677568D01*
X83284092Y-54670020D01*
X83233797Y-54535171D01*
X83233793Y-54535164D01*
X83147547Y-54419955D01*
X83147544Y-54419952D01*
X83032335Y-54333706D01*
X83032328Y-54333702D01*
X82897482Y-54283408D01*
X82897483Y-54283408D01*
X82837883Y-54277001D01*
X82837881Y-54277000D01*
X82837873Y-54277000D01*
X82837864Y-54277000D01*
X81242129Y-54277000D01*
X81242123Y-54277001D01*
X81182516Y-54283408D01*
X81047671Y-54333702D01*
X81047664Y-54333706D01*
X80932455Y-54419952D01*
X80932452Y-54419955D01*
X80869266Y-54504361D01*
X80813332Y-54546232D01*
X80743641Y-54551216D01*
X80682318Y-54517730D01*
X80670734Y-54504361D01*
X80607547Y-54419955D01*
X80607544Y-54419952D01*
X80492335Y-54333706D01*
X80492328Y-54333702D01*
X80357482Y-54283408D01*
X80357483Y-54283408D01*
X80297883Y-54277001D01*
X80297881Y-54277000D01*
X80297873Y-54277000D01*
X80297864Y-54277000D01*
X78702129Y-54277000D01*
X78702123Y-54277001D01*
X78642516Y-54283408D01*
X78507671Y-54333702D01*
X78507664Y-54333706D01*
X78392455Y-54419952D01*
X78392452Y-54419955D01*
X78329266Y-54504361D01*
X78273332Y-54546232D01*
X78203641Y-54551216D01*
X78142318Y-54517730D01*
X78130734Y-54504361D01*
X78067547Y-54419955D01*
X78067544Y-54419952D01*
X77952335Y-54333706D01*
X77952328Y-54333702D01*
X77817482Y-54283408D01*
X77817483Y-54283408D01*
X77757883Y-54277001D01*
X77757881Y-54277000D01*
X77757873Y-54277000D01*
X77757864Y-54277000D01*
X76162129Y-54277000D01*
X76162123Y-54277001D01*
X76102516Y-54283408D01*
X75967671Y-54333702D01*
X75967664Y-54333706D01*
X75852455Y-54419952D01*
X75852452Y-54419955D01*
X75766206Y-54535164D01*
X75766202Y-54535171D01*
X75715908Y-54670017D01*
X75709501Y-54729616D01*
X75709500Y-54729635D01*
X56830874Y-54729635D01*
X56818838Y-54638211D01*
X56756054Y-54403900D01*
X56663224Y-54179788D01*
X56541936Y-53969711D01*
X56394265Y-53777262D01*
X56394260Y-53777256D01*
X56222743Y-53605739D01*
X56222736Y-53605733D01*
X56030293Y-53458067D01*
X56030292Y-53458066D01*
X56030289Y-53458064D01*
X55852643Y-53355500D01*
X55820214Y-53336777D01*
X55820205Y-53336773D01*
X55596104Y-53243947D01*
X55361785Y-53181161D01*
X55121289Y-53149500D01*
X55121288Y-53149500D01*
X54878712Y-53149500D01*
X54878711Y-53149500D01*
X54638214Y-53181161D01*
X54403895Y-53243947D01*
X54179794Y-53336773D01*
X54179785Y-53336777D01*
X54058137Y-53407011D01*
X53973801Y-53455703D01*
X53969706Y-53458067D01*
X53777263Y-53605733D01*
X53777256Y-53605739D01*
X53605739Y-53777256D01*
X53605733Y-53777263D01*
X53458067Y-53969706D01*
X53336777Y-54179785D01*
X53336773Y-54179794D01*
X53243947Y-54403895D01*
X53181161Y-54638214D01*
X53149500Y-54878711D01*
X50505796Y-54878711D01*
X50506209Y-54869244D01*
X50506209Y-54869243D01*
X50510433Y-54772498D01*
X50517386Y-54613226D01*
X50518325Y-54602496D01*
X50568151Y-54224032D01*
X50570024Y-54213402D01*
X50652648Y-53840714D01*
X50655446Y-53830276D01*
X50770230Y-53466227D01*
X50773917Y-53456095D01*
X50920003Y-53103412D01*
X50924561Y-53093638D01*
X51100822Y-52755045D01*
X51106217Y-52745700D01*
X51311325Y-52423744D01*
X51317515Y-52414905D01*
X51549896Y-52112060D01*
X51556834Y-52103791D01*
X51814726Y-51822352D01*
X51822352Y-51814726D01*
X52103791Y-51556834D01*
X52112060Y-51549896D01*
X52414905Y-51317515D01*
X52423744Y-51311325D01*
X52745700Y-51106217D01*
X52755045Y-51100822D01*
X53093638Y-50924561D01*
X53103412Y-50920003D01*
X53456095Y-50773917D01*
X53466227Y-50770230D01*
X53830285Y-50655443D01*
X53840714Y-50652648D01*
X54213402Y-50570024D01*
X54224032Y-50568151D01*
X54602496Y-50518325D01*
X54613224Y-50517387D01*
X54997297Y-50500617D01*
X55002706Y-50500500D01*
X55065892Y-50500500D01*
X134934108Y-50500500D01*
X134997294Y-50500500D01*
X135002702Y-50500617D01*
G37*
%TD.AperFunction*%
%TD*%
M02*
