M48
; DRILL file KiCad 10.0.1 date 2026-06-06T16:23:08
; FORMAT={-:-/ absolute / metric / decimal}
; #@! TF.CreationDate,2026-06-06T16:23:08-04:00
; #@! TF.GenerationSoftware,Kicad,Pcbnew,10.0.1
; #@! TF.FileFunction,Plated,1,2,PTH
FMAT,2
METRIC
; #@! TA.AperFunction,Plated,PTH,ViaDrill
T1C0.300
; #@! TA.AperFunction,Plated,PTH,ComponentDrill
T2C0.600
; #@! TA.AperFunction,Plated,PTH,ComponentDrill
T3C0.700
; #@! TA.AperFunction,Plated,PTH,ComponentDrill
T4C0.800
; #@! TA.AperFunction,Plated,PTH,ComponentDrill
T5C0.900
; #@! TA.AperFunction,Plated,PTH,ComponentDrill
T6C1.000
; #@! TA.AperFunction,Plated,PTH,ComponentDrill
T7C1.100
; #@! TA.AperFunction,Plated,PTH,ComponentDrill
T8C1.200
; #@! TA.AperFunction,Plated,PTH,ComponentDrill
T9C1.600
%
G90
G05
T1
X109.5Y-83.5
X114.5Y-78.5
T2
X77.81Y-83.5
X77.81Y-85.5
T3
X76.96Y-55.527
X79.5Y-55.527
X82.04Y-55.527
T4
X78.0Y-64.775
X78.0Y-66.775
X78.0Y-73.927
X78.0Y-77.727
X88.19Y-64.92
X88.19Y-67.46
X88.19Y-70.0
X88.19Y-72.54
X90.31Y-81.5
X92.81Y-81.5
X95.0Y-88.5
X95.81Y-64.92
X95.81Y-67.46
X95.81Y-70.0
X95.81Y-72.54
X99.601Y-81.96
X103.799Y-93.58
X108.399Y-87.04
X108.601Y-80.46
X109.0Y-93.0
X112.5Y-55.0
X115.0Y-55.0
X117.399Y-85.54
X117.799Y-98.08
X124.0Y-72.045
X124.0Y-74.045
T5
X90.73Y-56.23
X93.27Y-56.23
X127.0Y-79.46
X127.0Y-82.0
T6
X138.0Y-70.5
X138.0Y-73.04
X138.0Y-75.58
T7
X62.27Y-95.23
X64.81Y-95.23
X67.35Y-95.23
X102.0Y-54.23
X102.0Y-64.39
T8
X77.5Y-95.5
X82.5Y-95.5
X87.5Y-95.5
T9
X126.0Y-86.08
X126.0Y-94.38
X126.0Y-97.48
T6
G00X60.8Y-61.23
M15
G01X60.8Y-63.23
M16
G05
G00X66.5Y-59.23
M15
G01X64.5Y-59.23
M16
G05
G00X66.5Y-65.23
M15
G01X64.5Y-65.23
M16
G05
G00X120.757Y-61.0
M15
G01X120.757Y-63.0
M16
G05
G00X126.457Y-59.0
M15
G01X124.457Y-59.0
M16
G05
G00X126.457Y-65.0
M15
G01X124.457Y-65.0
M16
G05
M30
